<svg xmlns="http://www.w3.org/2000/svg" width="32" height="32" viewBox="0 0 32 32">
    <defs>
        <linearGradient id="dmd8gasbua" x1=".5" x2=".5" y2="1" gradientUnits="objectBoundingBox">
            <stop offset="0" stop-color="#fff"/>
            <stop offset=".376" stop-color="#fff" stop-opacity="0"/>
            <stop offset="1" stop-color="#fff" stop-opacity="0"/>
            <stop offset="1" stop-color="#00455e"/>
        </linearGradient>
        <clipPath id="ic6rrnr77b">
            <path data-name="사각형 3170" style="fill:none" d="M0 0h20v11H0z"/>
        </clipPath>
    </defs>
    <g transform="translate(-1353 -384)">
        <g transform="translate(1353 384)" style="fill:#ef233c;stroke:#da152c;stroke-width:1.5px">
            <circle cx="16" cy="16" r="16" style="stroke:none"/>
            <circle cx="16" cy="16" r="15.25" style="fill:none"/>
        </g>
        <circle data-name="bg" cx="14.5" cy="14.5" r="14.5" transform="translate(1354.5 385.5)" style="mix-blend-mode:overlay;isolation:isolate;fill:url(#dmd8gasbua)"/>
        <g data-name="그룹 10222" style="clip-path:url(#ic6rrnr77b)" transform="translate(1359 394)">
            <path data-name="패스 1049" d="M20 1.959v.031a4.4 4.4 0 0 1-.148 1.024 13.6 13.6 0 0 1-.991 1.927L16.79 8.533h-2.161V6.192l1.085-1.357a2.048 2.048 0 0 0 .413-.742.637.637 0 0 0-.78-.772 3.212 3.212 0 0 0-.718.192V.819a8.853 8.853 0 0 1 2.6-.782S20.018-.432 20 1.959m-5.371 9.036v-.434h.991l-.251.439zm0-.817v-.439h1.466l-.251.439zm0-.823v-.434h1.942l-.252.434zM5.358 4.5c.13.04.237.151.1.424-.022.04-.058.121-.1.232zM14.629.819v2.694a2.8 2.8 0 0 0-1.466 1.372c-.273 1.236 1.1.878 1.1.878v.873l.278-.338.085-.106v2.341H12.8l.233-.283s-3.219.131-2.874-2.335c.256-1.847 2.062-3.951 4.474-5.1m0 8.1v.434h-2.5l.354-.434zm0 .818v.439h-3.169l.354-.439zm0 .822v.434l-3.806-.02.332-.414zm-9.271.409v-.409h2.085c-.094.257-.152.409-.152.409zm0-.792v-.433h2.39l-.161.439zm0-.823v-.428h2.7l-.166.434zm0-.822H8.2C8.783 6.979 9.46 5.2 9.6 4.926c.251-.505-.332-.449-.332-.449h-3.04a.167.167 0 0 0-.166.146l-.337.6.9.016-1.267 2.926zM1.587 5.223l.332-.6a.167.167 0 0 1 .166-.146h3.04a.693.693 0 0 1 .233.025v.656c-.247.595-.8 2.063-1.3 3.375h-3l1.431-3.294zm3.771 2.942-.158.368h.162zm0 .756v.434h-.516l.189-.434zm0 .818v.439h-.874l.192-.439zm0 .822v.409h-1.22l.18-.409zm-1.439-1.64-.162.434H.7l.188-.434zm-.3.818-.166.439H.346l.188-.439zm-.305.822c-.1.257-.152.409-.152.409H0l.175-.409z" style="fill:#fff;fill-rule:evenodd"/>
        </g>
    </g>
</svg>
