<svg xmlns="http://www.w3.org/2000/svg" width="32" height="32" viewBox="0 0 32 32">
    <defs>
        <linearGradient id="v67bcwc2ia" x1=".5" x2=".5" y2="1" gradientUnits="objectBoundingBox">
            <stop offset="0" stop-color="#fff"/>
            <stop offset=".376" stop-color="#fff" stop-opacity="0"/>
            <stop offset="1" stop-color="#fff" stop-opacity="0"/>
            <stop offset="1" stop-color="#00455e"/>
        </linearGradient>
        <clipPath id="rbe8182sgb">
            <path data-name="사각형 3176" style="fill:none" d="M0 0h16v16H0z"/>
        </clipPath>
    </defs>
    <g transform="translate(-1353 -384)">
        <g transform="translate(1353 384)" style="stroke:#453fe5;stroke-width:1.5px;fill:#625cf3">
            <circle cx="16" cy="16" r="16" style="stroke:none"/>
            <circle cx="16" cy="16" r="15.25" style="fill:none"/>
        </g>
        <circle data-name="bg" cx="14.5" cy="14.5" r="14.5" transform="translate(1354.5 385.5)" style="opacity:.3;mix-blend-mode:overlay;isolation:isolate;fill:url(#v67bcwc2ia)"/>
        <g data-name="그룹 10225" style="clip-path:url(#rbe8182sgb)" transform="translate(1361 392)">
            <rect data-name="사각형 3174" width="16" height="16" rx="2.468" style="fill:#fff"/>
            <rect data-name="사각형 3175" width="12" height="12" rx="1" transform="translate(2 2)" style="fill:#625cf3"/>
            <path data-name="패스 1054" d="m13.3 7.457-1.791-.388-1.068-2.115-2.985-1.482L4.8 4.793a1.078 1.078 0 0 0-.486 1.45 1.092 1.092 0 0 0 1.459.483l1.688-.839.587.291-2.761 3.9h-2.18a1.081 1.081 0 1 0 0 2.161h3.262l1.2-1.6.813.807-.87 2.614a1.087 1.087 0 0 0 2.063.683l1.3-3.874-2.02-2.006.645-.955.434.862s2.827.771 2.962.771a1.08 1.08 0 0 0 .4-2.084" style="fill:#fff"/>
            <path data-name="패스 1055" d="M9.734 3.869a1.35 1.35 0 1 1 1.35 1.35 1.349 1.349 0 0 1-1.35-1.35" style="fill:#fff"/>
            <circle data-name="타원 181" cx="1.35" cy="1.35" r="1.35" transform="translate(9.734 2.519)" style="stroke:#fff;stroke-miterlimit:10;stroke-width:.25px;fill:none"/>
        </g>
    </g>
</svg>
