<svg xmlns="http://www.w3.org/2000/svg" width="32" height="32" viewBox="0 0 32 32">
    <defs>
        <clipPath id="tf91qvyxpa">
            <path data-name="사각형 3164" style="fill:none" d="M0 0h16v16H0z"/>
        </clipPath>
    </defs>
    <g style="stroke:#008d2b;stroke-width:1.5px;fill:#fff">
        <circle cx="16" cy="16" r="16" style="stroke:none"/>
        <circle cx="16" cy="16" r="15.25" style="fill:none"/>
    </g>
    <g data-name="그룹 10218" style="clip-path:url(#tf91qvyxpa)" transform="translate(8 8)">
        <rect data-name="사각형 3163" width="16" height="16" rx="2.468" style="fill:#00b337"/>
        <path data-name="패스 1037" d="M7.075 9.471V12h1.85V9.471a.545.545 0 0 1 .546-.546H12v-1.85H9.471a.545.545 0 0 1-.546-.545V4h-1.85v2.53a.545.545 0 0 1-.546.545H4v1.85h2.529a.545.545 0 0 1 .546.546" style="fill:#fff"/>
        <path data-name="패스 1038" d="M7.075 9.471V12h1.85V9.471a.545.545 0 0 1 .546-.546H12v-1.85H9.471a.545.545 0 0 1-.546-.545V4h-1.85v2.53a.545.545 0 0 1-.546.545H4v1.85h2.529a.545.545 0 0 1 .546.546z" style="stroke:#fff;stroke-linecap:round;stroke-linejoin:round;stroke-width:.5px;fill:none"/>
    </g>
</svg>
