<svg xmlns="http://www.w3.org/2000/svg" width="32" height="32" viewBox="0 0 32 32">
    <defs>
        <linearGradient id="m8hhvkh94a" x1=".5" x2=".5" y2="1" gradientUnits="objectBoundingBox">
            <stop offset="0" stop-color="#fff"/>
            <stop offset=".376" stop-color="#fff" stop-opacity="0"/>
            <stop offset="1" stop-color="#fff" stop-opacity="0"/>
            <stop offset="1" stop-color="#00455e"/>
        </linearGradient>
        <clipPath id="m81fuslpub">
            <path data-name="사각형 3172" style="fill:none" d="M0 0h16v16H0z"/>
        </clipPath>
    </defs>
    <g transform="translate(-1353 -384)">
        <g transform="translate(1353 384)" style="stroke:#008d2b;stroke-width:1.5px;fill:#00b337">
            <circle cx="16" cy="16" r="16" style="stroke:none"/>
            <circle cx="16" cy="16" r="15.25" style="fill:none"/>
        </g>
        <circle data-name="bg" cx="14.5" cy="14.5" r="14.5" transform="translate(1354.5 385.5)" style="opacity:.4;mix-blend-mode:overlay;isolation:isolate;fill:url(#m8hhvkh94a)"/>
        <g data-name="그룹 10223" style="clip-path:url(#m81fuslpub)" transform="translate(1361 392)">
            <rect data-name="사각형 3171" width="16" height="16" rx="2.468" style="fill:#fff"/>
            <path data-name="패스 1050" d="M7.075 9.471V12h1.85V9.471a.545.545 0 0 1 .546-.546H12v-1.85H9.471a.545.545 0 0 1-.546-.545V4h-1.85v2.53a.545.545 0 0 1-.546.545H4v1.85h2.529a.545.545 0 0 1 .546.546" style="fill:#00b337"/>
            <path data-name="패스 1051" d="M7.075 9.471V12h1.85V9.471a.545.545 0 0 1 .546-.546H12v-1.85H9.471a.545.545 0 0 1-.546-.545V4h-1.85v2.53a.545.545 0 0 1-.546.545H4v1.85h2.529a.545.545 0 0 1 .546.546z" style="stroke:#00b337;stroke-linecap:round;stroke-linejoin:round;stroke-width:.5px;fill:none"/>
        </g>
    </g>
</svg>
