<svg xmlns="http://www.w3.org/2000/svg" width="32" height="32" viewBox="0 0 32 32">
    <defs>
        <linearGradient id="gj6t4y0j3a" x1=".5" x2=".5" y2="1" gradientUnits="objectBoundingBox">
            <stop offset="0" stop-color="#fff"/>
            <stop offset=".376" stop-color="#fff" stop-opacity="0"/>
            <stop offset="1" stop-color="#fff" stop-opacity="0"/>
            <stop offset="1" stop-color="#00455e"/>
        </linearGradient>
        <clipPath id="ymu24kxwnb">
            <path data-name="사각형 3173" style="fill:none" d="M0 0h18v15.945H0z"/>
        </clipPath>
    </defs>
    <g transform="translate(-1353 -384)">
        <g transform="translate(1353 384)" style="stroke:#925017;stroke-width:1.5px;fill:#b16828">
            <circle cx="16" cy="16" r="16" style="stroke:none"/>
            <circle cx="16" cy="16" r="15.25" style="fill:none"/>
        </g>
        <circle data-name="bg" cx="14.5" cy="14.5" r="14.5" transform="translate(1354.5 385.5)" style="opacity:.3;mix-blend-mode:overlay;isolation:isolate;fill:url(#gj6t4y0j3a)"/>
        <g data-name="그룹 10224" style="clip-path:url(#ymu24kxwnb)" transform="translate(1360 391)">
            <path data-name="선 188" transform="translate(.5 15.445)" style="stroke:#fff;stroke-linecap:round;stroke-linejoin:round;fill:none" d="M0 0h17"/>
            <path data-name="패스 1052" d="M16.78 14.517a44.61 44.61 0 0 1-.8-6.626.792.792 0 0 0-.36-.632c-2.441-1.524-4.5-2.482-6.017-4.688a.663.663 0 0 0-1.123 0C6.959 4.819 4.875 5.8 2.4 7.329a.791.791 0 0 0-.363.626 45.609 45.609 0 0 1-.814 6.56.763.763 0 0 0 .677.985h14.2a.762.762 0 0 0 .677-.983" style="fill:#fff"/>
            <path data-name="선 189" transform="translate(7.5 .5)" style="stroke:#fff;stroke-linecap:round;stroke-linejoin:round;fill:none" d="M3 4.949 0 0"/>
            <path data-name="선 190" transform="translate(7.5 .5)" style="stroke:#fff;stroke-linecap:round;stroke-linejoin:round;fill:none" d="M3 0 0 4.949"/>
            <path data-name="패스 1053" d="M8.74 6.853 6.505 13.77c-.033.1.093.2.26.2h4.47c.167 0 .292-.1.26-.2L9.26 6.853c-.057-.176-.463-.176-.52 0" style="fill:#b16828"/>
        </g>
    </g>
</svg>
