<svg xmlns="http://www.w3.org/2000/svg" width="32" height="32" viewBox="0 0 32 32">
    <defs>
        <linearGradient id="0js0rm70aa" x1=".5" x2=".5" y2="1" gradientUnits="objectBoundingBox">
            <stop offset="0" stop-color="#fff"/>
            <stop offset=".376" stop-color="#fff" stop-opacity="0"/>
            <stop offset="1" stop-color="#fff" stop-opacity="0"/>
            <stop offset="1" stop-color="#00455e"/>
        </linearGradient>
        <clipPath id="m0198ajplb">
            <path data-name="사각형 3169" style="fill:none" d="M0 0h19v14H0z"/>
        </clipPath>
    </defs>
    <g transform="translate(-1353 -384)">
        <g transform="translate(1353 384)" style="stroke:#215fda;stroke-width:1.5px;fill:#3e7eff">
            <circle cx="16" cy="16" r="16" style="stroke:none"/>
            <circle cx="16" cy="16" r="15.25" style="fill:none"/>
        </g>
        <circle data-name="bg" cx="14.5" cy="14.5" r="14.5" transform="translate(1354.5 385.5)" style="opacity:.3;mix-blend-mode:overlay;isolation:isolate;fill:url(#0js0rm70aa)"/>
        <g data-name="그룹 10221" style="clip-path:url(#m0198ajplb)" transform="translate(1359.5 393)">
            <path data-name="패스 1043" d="M.095.2a8.408 8.408 0 0 0 5.136 2.96l.118-.047v-.281L8.4 2.738l.157-.538-.1-.259-.275-.023-.237.094-.118.14-.177-.563.08-.489.453-.192.236.064L8.635.8l.3-.158.369-.07.438.052A2.252 2.252 0 0 1 10 .586c.059 0 .329-.018.329-.018l.227-.035.093-.059.025.182-.084.217-.148.188-.108.2V1.5l.015.246.074.528v.246l.113.311s.153.006.187.006.32-.012.32-.012l.394.012s.408.029.422.023.625-.023.665-.023h.511l.389-.018.167.035-.01.235s-.024.035.025.059a3.946 3.946 0 0 0 .58-.071S14.489 3 14.509 3s.157-.041.2-.041.541-.164.571-.17.841-.358.841-.358l.6-.358.275-.187s.65-.458.674-.481.468-.411.468-.411l.2-.334.247-.188.187-.14.073.029.015.381-.1.258-.114.235-.044.217.015.24-.02.293-.108.311-.172.34-.1.176v.282l-.02.428-.226.434-.232.2-.152.147-.034.2-.045.24-.172.287-.177.352-.384.176-.2.171-.171.034-.1.194-.1.164s-.207.264-.212.287a1.748 1.748 0 0 1-.285.141l-.31.1-.207.041-.059.129-.138.141a1.152 1.152 0 0 0-.093.117 1.194 1.194 0 0 1-.158.141l-.231.064-.147.029-.153.065-.118.129-.108.076-.162.105-.232.1-.191.014-.162.012-.133.012-.138.087-.117.159.053.165.118.14a2.272 2.272 0 0 1 .109.211c0 .017.024.211.024.211l-.02.176-.034.153-.1.216-.094.235-.1.2-.015.5-.088.288s-.075.182-.089.211a1.266 1.266 0 0 1-.162.141s-.119.116-.133.122 0 .083 0 .106.049.264.049.264l.045.194-.138.334a1.239 1.239 0 0 0-.045.164c0 .03-.108.317-.108.317a1.5 1.5 0 0 0-.1.247 1.256 1.256 0 0 1-.04.222 4.797 4.797 0 0 0-.078.423.729.729 0 0 1-.128.263c-.049.053-.33.135-.35.176s-.23.095-.25.095-.31-.118-.31-.118l-.183-.018-.255.041s-.152.047-.177.059-.369.012-.369.012a.622.622 0 0 1-.153-.059 3.398 3.398 0 0 0-.236-.159l-.039-.141-.217.236a.173.173 0 0 1-.113.123 1.154 1.154 0 0 1-.329.017l-.281-.123-.2-.011-.232.017s-.123.023-.182.029-.324.012-.339.024a1.189 1.189 0 0 1-.2-.006l-.2-.147L7 13.394l-.108-.222-.005-.258-.055-.3-.009-.187-.108-.27-.187-.375s0-.3.01-.334 0-.253 0-.253l.025-.117-.059-.135-.172-.094L6.2 10.6a.9.9 0 0 1-.049-.27 2.291 2.291 0 0 0 .01-.3s-.054-.2-.059-.246-.054-.182-.059-.206-.128-.278-.128-.278-.035-.088-.055-.147-.127-.428-.127-.428.108-.258.108-.276.113-.24.123-.258l.084-.135-.148-.198-.157-.088-.222-.012-.241-.041-.226-.071-.187-.1-.153-.176-.172-.035-.457-.147L3.863 7l-.142-.234-.163-.077-.28-.059L3 6.474l-.2-.135-.162-.305-.163-.282-.255-.105-.266-.129-.216-.2s-.177-.252-.177-.269-.148-.282-.148-.282-.024-.267-.024-.287-.035-.141-.035-.141l-.187-.164-.25-.305s-.168-.241-.172-.264l-.079-.37v-.269a.808.808 0 0 1-.015-.135.512.512 0 0 0-.01-.112l-.152-.211a2.531 2.531 0 0 1-.118-.293c0-.035-.079-.235-.079-.282v-.387l.015-.111-.054-.276L.1.943.081.667S.061.456.061.433V.257z" style="fill:#fff"/>
            <path data-name="패스 1044" d="m6.652 3.4 1.587.172-.182.815h-.364L6.9 3.83z" style="fill:#3e7eff"/>
            <path data-name="패스 1045" d="m12.36 3.4-1.606.172.184.815h.368l.8-.561z" style="fill:#3e7eff"/>
            <path data-name="패스 1046" d="M18.732 1.324A1.248 1.248 0 0 0 19 .537 1.317 1.317 0 0 0 18.894 0a8.093 8.093 0 0 1-5.187 3.063v-.316c0-.019-.009-.025-.022-.025h-3.052a27.975 27.975 0 0 1-.057-.479v-.042a5.758 5.758 0 0 0-.14-.869 1.225 1.225 0 0 0 .327-.462 1.4 1.4 0 0 0 .107-.543V.289l-.026.02a1.038 1.038 0 0 1-.144.075 1.643 1.643 0 0 1-.816.1 4.107 4.107 0 0 0-.59-.019 1.522 1.522 0 0 0-.423.073.759.759 0 0 0-.271.171.661.661 0 0 0-.118.164 1.644 1.644 0 0 0-.573.064.433.433 0 0 0-.251.188.656.656 0 0 0-.087.351 1.471 1.471 0 0 0 .06.385 1.141 1.141 0 0 0 .271.481l.024.025v-.038a.3.3 0 0 1 .316-.246h.1a.165.165 0 0 1 .133.055.222.222 0 0 1 .016.155 3.453 3.453 0 0 1-.072.367.528.528 0 0 0-.014.058h-3.09c-.013 0-.021.006-.021.025v.316A8.1 8.1 0 0 1 .1 0a1.347 1.347 0 0 0-.1.537 1.244 1.244 0 0 0 .269.787 1.468 1.468 0 0 0 .366 1.5 1.794 1.794 0 0 0-.019.263 1.569 1.569 0 0 0 .626 1.26l.06.047a1.486 1.486 0 0 0 1.184 1.46 1.313 1.313 0 0 0 1.233.979 1.043 1.043 0 0 0 .981.648.913.913 0 0 0 .551.419.942.942 0 0 0 .483.012.968.968 0 0 0 .266.171.853.853 0 0 0-.258.447 1.043 1.043 0 0 0 .171.935 1.116 1.116 0 0 1 .157.392 2.794 2.794 0 0 1 .03.5 1.041 1.041 0 0 0 .07.384.746.746 0 0 0 .2.288.568.568 0 0 0 .164.1.8.8 0 0 0-.084.195.912.912 0 0 0-.018.372.978.978 0 0 0 .132.361 2.586 2.586 0 0 1 .225.428 1.2 1.2 0 0 1 .066.426.979.979 0 0 0 .322.877.667.667 0 0 0 .8.1.712.712 0 0 1 .36-.056 1.628 1.628 0 0 1 .412.12.6.6 0 0 0 .329.037.559.559 0 0 0 .291-.133.712.712 0 0 0 .131-.156.653.653 0 0 0 .129.155.563.563 0 0 0 .291.133.6.6 0 0 0 .329-.037 1.639 1.639 0 0 1 .412-.12.71.71 0 0 1 .36.056.667.667 0 0 0 .8-.1.987.987 0 0 0 .323-.877 1.182 1.182 0 0 1 .065-.426 2.512 2.512 0 0 1 .225-.428 1 1 0 0 0 .132-.361.879.879 0 0 0-.019-.372.755.755 0 0 0-.082-.195.532.532 0 0 0 .162-.1.727.727 0 0 0 .2-.288 1.021 1.021 0 0 0 .07-.384 2.78 2.78 0 0 1 .031-.5 1.113 1.113 0 0 1 .156-.392 1.037 1.037 0 0 0 .171-.935.853.853 0 0 0-.255-.445.993.993 0 0 0 .266-.17.939.939 0 0 0 .482-.012.91.91 0 0 0 .551-.419 1.043 1.043 0 0 0 .981-.648 1.312 1.312 0 0 0 1.233-.979 1.482 1.482 0 0 0 1.183-1.46l.061-.047a1.569 1.569 0 0 0 .626-1.26 1.648 1.648 0 0 0-.02-.263 1.467 1.467 0 0 0 .367-1.5m-4.484 3.76h-1.27v-.01l.631-1.629zm.479-.853a1.829 1.829 0 0 1-.592.131l-.2-.513a8 8 0 0 0 1.333-.338.869.869 0 0 1-.539.72m.125.13a.9.9 0 0 1-.451.677l-.2-.511a1.816 1.816 0 0 0 .578-.134l.073-.032m-3.347 3.413a.066.066 0 0 0-.051-.025.062.062 0 0 0-.023 0 .063.063 0 0 0-.028.021l-.693.843a1.5 1.5 0 0 0-.16-.177l.621-.989a.46.46 0 0 1 .351-.249.441.441 0 0 1 .377.239 2.376 2.376 0 0 0 .312.434c-.223.188-.779.65-1.288 1.073a1.975 1.975 0 0 0-.134-.226l.716-.827a.092.092 0 0 0 .021-.059.118.118 0 0 0-.021-.062m-.826-.7a.078.078 0 0 0-.035-.048.065.065 0 0 0-.056-.005.073.073 0 0 0-.041.043l-.439 1.067a1.682 1.682 0 0 0-.221-.085l.458-1.79a1.856 1.856 0 0 0 .442.219.5.5 0 0 1 .306.355.637.637 0 0 1-.087.474l-.6 1.009a1.839 1.839 0 0 0-.19-.126l.457-1.045a.1.1 0 0 0 .007-.04.089.089 0 0 0 0-.028M9.5 6.229a.087.087 0 0 0-.077.093L9.438 8a1.451 1.451 0 0 0-.21.024l-.46-1.857a1.314 1.314 0 0 0 .2-.262c.217-.355.375-.373.531-.373s.312.018.529.373a1.352 1.352 0 0 0 .2.262l-.459 1.857A1.481 1.481 0 0 0 9.562 8l.015-1.678a.087.087 0 0 0-.077-.093m-1.175.918.456 1.045a1.839 1.839 0 0 0-.19.126l-.6-1.009a.633.633 0 0 1-.088-.474.5.5 0 0 1 .306-.355 1.875 1.875 0 0 0 .442-.219l.458 1.79a1.616 1.616 0 0 0-.22.085l-.435-1.067a.077.077 0 0 0-.042-.043.065.065 0 0 0-.056.005.078.078 0 0 0-.035.048.09.09 0 0 0 0 .028.076.076 0 0 0 .009.04m-.831.75.716.827a2.324 2.324 0 0 0-.135.226c-.508-.423-1.064-.885-1.287-1.073a2.376 2.376 0 0 0 .307-.434.442.442 0 0 1 .378-.243.459.459 0 0 1 .351.249l.622.989a1.711 1.711 0 0 0-.161.177l-.69-.839a.058.058 0 0 0-.028-.021.064.064 0 0 0-.024 0 .066.066 0 0 0-.05.025.109.109 0 0 0-.02.062.086.086 0 0 0 .02.059m5.329-3.783a.848.848 0 0 1 .437-.185l-.121.305a2.048 2.048 0 0 1-.316-.12m.254.274-.153.388a4.378 4.378 0 0 1-.426-.292l.023-.034a1.481 1.481 0 0 1 .173-.218 2.558 2.558 0 0 0 .383.156m-.694-.063a1.718 1.718 0 0 1-1.2.805c-.049-.176-.1-.352-.145-.525a1.789 1.789 0 0 0 1.178-.693 1.336 1.336 0 0 1 1.068-.6h.221l-.166.419a1.133 1.133 0 0 0-.955.594m-1.1 2.448v-.013a.841.841 0 0 0 .079-.154c.029.137.051.265.066.376a.478.478 0 0 0-.084.025l-.03.013v-.038a.749.749 0 0 0-.029-.209m-.058-.15A.7.7 0 0 0 10.9 6.3a.944.944 0 0 0 .247-.519c.062.223.119.438.166.635a1 1 0 0 1-.092.2m-3.531.4-.029-.013a.516.516 0 0 0-.085-.025c.014-.111.037-.239.066-.376a.841.841 0 0 0 .079.154v.013a.787.787 0 0 0-.028.209v.042m-.006-.6c.046-.2.1-.412.164-.635A.944.944 0 0 0 8.1 6.3a.705.705 0 0 0-.322.319.949.949 0 0 1-.091-.2m.23-.872.041-.148v-.011l.128-.464a1.263 1.263 0 0 0 .255.633.858.858 0 0 1-.215.585.872.872 0 0 1-.215-.6m.486.289a.854.854 0 0 0 .133.269 1.636 1.636 0 0 1-.324.156 1 1 0 0 0 .2-.42m.055-.225a.924.924 0 0 0 .239-.454.907.907 0 0 0 .235.419l.016.013a1.456 1.456 0 0 0-.127.19 1.082 1.082 0 0 1-.183.234.643.643 0 0 1-.185-.4m.286-.7a.939.939 0 0 0 .223-.44.911.911 0 0 0 .223.44.915.915 0 0 1-.223.5.893.893 0 0 1-.223-.5m.5.187a1.112 1.112 0 0 0 .1.219.565.565 0 0 0-.18.072l-.05.032a1.09 1.09 0 0 0 .134-.323m.046-.2a.976.976 0 0 0 .208-.425.98.98 0 0 0 .207.426.918.918 0 0 1-.187.407.071.071 0 0 0-.02 0 .082.082 0 0 0-.022 0 .93.93 0 0 1-.186-.408m.462.2a1.117 1.117 0 0 0 .133.323l-.05-.032a.556.556 0 0 0-.18-.072 1.112 1.112 0 0 0 .1-.219m.057-.187a.92.92 0 0 0 .223-.44.927.927 0 0 0 .224.44.892.892 0 0 1-.224.5.915.915 0 0 1-.223-.5m.253.661a.907.907 0 0 0 .235-.419.933.933 0 0 0 .244.455.648.648 0 0 1-.184.4 1.085 1.085 0 0 1-.185-.234 1.456 1.456 0 0 0-.126-.19zm.534.261a.992.992 0 0 0 .2.42 1.7 1.7 0 0 1-.325-.156.773.773 0 0 0 .129-.264m.056-.276a1.252 1.252 0 0 0 .256-.633c.043.155.086.311.13.464v.011l.041.148a.872.872 0 0 1-.215.6.863.863 0 0 1-.215-.585m1.4-1.818a1.623 1.623 0 0 1-1.085.614 22.058 22.058 0 0 1-.186-.752c.365-.04 1.376-.147 1.551-.165a2.65 2.65 0 0 0-.28.3M10.87 4.776a.227.227 0 0 1-.038.041.83.83 0 0 1-.221-.524.72.72 0 0 0 .1-.13c.051.2.106.4.163.613m-.064.2a.976.976 0 0 1-.232.475.887.887 0 0 1-.224-.541.939.939 0 0 0 .207-.392.881.881 0 0 0 .249.458m-.51-.206a.818.818 0 0 1-.208-.494.973.973 0 0 0 .208-.43 1.006 1.006 0 0 0 .209.43.823.823 0 0 1-.209.494m-.267-.628a.808.808 0 0 1-.207-.489.969.969 0 0 0 .207-.425.978.978 0 0 0 .208.425.813.813 0 0 1-.208.489m-.057.134a.829.829 0 0 1-.209.494.8.8 0 0 1-.209-.494 1.006 1.006 0 0 0 .209-.43.983.983 0 0 0 .209.43M9.5 4.142a.812.812 0 0 1-.209-.489.965.965 0 0 0 .209-.425.937.937 0 0 0 .207.425.821.821 0 0 1-.207.489m-.06.134a.818.818 0 0 1-.208.494.823.823 0 0 1-.209-.494.994.994 0 0 0 .209-.43 1.008 1.008 0 0 0 .208.43m-.475-.134a.812.812 0 0 1-.209-.489.954.954 0 0 0 .209-.425.969.969 0 0 0 .207.425.815.815 0 0 1-.207.489m-.059.134a.811.811 0 0 1-.206.494.824.824 0 0 1-.208-.494.985.985 0 0 0 .208-.43 1.006 1.006 0 0 0 .209.43m-.257.636a.881.881 0 0 1-.224.541.967.967 0 0 1-.232-.475.873.873 0 0 0 .249-.458.939.939 0 0 0 .207.392m-.481-.1a.2.2 0 0 1-.039-.041c.057-.21.112-.416.163-.613a.71.71 0 0 0 .1.13.83.83 0 0 1-.221.524m-.14-.46a1.627 1.627 0 0 1-1.086-.614 2.557 2.557 0 0 0-.279-.3l1.552.165c-.053.233-.117.488-.187.752m-1.25-.443a1.789 1.789 0 0 0 1.178.693c-.047.173-.1.349-.145.525a1.72 1.72 0 0 1-1.2-.805 1.131 1.131 0 0 0-.955-.594L5.5 3.312h.221a1.337 1.337 0 0 1 1.067.6m-.608.2a2.032 2.032 0 0 1-.315.12l-.122-.305a.841.841 0 0 1 .437.185m.129.118a1.555 1.555 0 0 1 .174.218l.021.034a4.1 4.1 0 0 1-.425.292l-.154-.388a2.489 2.489 0 0 0 .375-.154m-.1.882-.073-.181a4.082 4.082 0 0 0 .457-.321 2.145 2.145 0 0 0 .2.224 1.863 1.863 0 0 1-1.353.875.751.751 0 0 1-.673-.393 1.2 1.2 0 0 0 .632.182 1.221 1.221 0 0 0 .81-.316.056.056 0 0 0 .011-.07M6.9 4.94a1.484 1.484 0 0 0 .225.162c-.094.214-.456.936-1.059 1.057a.552.552 0 0 1-.618-.275A1.966 1.966 0 0 0 6.9 4.94m.353.232a1.674 1.674 0 0 0 .264.1A2.118 2.118 0 0 1 6.9 6.349a.5.5 0 0 1-.688-.049 2.021 2.021 0 0 0 1.04-1.123m-.273 1.317a2.227 2.227 0 0 0 .677-1.188c.035.007.071.012.107.016-.11.395-.217.779-.293 1.114a.5.5 0 0 1-.56.1l.069-.043m4.257-1.172c.037 0 .074-.009.108-.016a2.234 2.234 0 0 0 .677 1.188l.069.043a.5.5 0 0 1-.561-.1 22.579 22.579 0 0 0-.293-1.114m.248-.049a1.724 1.724 0 0 0 .265-.1A2.015 2.015 0 0 0 12.788 6.3a.5.5 0 0 1-.691.054 2.118 2.118 0 0 1-.613-1.076m.392-.171a1.436 1.436 0 0 0 .224-.167 1.962 1.962 0 0 0 1.452.944.551.551 0 0 1-.618.275c-.6-.121-.965-.843-1.059-1.057m.337-.266a2.145 2.145 0 0 0 .195-.224 3.952 3.952 0 0 0 .456.321l-.073.181a.056.056 0 0 0 .011.07 1.185 1.185 0 0 0 1.437.134.753.753 0 0 1-.674.393 1.861 1.861 0 0 1-1.352-.875m1.3-1.876v.115s-2.213.214-2.784.273a5.337 5.337 0 0 1-.058-.342c0-.015 0-.03-.007-.046zm-2.844 1.046a.419.419 0 0 1-.1.136.812.812 0 0 1-.209-.489.773.773 0 0 0 .162-.3c.037.2.087.42.146.654M8.345 1.844h-.1c-.049 0-.268 0-.329.162a1.009 1.009 0 0 1-.1-.247.966.966 0 0 1-.039-.28.407.407 0 0 1 .046-.209.241.241 0 0 1 .139-.1 1.461 1.461 0 0 1 .522-.056h.051a.785.785 0 0 1 .421.391 1.555 1.555 0 0 0 .766-.461 4.323 4.323 0 0 1-1.053-.009.022.022 0 0 1-.015-.034l.002-.009A.465.465 0 0 1 8.932.77 1.344 1.344 0 0 1 9.3.709a4.182 4.182 0 0 1 .568.015A2.008 2.008 0 0 0 10.6.672a.973.973 0 0 1-.3.471l-.057.048-.063.051.03.082.028.075a5.449 5.449 0 0 1 .131.832l.006.041c.025.229.057.5.1.773v.015a.688.688 0 0 1-.169.461.883.883 0 0 1-.214-.617h-.1a.893.893 0 0 1-.214.617.883.883 0 0 1-.227-.621h-.1a.887.887 0 0 1-.215.617.879.879 0 0 1-.218-.617h-.1a.888.888 0 0 1-.214.617.675.675 0 0 1-.168-.436c.034-.16.078-.345.08-.354a4 4 0 0 0 .078-.4.494.494 0 0 0-.061-.349.339.339 0 0 0-.282-.141m.134 1.508a.775.775 0 0 0 .161.3.806.806 0 0 1-.209.489.434.434 0 0 1-.1-.136c.058-.234.109-.456.147-.654M5.487 2.96h2.858a3.583 3.583 0 0 0-.038.192 3.183 3.183 0 0 1-.035.193c-.6-.061-2.783-.273-2.783-.273zm-.1.487.631 1.629v.01H4.754zm-1.167.948a1.828 1.828 0 0 0 .578.134l-.2.511a.9.9 0 0 1-.451-.677c.024.01.047.022.073.032m-.487-.882a8 8 0 0 0 1.333.338l-.2.513a1.841 1.841 0 0 1-.593-.131.871.871 0 0 1-.538-.72M.209.473A8.035 8.035 0 0 0 5.286 3.3l-.148.378a8.26 8.26 0 0 1-4.75-2.557.75.75 0 0 1-.179-.648m.232.975A8.677 8.677 0 0 0 3.58 3.455a1.154 1.154 0 0 0 .26.665A5.862 5.862 0 0 1 .771 2.647a1.182 1.182 0 0 1-.33-1.2m.378 1.506a6.038 6.038 0 0 0 3.167 1.358 1.475 1.475 0 0 0 .214.584 4.1 4.1 0 0 1-2.844-.748 1.324 1.324 0 0 1-.537-1.194M2.3 5.561a1.261 1.261 0 0 1-.79-1.067 4.389 4.389 0 0 0 2.82.559.9.9 0 0 0 .211.147 1.068 1.068 0 0 0 .218.384A3.418 3.418 0 0 1 2.3 5.561M3.806 6.6a1.083 1.083 0 0 1-1.078-.685A3.493 3.493 0 0 0 4.9 5.71a.837.837 0 0 0 .368.158.886.886 0 0 0 .152.242 2.776 2.776 0 0 1-1.614.49m.135.2a2.95 2.95 0 0 0 1.605-.581.663.663 0 0 0 .493.109.709.709 0 0 0 .107.116 2.315 2.315 0 0 1-1.211.756.842.842 0 0 1-.994-.4m1.38.872a.663.663 0 0 1-.405-.259 2.288 2.288 0 0 0 1.361-.872.578.578 0 0 0 .459.064.337.337 0 0 0 .124.095c-.167.274-.742 1.1-1.539.981m.651.122a2.462 2.462 0 0 0 1.047-1.056.63.63 0 0 0 .4-.065 3.945 3.945 0 0 0-.047.3.688.688 0 0 0-.417.331c-.21.342-.324.5-.6.6h-.01a.817.817 0 0 1-.373-.113m.108 1.526a.777.777 0 0 1-.134-.716.631.631 0 0 1 .462-.487 1 1 0 0 0 .271-.148c.2.171.8.656 1.341 1.1a1.991 1.991 0 0 0-.086.231L6.6 8.768a.073.073 0 0 0-.1.058.1.1 0 0 0 .049.116l1.343.5a2.025 2.025 0 0 0-.044.247c-.648-.019-1.373-.044-1.622-.053a1.506 1.506 0 0 0-.146-.31m.413 1.493a.582.582 0 0 1-.188-.457 3.069 3.069 0 0 0-.037-.569l1.57.036v.274l-.987.168a.068.068 0 0 0-.047.034.1.1 0 0 0-.013.064.086.086 0 0 0 .028.056.063.063 0 0 0 .021.012.048.048 0 0 0 .033 0l.976-.195a2.135 2.135 0 0 0 .042.254l-.989.365a.4.4 0 0 1-.407-.046m.237 1.1a.622.622 0 0 1-.073-.5.5.5 0 0 1 .3-.321l.981-.4a2.042 2.042 0 0 0 .092.237l-.886.523a.077.077 0 0 0-.025.026.063.063 0 0 0-.01.027.086.086 0 0 0 0 .065.078.078 0 0 0 .042.042.057.057 0 0 0 .055-.005l.881-.555a2.094 2.094 0 0 0 .137.22L6.98 12.409a2.672 2.672 0 0 0-.25-.489m1.479 1.671a1 1 0 0 0-.293.069c-.35.136-.488.038-.612-.069s-.245-.234-.245-.674a1.652 1.652 0 0 0-.035-.354c.2-.179.77-.7 1.289-1.183a1.734 1.734 0 0 0 .158.173l-.84 1.347a.1.1 0 0 0 .017.128.071.071 0 0 0 .108-.028l.814-1.366a1.939 1.939 0 0 0 .184.127l-.545 1.826m1.191-.381a.606.606 0 0 1-.162.448.4.4 0 0 1-.422.071 1.784 1.784 0 0 0-.467-.132l.513-1.771a1.383 1.383 0 0 0 .22.088l-.171 1.17a.1.1 0 0 0 .012.063.071.071 0 0 0 .048.035.055.055 0 0 0 .052-.013.076.076 0 0 0 .018-.022.09.09 0 0 0 .013-.036L9.2 11.94a1.541 1.541 0 0 0 .216.033zm.1-3.218a.672.672 0 0 1-1.028.243.991.991 0 0 1-.206-1.226A1.439 1.439 0 0 1 9.5 8.218a1.646 1.646 0 0 1 1.481 1.77 2 2 0 0 1-.248.979.991.991 0 0 0-.206-1.225.67.67 0 0 0-1.027.246m.687 3.737a.4.4 0 0 1-.423-.071.606.606 0 0 1-.162-.448l-.015-1.233a1.541 1.541 0 0 0 .213-.033l.146 1.167a.068.068 0 0 0 .013.036.069.069 0 0 0 .016.022.058.058 0 0 0 .053.013.065.065 0 0 0 .047-.035.1.1 0 0 0 .013-.063l-.171-1.17a1.383 1.383 0 0 0 .22-.088c.2.7.424 1.462.513 1.771a1.758 1.758 0 0 0-.466.132m1.754-.808c0 .44-.119.565-.245.674a.5.5 0 0 1-.613.069 1 1 0 0 0-.293-.069l-.544-1.826a2.061 2.061 0 0 0 .183-.127L11.245 13a.07.07 0 0 0 .107.022.106.106 0 0 0 .018-.128l-.841-1.345a2.012 2.012 0 0 0 .159-.173l1.288 1.183a1.722 1.722 0 0 0-.034.354m.328-1a2.683 2.683 0 0 0-.251.489l-1.252-1.13a2.1 2.1 0 0 0 .138-.22l.88.555a.057.057 0 0 0 .055.005.078.078 0 0 0 .042-.042.092.092 0 0 0 .005-.065.169.169 0 0 0-.01-.027.124.124 0 0 0-.025-.026l-.886-.523a2.235 2.235 0 0 0 .091-.237l.98.4a.5.5 0 0 1 .306.321.622.622 0 0 1-.073.5m.425-1.558a.578.578 0 0 1-.188.457.4.4 0 0 1-.407.046l-.989-.365a2.135 2.135 0 0 0 .042-.254l.976.195a.047.047 0 0 0 .033 0 .051.051 0 0 0 .02-.012.079.079 0 0 0 .029-.056.1.1 0 0 0-.013-.064.068.068 0 0 0-.046-.034l-.987-.168v-.115c0-.039 0-.108-.006-.159l1.571-.036a3.06 3.06 0 0 0-.038.569m.36-1.752a.784.784 0 0 1-.135.716 1.688 1.688 0 0 0-.147.31c-.248.009-.97.034-1.624.053a2.83 2.83 0 0 0-.044-.247l1.342-.5a.1.1 0 0 0 .05-.116.074.074 0 0 0-.1-.058l-1.328.535a1.987 1.987 0 0 0-.085-.231c.539-.44 1.134-.925 1.34-1.1a.991.991 0 0 0 .272.148.636.636 0 0 1 .462.487m-.4-.687h-.005c-.281-.108-.4-.262-.606-.6a.681.681 0 0 0-.416-.331 2.805 2.805 0 0 0-.046-.3.626.626 0 0 0 .4.065A2.468 2.468 0 0 0 13.028 7.8a.813.813 0 0 1-.374.123m1.025-.245c-.8.119-1.372-.707-1.539-.981a.337.337 0 0 0 .124-.086.577.577 0 0 0 .459-.064 2.288 2.288 0 0 0 1.362.872.671.671 0 0 1-.406.259m.386-.474a2.3 2.3 0 0 1-1.21-.754.812.812 0 0 0 .107-.116.666.666 0 0 0 .493-.109 2.942 2.942 0 0 0 1.6.581.843.843 0 0 1-.994.4m1.129-.6a2.783 2.783 0 0 1-1.615-.492.848.848 0 0 0 .153-.242.832.832 0 0 0 .372-.162 3.493 3.493 0 0 0 2.172.207 1.084 1.084 0 0 1-1.078.685m1.5-1.041a3.419 3.419 0 0 1-2.459.023 1.051 1.051 0 0 0 .218-.384.881.881 0 0 0 .211-.147 4.385 4.385 0 0 0 2.819-.559 1.257 1.257 0 0 1-.783 1.067m.947-1.414a4.1 4.1 0 0 1-2.843.748 1.473 1.473 0 0 0 .213-.584 6.035 6.035 0 0 0 3.167-1.358 1.322 1.322 0 0 1-.537 1.194m.585-1.5a5.863 5.863 0 0 1-3.071 1.473 1.166 1.166 0 0 0 .259-.665 8.653 8.653 0 0 0 3.138-2.007 1.177 1.177 0 0 1-.329 1.2m-4.367 1.027-.148-.375A8.035 8.035 0 0 0 18.791.473a.755.755 0 0 1-.178.648 8.267 8.267 0 0 1-4.751 2.554" style="fill:#fff"/>
            <path data-name="패스 1047" d="M10.5 9.555a.7.7 0 0 0-.964.4.796.796 0 0 1-.021.064.708.708 0 0 1-.989.459.97.97 0 0 1-.389-1.178h-.005a1.939 1.939 0 0 0 .77 2.359 1.417 1.417 0 0 0 1.978-.918.967.967 0 0 0-.38-1.186" style="fill:#3e7eff"/>
            <path data-name="패스 1048" d="M9.506 10.013a.709.709 0 0 1 .989-.459.969.969 0 0 1 .385 1.179 1.937 1.937 0 0 0-.77-2.359 1.419 1.419 0 0 0-1.978.919h.005a.968.968 0 0 0 .385 1.179.7.7 0 0 0 .963-.4l.021-.063" style="fill:#fff"/>
        </g>
    </g>
</svg>
