<svg xmlns="http://www.w3.org/2000/svg" width="60" height="60" viewBox="0 0 60 60">
    <defs>
        <clipPath id="tj0w28x34a">
            <path data-name="사각형 3150" style="fill:none" d="M0 0h42v50H0z"/>
        </clipPath>
    </defs>
    <g data-name="그룹 18099" style="clip-path:url(#tj0w28x34a)" transform="translate(9 5)">
        <path data-name="패스 64688" d="M30.021 3.267h7.5A3.526 3.526 0 0 1 41 6.836v38.595A3.526 3.526 0 0 1 37.519 49H4.48A3.525 3.525 0 0 1 1 45.431V6.836a3.525 3.525 0 0 1 3.48-3.569h7.5" style="stroke-miterlimit:10;stroke:#999;stroke-width:2px;fill:none"/>
        <path data-name="패스 64689" d="M26.91 6.354H15.091c-1.891 0-3.424-1.847-3.424-4.124A1.14 1.14 0 0 1 12.688 1h16.625a1.14 1.14 0 0 1 1.021 1.23c0 2.277-1.534 4.124-3.424 4.124z" style="stroke-linecap:round;stroke-miterlimit:10;stroke:#999;stroke-width:2px;fill:none"/>
        <path data-name="패스 64690" d="M28.777 35.736a5.717 5.717 0 1 1 5.556-5.714 5.642 5.642 0 0 1-5.556 5.714z" style="stroke-linecap:round;stroke-miterlimit:10;stroke:#999;stroke-width:2px;fill:none"/>
        <path data-name="패스 64691" d="M31.556 35.341v5.714l-2.778-2.017L26 41.055v-5.714" style="stroke-linejoin:round;stroke-linecap:round;stroke:#999;stroke-width:2px;fill:none"/>
        <path data-name="선 183" transform="translate(7.667 13.62)" style="stroke-linecap:round;stroke-miterlimit:10;stroke:#999;stroke-width:2px;fill:none" d="M0 0h26.667"/>
        <path data-name="선 184" transform="translate(7.667 19)" style="stroke-linecap:round;stroke-miterlimit:10;stroke:#999;stroke-width:2px;fill:none" d="M0 0h16.287"/>
        <path data-name="선 185" transform="translate(7.667 33.832)" style="stroke-linecap:round;stroke-miterlimit:10;stroke:#999;stroke-width:2px;fill:none" d="M0 0h8.889"/>
    </g>
</svg>
