<svg xmlns="http://www.w3.org/2000/svg" width="100" height="100" viewBox="0 0 100 100">
    <defs>
        <clipPath id="acbh3ir3za">
            <path data-name="사각형 690" style="fill:none" d="M0 0h60v60H0z"/>
        </clipPath>
    </defs>
    <path data-name="패스 26353" d="m8.717 47.478-5-6.194-.25-6.834 4-9.271 1.25-7.832-.383-4.076 4.133 2 2.5 3.716 1.25 2.478 2.5-4.955V9.354l-1.25-4h2.379l5.121 2.478 1.25 3.716 1.25 1.239L30 11.273 32.467 6.6V2.881l3.75 1.238 2.5 3.717 1.25 6.194v1.239l2.5-1.239 3.75-4.955 2.5 6.194 2.5 7.433v7.273l-1.25 6.354-1.25 3.716-6.25 3.717z" style="fill:#f1686e" transform="translate(20 20)"/>
    <g data-name="그룹 17945">
        <g data-name="그룹 17944" style="clip-path:url(#acbh3ir3za)" transform="translate(20 20)">
            <path data-name="패스 26354" d="M2.012 37.372a13.259 13.259 0 0 0 2.922 7.516 13.027 13.027 0 0 0 3.4 3.084c1.228.73 2.328-1.3 1.1-2.032a11.113 11.113 0 0 1-5.209-10.41c.687-6.864 8.92-13.751 4.905-21.051a5.391 5.391 0 0 0-.155-.26c1.38.944 5.429 4.619 6.127 7.974a1.073 1.073 0 0 0 1.989.281c3.38-4.805 3.588-11.289 1.265-16.562a13.258 13.258 0 0 1 8.271 7.773 1.082 1.082 0 0 0 1.6.7 12.4 12.4 0 0 0 5.5-10.845 14.4 14.4 0 0 1 5.254 11.693c-.043.716.739 1.4 1.378 1.135a11.492 11.492 0 0 0 5.806-5.22 54.667 54.667 0 0 1 3.084 8.924c1.69 6.609 2.285 14.524-2.033 20.151-.888 1.158.644 2.831 1.539 1.664 7.326-9.546 3.3-24.461-1.808-34.19a1.072 1.072 0 0 0-1.99.281 8.723 8.723 0 0 1-3.806 5.387A17.2 17.2 0 0 0 32.94.155a1.127 1.127 0 0 0-1.6 1.329 10.509 10.509 0 0 1-3.217 10.139 15.974 15.974 0 0 0-11.682-8.618 1.173 1.173 0 0 0-1.229 1.729 15.237 15.237 0 0 1 1.184 14.5c-1.942-3.86-6.309-7.878-10.414-7.514a1.2 1.2 0 0 0-.289 2.312c-.476-.2.39.257.577.413a4.912 4.912 0 0 1 1.163 1.577c1.36 3.02-.178 6.838-1.518 9.516-1.9 3.8-4.161 7.3-3.9 11.831" style="fill:#333"/>
            <path data-name="패스 26355" d="m42.873 35.477-2.464-3.3a1.262 1.262 0 0 0-2.13 0l-6.56 9.015Q27.24 33.3 22.76 25.4a1.252 1.252 0 0 0-2.13 0L2.72 54.106.19 58.161a1.064 1.064 0 0 0 .037 1.265A1.121 1.121 0 0 0 1.255 60h57.483c.858 0 1.64-1.069 1.065-1.839l-16.93-22.684" style="fill:#333"/>
            <path data-name="패스 26356" d="M8.4 57.555H3.467L20.23 30.693l1.414-2.268 8.878 15.644a1.255 1.255 0 0 0 2.13 0q3.348-4.606 6.706-9.214 7.924 10.62 15.851 21.239l1.091 1.461z" style="fill:#372f8e"/>
            <path data-name="패스 26357" d="m39.358 34.855-6.705 9.214a1.255 1.255 0 0 1-2.13 0l-8.878-15.644-1.415 2.268L3.468 57.555H56.3l-1.091-1.461-15.851-21.239" style="fill:#fff"/>
        </g>
    </g>
</svg>
