<svg xmlns="http://www.w3.org/2000/svg" width="48" height="48" viewBox="0 0 48 48">
    <defs>
        <clipPath id="pjs7i5rrba">
            <path data-name="사각형 2886" style="fill:none" d="M0 0h44v43H0z"/>
        </clipPath>
    </defs>
    <g data-name="그룹 18174">
        <g data-name="그룹 18173" style="clip-path:url(#pjs7i5rrba)" transform="translate(2 3)">
            <path data-name="선 146" transform="translate(1.99 31.589)" style="stroke:#1c78bf;stroke-linejoin:round;stroke-width:2px;fill:none" d="M8.1 7.529 0 0"/>
            <path data-name="선 147" transform="translate(1 42)" style="stroke-linecap:round;stroke:#1c78bf;stroke-linejoin:round;stroke-width:2px;fill:none" d="M0 0h42"/>
            <path data-name="선 148" transform="translate(2.26 14.911)" style="stroke-linecap:round;stroke:#1c78bf;stroke-linejoin:round;stroke-width:2px;fill:none" d="M0 27.005V0"/>
            <path data-name="선 149" transform="translate(9.82 14.911)" style="stroke-linecap:round;stroke:#1c78bf;stroke-linejoin:round;stroke-width:2px;fill:none" d="M0 27.005V0"/>
            <path data-name="패스 65284" d="M2.825 4.41h6.43a1.838 1.838 0 0 1 1.825 1.841v6.357a1.839 1.839 0 0 1-1.825 1.841h-6.43A1.839 1.839 0 0 1 1 12.608V6.251A1.838 1.838 0 0 1 2.825 4.41z" style="stroke-linecap:round;stroke:#1c78bf;stroke-linejoin:round;stroke-width:2px;fill:none"/>
            <path data-name="패스 65285" d="M3.376 3.878 6.04 1 8.7 3.878" style="stroke-linecap:round;stroke:#1c78bf;stroke-linejoin:round;stroke-width:2px;fill:none"/>
            <path data-name="패스 65286" d="M11.08 13.194h31.8l-8.64-7.529H11.08z" style="stroke:#1c78bf;stroke-linejoin:round;stroke-width:2px;fill:none"/>
            <path data-name="선 150" transform="translate(25.06 5.665)" style="stroke:#1c78bf;stroke-linejoin:round;stroke-width:2px;fill:none" d="M8.1 7.529 0 0"/>
            <path data-name="선 151" transform="translate(16.102 5.665)" style="stroke:#1c78bf;stroke-linejoin:round;stroke-width:2px;fill:none" d="M8.1 7.529 0 0"/>
            <path data-name="패스 65287" d="M27.88 13.306v4.712a2.928 2.928 0 1 1-2.94 2.928" style="stroke-linecap:round;stroke:#1c78bf;stroke-linejoin:round;stroke-width:2px;fill:none"/>
            <path data-name="선 152" transform="translate(27.88 24.599)" style="stroke-linecap:round;stroke:#1c78bf;stroke-linejoin:round;stroke-width:2px;fill:none" d="M0 0v2.51"/>
            <rect data-name="사각형 2885" width="18.48" height="8.365" rx="2.032" transform="translate(18.64 27.398)" style="stroke-linecap:round;stroke:#1c78bf;stroke-linejoin:round;stroke-width:2px;fill:none"/>
            <path data-name="선 153" transform="translate(1.99 14.858)" style="stroke:#1c78bf;stroke-linejoin:round;stroke-width:2px;fill:none" d="M8.1 7.529 0 0"/>
            <path data-name="선 154" transform="translate(1.99 23.223)" style="stroke:#1c78bf;stroke-linejoin:round;stroke-width:2px;fill:none" d="M8.1 7.529 0 0"/>
        </g>
    </g>
</svg>
