<svg xmlns="http://www.w3.org/2000/svg" width="60" height="60" viewBox="0 0 60 60">
    <defs>
        <clipPath id="71b274fyma">
            <path data-name="사각형 3198" style="fill:none" d="M0 0h52v51H0z"/>
        </clipPath>
    </defs>
    <g data-name="그룹 18120" style="clip-path:url(#71b274fyma)" transform="translate(4 3)">
        <path data-name="선 186" transform="translate(2.178 37.557)" style="stroke:#999;stroke-linejoin:round;stroke-width:2px;fill:none" d="M9.643 8.998 0 0"/>
        <path data-name="선 187" transform="translate(1 50)" style="stroke-linecap:round;stroke:#999;stroke-linejoin:round;stroke-width:2px;fill:none" d="M0 0h50"/>
        <path data-name="선 188" transform="translate(2.5 17.625)" style="stroke-linecap:round;stroke:#999;stroke-linejoin:round;stroke-width:2px;fill:none" d="M0 32.275V0"/>
        <path data-name="선 189" transform="translate(11.5 17.625)" style="stroke-linecap:round;stroke:#999;stroke-linejoin:round;stroke-width:2px;fill:none" d="M0 32.275V0"/>
        <path data-name="패스 64699" d="M3.172 5.075h7.655A2.193 2.193 0 0 1 13 7.275v7.6a2.194 2.194 0 0 1-2.173 2.2H3.172A2.193 2.193 0 0 1 1 14.872v-7.6a2.192 2.192 0 0 1 2.172-2.197z" style="stroke-linecap:round;stroke:#999;stroke-linejoin:round;stroke-width:2px;fill:none"/>
        <path data-name="패스 64700" d="M3.828 4.44 7 1l3.172 3.44" style="stroke-linecap:round;stroke:#999;stroke-linejoin:round;stroke-width:2px;fill:none"/>
        <path data-name="패스 64701" d="M13 15.573h37.857l-10.286-9H13z" style="stroke:#999;stroke-linejoin:round;stroke-width:2px;fill:none"/>
        <path data-name="선 190" transform="translate(29.643 6.575)" style="stroke:#999;stroke-linejoin:round;stroke-width:2px;fill:none" d="M9.643 8.998 0 0"/>
        <path data-name="선 191" transform="translate(18.978 6.575)" style="stroke:#999;stroke-linejoin:round;stroke-width:2px;fill:none" d="M9.643 8.998 0 0"/>
        <path data-name="패스 64702" d="M33 15.707v5.631a3.5 3.5 0 1 1-3.5 3.5" style="stroke-linecap:round;stroke:#999;stroke-linejoin:round;stroke-width:2px;fill:none"/>
        <path data-name="선 192" transform="translate(33 29.204)" style="stroke-linecap:round;stroke:#999;stroke-linejoin:round;stroke-width:2px;fill:none" d="M0 0v2.999"/>
        <rect data-name="사각형 3197" width="22" height="9.998" rx="2.424" transform="translate(22 32.549)" style="stroke-linecap:round;stroke:#999;stroke-linejoin:round;stroke-width:2px;fill:none"/>
        <path data-name="선 193" transform="translate(2.178 17.562)" style="stroke:#999;stroke-linejoin:round;stroke-width:2px;fill:none" d="M9.643 8.998 0 0"/>
        <path data-name="선 194" transform="translate(2.178 27.559)" style="stroke:#999;stroke-linejoin:round;stroke-width:2px;fill:none" d="M9.643 8.998 0 0"/>
    </g>
</svg>
