<svg xmlns="http://www.w3.org/2000/svg" width="48" height="48" viewBox="0 0 48 48">
    <defs>
        <clipPath id="v2k0p45t7a">
            <path data-name="사각형 3103" style="fill:none" d="M0 0h40v40H0z"/>
        </clipPath>
    </defs>
    <g data-name="그룹 18257">
        <g data-name="그룹 18252">
            <g data-name="그룹 18251" style="clip-path:url(#v2k0p45t7a)" transform="translate(4 4)">
                <path data-name="사각형 3100" transform="translate(1 31.4)" style="stroke:#fff;stroke-linecap:round;stroke-linejoin:round;stroke-width:2px;fill:none" d="M0 0h12.667v7.6H0z"/>
                <path data-name="사각형 3101" transform="translate(13.667 31.4)" style="stroke:#fff;stroke-linecap:round;stroke-linejoin:round;stroke-width:2px;fill:none" d="M0 0h12.667v7.6H0z"/>
                <path data-name="사각형 3102" transform="translate(26.333 31.4)" style="stroke:#fff;stroke-linecap:round;stroke-linejoin:round;stroke-width:2px;fill:none" d="M0 0h12.667v7.6H0z"/>
            </g>
        </g>
        <path data-name="사각형 3104" transform="translate(11.333 27.8)" style="stroke:#fff;stroke-linecap:round;stroke-linejoin:round;stroke-width:2px;fill:none" d="M0 0h12.667v7.6H0z"/>
        <path data-name="사각형 3105" transform="translate(24 27.8)" style="stroke:#fff;stroke-linecap:round;stroke-linejoin:round;stroke-width:2px;fill:none" d="M0 0h12.667v7.6H0z"/>
        <g data-name="그룹 18254">
            <g data-name="그룹 18253" style="clip-path:url(#v2k0p45t7a)" transform="translate(4 4)">
                <path data-name="사각형 3106" transform="translate(1 16.2)" style="stroke:#fff;stroke-linecap:round;stroke-linejoin:round;stroke-width:2px;fill:none" d="M0 0h12.667v7.6H0z"/>
            </g>
        </g>
        <path data-name="사각형 3108" transform="translate(17.667 20.2)" style="stroke:#fff;stroke-linecap:round;stroke-linejoin:round;stroke-width:2px;fill:none" d="M0 0h12.667v7.6H0z"/>
        <path data-name="패스 68224" d="M7.333 16.2V8.6H20v7.669z" style="stroke:#fff;stroke-linecap:round;stroke-linejoin:round;stroke-width:2px;fill:none" transform="translate(4 4)"/>
        <g data-name="그룹 18256">
            <g data-name="그룹 18255" style="clip-path:url(#v2k0p45t7a)" transform="translate(4 4)">
                <path data-name="사각형 3109" transform="translate(1 8.6)" style="stroke:#fff;stroke-linecap:round;stroke-linejoin:round;stroke-width:2px;fill:none" d="M0 0h6.333v7.6H0z"/>
                <path data-name="사각형 3110" transform="translate(1 1)" style="stroke:#fff;stroke-linecap:round;stroke-linejoin:round;stroke-width:2px;fill:none" d="M0 0h12.667v7.6H0z"/>
                <path data-name="사각형 3111" transform="translate(1 23.8)" style="stroke:#fff;stroke-linecap:round;stroke-linejoin:round;stroke-width:2px;fill:none" d="M0 0h6.333v7.6H0z"/>
                <path data-name="사각형 3112" transform="translate(32.667 23.8)" style="stroke:#fff;stroke-linecap:round;stroke-linejoin:round;stroke-width:2px;fill:none" d="M0 0h6.333v7.6H0z"/>
                <path data-name="사각형 3113" transform="translate(26.333 1)" style="stroke:#fff;stroke-linecap:round;stroke-linejoin:round;stroke-width:2px;fill:none" d="M0 0h12.667v7.6H0z"/>
            </g>
        </g>
    </g>
</svg>
