<svg xmlns="http://www.w3.org/2000/svg" width="36" height="36" viewBox="0 0 36 36">
    <defs>
        <clipPath id="5uy9z35x2a">
            <path data-name="사각형 16282" style="fill:none" d="M0 0h36v36H0z"/>
        </clipPath>
    </defs>
    <g data-name="그룹 18087" style="clip-path:url(#5uy9z35x2a)">
        <path data-name="패스 74062" d="M14.165 6.5A3.735 3.735 0 0 1 12.1 8.63a5.455 5.455 0 0 1-3.291.365" style="stroke:#f5770b;stroke-linecap:round;stroke-linejoin:round;stroke-width:2px;fill:none"/>
        <path data-name="패스 74063" d="M27.193 8.958a5.466 5.466 0 0 1-3.366-.35 3.759 3.759 0 0 1-2.047-2.071" style="stroke:#f5770b;stroke-linecap:round;stroke-linejoin:round;stroke-width:2px;fill:none"/>
        <circle data-name="타원 501" cx="17" cy="17" r="17" transform="translate(1 1)" style="stroke:#f5770b;stroke-linecap:round;stroke-linejoin:round;stroke-width:2px;fill:none"/>
        <path data-name="패스 74064" d="M11.837 26.321a8.792 8.792 0 0 1 12.326-.108" style="stroke:#f5770b;stroke-linecap:round;stroke-linejoin:round;stroke-width:2px;fill:none"/>
        <path data-name="패스 74065" d="M14.018 14.061a2.2 2.2 0 1 1-2.2-2.2 2.2 2.2 0 0 1 2.2 2.2" style="fill:#f5770b"/>
        <path data-name="패스 74066" d="M26.382 14.061a2.2 2.2 0 1 1-2.2-2.2 2.2 2.2 0 0 1 2.2 2.2" style="fill:#f5770b"/>
    </g>
</svg>
