<svg xmlns="http://www.w3.org/2000/svg" width="64" height="64" viewBox="0 0 64 64">
    <g transform="translate(-402 -60)">
        <rect width="64" height="64" rx="12" transform="translate(402 60)" style="fill:#d41a1a"/>
        <path data-name="패스 64454" d="M39.14 24.362c-2.988-3.1-11.147-1.839-13.1-1.609a34.723 34.723 0 0 1-5.516-7.239 33.433 33.433 0 0 0 1.839-9.538C22.363 3.1 21.214 0 18 0a3.341 3.341 0 0 0-2.758 1.609c-1.379 2.413-.8 7.24 1.379 12.181a82.956 82.956 0 0 1-5.631 13.1C7.654 28.269.644 31.487.07 34.934a3.072 3.072 0 0 0 .919 2.873 4.416 4.416 0 0 0 2.873 1.034c4.251 0 8.388-5.861 11.261-10.8a76.409 76.409 0 0 1 10-2.643c4.481 3.907 8.388 4.482 10.457 4.482 2.757 0 3.792-1.149 4.136-2.184a2.988 2.988 0 0 0-.576-3.334zm-2.873 1.953c-.115.805-1.149 1.609-2.988 1.15a15.761 15.761 0 0 1-5.86-2.988 24.715 24.715 0 0 1 7.239-.115c.92.23 1.842.804 1.609 1.953zM17.077 2.643A1.171 1.171 0 0 1 18 2.069c1.034 0 1.264 1.264 1.264 2.3a25.278 25.278 0 0 1-1.379 7.125c-1.728-4.599-1.385-7.816-.808-8.851zm-.23 22.294A64.359 64.359 0 0 0 19.49 18.5a29.279 29.279 0 0 0 3.677 4.712c0 .115-3.562.8-6.32 1.724m-6.78 4.6c-2.643 4.367-5.4 7.125-6.9 7.125a1.631 1.631 0 0 1-.689-.23.872.872 0 0 1-.345-1.034c.345-1.609 3.333-3.793 7.929-5.861" transform="translate(414 72)" style="fill:#fff"/>
    </g>
</svg>
