<svg xmlns="http://www.w3.org/2000/svg" width="60" height="60" viewBox="0 0 60 60">
    <defs>
        <clipPath id="07ngbywk8a">
            <path data-name="사각형 1234" style="fill:none" d="M0 0h52v50H0z"/>
        </clipPath>
    </defs>
    <g data-name="그룹 18040">
        <g data-name="그룹 18039" style="clip-path:url(#07ngbywk8a)" transform="translate(4 6)">
            <path data-name="패스 64340" d="M15 49V1h20.8v48" style="stroke:#999;stroke-linecap:round;stroke-linejoin:round;stroke-width:2px;fill:none"/>
            <path data-name="패스 64341" d="M28.018 49v-8.961h-5.243V49" style="stroke:#999;stroke-linecap:round;stroke-linejoin:round;stroke-width:2px;fill:none"/>
            <path data-name="패스 64342" d="M15 20.766H1V49" style="stroke:#999;stroke-linecap:round;stroke-linejoin:round;stroke-width:2px;fill:none"/>
        </g>
    </g>
    <path data-name="사각형 1235" transform="translate(23.435 12.419)" style="stroke:#999;stroke-linecap:round;stroke-linejoin:round;stroke-width:2px;fill:none" d="M0 0h4.001v4H0z"/>
    <path data-name="사각형 1236" transform="translate(31.357 12.419)" style="stroke:#999;stroke-linecap:round;stroke-linejoin:round;stroke-width:2px;fill:none" d="M0 0h4.001v4H0z"/>
    <path data-name="사각형 1237" transform="translate(23.435 22.419)" style="stroke:#999;stroke-linecap:round;stroke-linejoin:round;stroke-width:2px;fill:none" d="M0 0h4.001v4H0z"/>
    <path data-name="사각형 1238" transform="translate(31.357 22.419)" style="stroke:#999;stroke-linecap:round;stroke-linejoin:round;stroke-width:2px;fill:none" d="M0 0h4.001v4H0z"/>
    <path data-name="사각형 1239" transform="translate(23.435 32.419)" style="stroke:#999;stroke-linecap:round;stroke-linejoin:round;stroke-width:2px;fill:none" d="M0 0h4.001v4H0z"/>
    <path data-name="사각형 1240" transform="translate(31.357 32.419)" style="stroke:#999;stroke-linecap:round;stroke-linejoin:round;stroke-width:2px;fill:none" d="M0 0h4.001v4H0z"/>
    <g data-name="그룹 18042">
        <g data-name="그룹 18041" style="clip-path:url(#07ngbywk8a)" transform="translate(4 6)">
            <path data-name="패스 64343" d="M35.791 14.21H51V49" style="stroke:#999;stroke-linecap:round;stroke-linejoin:round;stroke-width:2px;fill:none"/>
            <path data-name="선 5" transform="translate(1.032 49)" style="stroke:#999;stroke-linecap:round;stroke-linejoin:round;stroke-width:2px;fill:none" d="M0 0h49.952"/>
        </g>
    </g>
    <path data-name="선 6" transform="translate(9.437 33.419)" style="stroke:#999;stroke-linecap:round;stroke-linejoin:round;stroke-width:2px;fill:none" d="M0 0h5.12"/>
    <path data-name="선 7" transform="translate(9.437 39.419)" style="stroke:#999;stroke-linecap:round;stroke-linejoin:round;stroke-width:2px;fill:none" d="M0 0h5.12"/>
    <path data-name="선 8" transform="translate(9.437 45.419)" style="stroke:#999;stroke-linecap:round;stroke-linejoin:round;stroke-width:2px;fill:none" d="M0 0h5.12"/>
    <path data-name="선 9" transform="translate(44.906 26.248)" style="stroke:#999;stroke-linecap:round;stroke-linejoin:round;stroke-width:2px;fill:none" d="M0 0v19"/>
    <path data-name="선 10" transform="translate(49.908 26.248)" style="stroke:#999;stroke-linecap:round;stroke-linejoin:round;stroke-width:2px;fill:none" d="M0 0v19"/>
</svg>
