<svg xmlns="http://www.w3.org/2000/svg" width="100" height="100" viewBox="0 0 100 100">
    <defs>
        <clipPath id="gxl5g7x2wa">
            <path data-name="사각형 689" style="fill:none" d="M0 0h54v64H0z"/>
        </clipPath>
    </defs>
    <g data-name="그룹 17943" style="clip-path:url(#gxl5g7x2wa)" transform="translate(23 18)">
        <path data-name="패스 26345" d="M51.61 5.573 34.777 6.817a2.263 2.263 0 0 0-2.068 2.266v5.025a2.264 2.264 0 0 0 2.068 2.266l16.833 1.244c.053 0 .106.006.16.006a2.21 2.21 0 0 0 1.519-.609A2.3 2.3 0 0 0 54 15.352V7.839a2.3 2.3 0 0 0-.711-1.664 2.211 2.211 0 0 0-1.679-.6" style="fill:#333"/>
        <path data-name="패스 26346" d="M51.608 15.173 35.1 13.953V9.239l16.505-1.22z" style="fill:#372f8e"/>
        <path data-name="패스 26347" d="M28.215 16.881v-4.066H32.4v-2.439h-4.407a3.781 3.781 0 0 0-3.549-2.56h-5.252a5.168 5.168 0 0 0 .755-2.688 5.031 5.031 0 1 0-10.06 0 5.106 5.106 0 0 0 4.131 5.04 3.9 3.9 0 0 0-.269 1.049 67.49 67.49 0 0 0-7.634.013c-1.14.108-1.817 1.146-2.593 1.937L.352 16.4c-1.09 1.111.6 2.836 1.692 1.724q2.184-2.224 4.369-4.455h7.308v3.215A8.793 8.793 0 0 0 6.834 25.5v33.919A4.543 4.543 0 0 0 11.328 64h19.281a4.542 4.542 0 0 0 4.491-4.581V25.5a8.792 8.792 0 0 0-6.887-8.62m-3.771-6.626a1.4 1.4 0 0 1 1.379 1.411V16.7h-9.71v-5.034a1.4 1.4 0 0 1 1.389-1.411zM12.28 5.128a2.637 2.637 0 1 1 2.637 2.688 2.666 2.666 0 0 1-2.637-2.688m20.43 54.291a2.125 2.125 0 0 1-2.1 2.142H11.328a2.124 2.124 0 0 1-2.1-2.142V25.5a6.337 6.337 0 0 1 5.809-6.347 4.249 4.249 0 0 1 .434-.017h11c.176 0 .307.006.449.019h.042A6.33 6.33 0 0 1 32.71 25.5z" style="fill:#333"/>
        <path data-name="패스 26348" d="m35.1 13.953 16.5 1.22V8.019L35.1 9.238z" style="fill:#fff"/>
        <path data-name="패스 26349" d="M16.113 11.665V16.7h9.71v-5.035a1.4 1.4 0 0 0-1.38-1.411H17.5a1.4 1.4 0 0 0-1.384 1.411" style="fill:#f1686e"/>
        <path data-name="패스 26350" d="M9.226 25.5v33.92a2.124 2.124 0 0 0 2.1 2.141h19.282a2.123 2.123 0 0 0 2.1-2.141V25.5a6.328 6.328 0 0 0-5.752-6.341h-.041a4.374 4.374 0 0 0-.45-.019h-11a4.228 4.228 0 0 0-.433.017A6.337 6.337 0 0 0 9.226 25.5" style="fill:#f1686e"/>
        <path data-name="패스 26351" d="M12.388 27.941a6.284 6.284 0 0 1 6.049-6.036 1.221 1.221 0 0 1 0 2.439 3.847 3.847 0 0 0-3.657 3.566c-.017.419.014.847.021 1.267l.436 26.535a1.2 1.2 0 0 1-2.393 0Q12.8 53.2 12.762 50.7l-.3-18.185c-.025-1.519-.113-3.052-.075-4.571" style="fill:#f1686e"/>
        <path data-name="패스 26352" d="M12.762 50.7q.04 2.51.082 5.016a1.2 1.2 0 0 0 2.393 0l-.436-26.535c-.007-.42-.038-.847-.021-1.267a3.848 3.848 0 0 1 3.657-3.566 1.221 1.221 0 0 0 0-2.439 6.284 6.284 0 0 0-6.049 6.036c-.037 1.519.05 3.053.075 4.572l.3 18.183" style="fill:#333"/>
    </g>
</svg>
