<svg xmlns="http://www.w3.org/2000/svg" width="64" height="64" viewBox="0 0 64 64">
    <defs>
        <clipPath id="a5osayfeta">
            <path data-name="사각형 2944" style="fill:none" d="M0 0h64v64H0z"/>
        </clipPath>
    </defs>
    <g data-name="그룹 18148">
        <g data-name="그룹 18147" style="clip-path:url(#a5osayfeta)">
            <rect data-name="사각형 2943" width="58" height="58" rx="9" transform="translate(3 3)" style="fill:#fff"/>
            <path data-name="패스 64484" d="M52 6a6.007 6.007 0 0 1 6 6v40a6.007 6.007 0 0 1-6 6H12a6.007 6.007 0 0 1-6-6V12a6.007 6.007 0 0 1 6-6zm0-6H12A12 12 0 0 0 0 12v40a12 12 0 0 0 12 12h40a12 12 0 0 0 12-12V12A12 12 0 0 0 52 0" style="fill:#2bba65"/>
            <path data-name="패스 64485" d="M61.3 41.361 55.5 35.3a6 6 0 0 0-8.084-.538L43.238 38.1a6 6 0 0 1-8.122-.578l-8.3-8.836a6 6 0 0 0-8.094-.6L3.311 40.275a6 6 0 0 0-2.278 4.707v5.01a10 10 0 0 0 10 10h41.935a10 10 0 0 0 10-10v-4.484a6 6 0 0 0-1.668-4.147" style="fill:#2bba65"/>
            <path data-name="패스 64486" d="M50.323 18.484a6 6 0 1 1-6-6 6 6 0 0 1 6 6" style="fill:#2bba65"/>
        </g>
    </g>
</svg>
