<svg xmlns="http://www.w3.org/2000/svg" width="60" height="60" viewBox="0 0 60 60">
    <defs>
        <clipPath id="i79vu1hbja">
            <path data-name="사각형 5356" style="fill:none" d="M0 0h46v46H0z"/>
        </clipPath>
    </defs>
    <g data-name="그룹 18521">
        <g data-name="그룹 18520" style="clip-path:url(#i79vu1hbja)" transform="translate(7 7)">
            <path data-name="사각형 5353" transform="translate(1 36.2)" style="stroke:#1c78bf;stroke-linecap:round;stroke-linejoin:round;stroke-width:2px;fill:none" d="M0 0h14.667v8.8H0z"/>
            <path data-name="사각형 5354" transform="translate(15.667 36.2)" style="stroke:#1c78bf;stroke-linecap:round;stroke-linejoin:round;stroke-width:2px;fill:none" d="M0 0h14.667v8.8H0z"/>
            <path data-name="사각형 5355" transform="translate(30.333 36.2)" style="stroke:#1c78bf;stroke-linecap:round;stroke-linejoin:round;stroke-width:2px;fill:none" d="M0 0h14.667v8.8H0z"/>
        </g>
    </g>
    <path data-name="사각형 5357" transform="translate(15.333 34.4)" style="stroke:#1c78bf;stroke-linecap:round;stroke-linejoin:round;stroke-width:2px;fill:none" d="M0 0h14.667v8.8H0z"/>
    <path data-name="사각형 5358" transform="translate(30 34.4)" style="stroke:#1c78bf;stroke-linecap:round;stroke-linejoin:round;stroke-width:2px;fill:none" d="M0 0h14.667v8.8H0z"/>
    <g data-name="그룹 18523">
        <g data-name="그룹 18522" style="clip-path:url(#i79vu1hbja)" transform="translate(7 7)">
            <path data-name="사각형 5359" transform="translate(1 18.6)" style="stroke:#1c78bf;stroke-linecap:round;stroke-linejoin:round;stroke-width:2px;fill:none" d="M0 0h14.667v8.8H0z"/>
        </g>
    </g>
    <path data-name="사각형 5361" transform="translate(22.667 25.6)" style="stroke:#1c78bf;stroke-linecap:round;stroke-linejoin:round;stroke-width:2px;fill:none" d="M0 0h14.667v8.8H0z"/>
    <path data-name="패스 69052" d="M8.333 18.6V9.8H23v8.88z" style="stroke:#1c78bf;stroke-linecap:round;stroke-linejoin:round;stroke-width:2px;fill:none" transform="translate(7 7)"/>
    <g data-name="그룹 18525">
        <g data-name="그룹 18524" style="clip-path:url(#i79vu1hbja)" transform="translate(7 7)">
            <path data-name="사각형 5362" transform="translate(1 9.8)" style="stroke:#1c78bf;stroke-linecap:round;stroke-linejoin:round;stroke-width:2px;fill:none" d="M0 0h7.333v8.8H0z"/>
            <path data-name="사각형 5363" transform="translate(1 1)" style="stroke:#1c78bf;stroke-linecap:round;stroke-linejoin:round;stroke-width:2px;fill:none" d="M0 0h14.667v8.8H0z"/>
            <path data-name="사각형 5364" transform="translate(1 27.4)" style="stroke:#1c78bf;stroke-linecap:round;stroke-linejoin:round;stroke-width:2px;fill:none" d="M0 0h7.333v8.8H0z"/>
            <path data-name="사각형 5365" transform="translate(37.667 27.4)" style="stroke:#1c78bf;stroke-linecap:round;stroke-linejoin:round;stroke-width:2px;fill:none" d="M0 0h7.333v8.8H0z"/>
            <path data-name="사각형 5366" transform="translate(30.333 1)" style="stroke:#1c78bf;stroke-linecap:round;stroke-linejoin:round;stroke-width:2px;fill:none" d="M0 0h14.667v8.8H0z"/>
        </g>
    </g>
</svg>
