<svg xmlns="http://www.w3.org/2000/svg" width="100" height="100" viewBox="0 0 100 100">
    <defs>
        <clipPath id="fz9y1brn9a">
            <path data-name="사각형 693" style="fill:none" d="M0 0h50v60H0z"/>
        </clipPath>
    </defs>
    <path data-name="사각형 691" transform="translate(27.21 22.18)" style="fill:#fff" d="M0 0h41.166v5.267H0z"/>
    <g data-name="그룹 17947">
        <g data-name="그룹 17946" style="clip-path:url(#fz9y1brn9a)" transform="translate(25 20)">
            <path data-name="패스 26358" d="M42.353 42.322a1.409 1.409 0 0 0-.054.248 8.634 8.634 0 0 1-.333 1.154c-.168.593-.34 1.185-.508 1.778l2.25 1.472a1.116 1.116 0 0 1 .507 1.231q-.509 1.816-1.014 3.633l1.146 1.478c.864 1.115-1.056 2.2-1.909 1.1-.735-.947-1.695-1.713-1.424-2.957.225-1.035.548-2.058.85-3.079l-1.038-.68-.354 1.232a1.123 1.123 0 0 1-1.847.481q-1.855-1.7-3.715-3.4L29.424 47.9c-1.348.463-1.922-1.643-.587-2.1l4.837-1.665a5.307 5.307 0 0 1-.491-1.789 9.179 9.179 0 0 1 .7-2.413c.413-1.34 2.546-.765 2.13.58l-.328 1.061c-.075.243-.139.492-.224.73a.166.166 0 0 0-.01.029c.01.041.02.081.031.112l.209.655.293.922 2.849 2.608c.406-1.436.809-2.873 1.24-4.3a3.435 3.435 0 0 1 1.661-2.143L35.4 37.006l-.768.384-1.405.71v-.006l-.585.294-1.642.824a1.342 1.342 0 0 1-.306.107 1.114 1.114 0 0 1-.116.014 1.439 1.439 0 0 1-.172.02h-.023a1.273 1.273 0 0 1-.238-.032c-.034-.007-.069-.008-.1-.017a1.29 1.29 0 0 1-.319-.14 1.275 1.275 0 0 1-.5-.564H29.1v-1.95h-1.058v3.259c0 .037-.012.071-.015.108a1.27 1.27 0 0 1-.409.838c-.028.024-.061.04-.091.062a1.277 1.277 0 0 1-.2.138h-.007l-2.425 1.218V57.82h21V42.275l-1.793-.9a17.9 17.9 0 0 0-1.75.947" style="fill:#fff"/>
            <path data-name="패스 26359" d="m31.694 36.416 1.53-.768V30.34h-4.575v4.13h.984a1.67 1.67 0 0 1 1.679 1.657v.289z" style="fill:#fcfcfc"/>
            <path data-name="사각형 692" transform="translate(28.651 16.302)" style="fill:#f9f9f9" d="M0 0h4.573v6.073H0z"/>
            <path data-name="패스 26360" d="M25.832 39.36v-3.232a1.648 1.648 0 0 1 .04-.354c.009-.038.024-.073.035-.11a1.658 1.658 0 0 1 .077-.218c.019-.041.043-.078.065-.117a1.623 1.623 0 0 1 .111-.176c.028-.037.058-.072.089-.107a1.6 1.6 0 0 1 .142-.143c.017-.016.03-.035.048-.05v-4.626a2.083 2.083 0 0 1 2.1-2.066h4.807a2.083 2.083 0 0 1 2.094 2.066v4.494a1.179 1.179 0 0 1 .188.024c.029.005.058.005.085.011a1.391 1.391 0 0 1 .271.1l3.816 1.915V9.629H5.786v6.122l6.092 3.233a2.031 2.031 0 0 1 1.022 2.305l-.561 2.142h3a2.088 2.088 0 0 1 1.055.289l5.424 3.23a2.022 2.022 0 0 1 .476 3.1l-3.424 3.803-.728 5.4a2.061 2.061 0 0 1-.8 1.357l-4.066 3 .987 3.734a2.017 2.017 0 0 1-.272 1.632 2.075 2.075 0 0 1-1.411.9L5.786 50.9v6.92h16.9V43.963H22.1a1.3 1.3 0 0 1-1.273-1 1.271 1.271 0 0 1 .7-1.442zm.609-23.174a2.079 2.079 0 0 1 2.092-2.063h4.809a2.08 2.08 0 0 1 2.093 2.063v6.306a2.08 2.08 0 0 1-2.093 2.063h-4.809a2.079 2.079 0 0 1-2.092-2.063z" style="fill:#f1686e"/>
            <path data-name="패스 26361" d="M42.011 37.88V9.626h1.572a1.992 1.992 0 0 0 2-1.976V1.976a1.992 1.992 0 0 0-2-1.976H2a1.992 1.992 0 0 0-2 1.976V7.65a1.992 1.992 0 0 0 2 1.976h1.575v6.213a2.024 2.024 0 0 0 1.084 1.789l6.074 3.222-.581 2.219a2 2 0 0 0 .371 1.753 2.064 2.064 0 0 0 1.633.788H15.3l5.23 3.116-3.345 3.715a2.066 2.066 0 0 0-.5 1.08l-.727 5.389-4.09 3.02a2.031 2.031 0 0 0-.76 2.145l.971 3.673-6.753 1.015a2.029 2.029 0 0 0-1.751 2.007v7.11A2.137 2.137 0 0 0 5.725 60h40.534a1.836 1.836 0 0 0 1.841-1.821V43.963h.585a1.3 1.3 0 0 0 1.275-.992 1.271 1.271 0 0 0-.679-1.439zm.491 4.181c-.013 0-.064.051-.115.173.051-.122.1-.176.115-.173M2.21 2.18h41.166v5.267H2.21zM22.1 43.963h.585V57.82H5.786V50.9l6.79-1.021a2.073 2.073 0 0 0 1.411-.9 2.016 2.016 0 0 0 .272-1.632l-.987-3.733 4.066-3a2.055 2.055 0 0 0 .8-1.357l.728-5.4 3.434-3.812a2.021 2.021 0 0 0-.476-3.095L16.4 23.719a2.087 2.087 0 0 0-1.055-.288h-3l.561-2.143a2.033 2.033 0 0 0-1.022-2.305L5.786 15.75V9.628H39.8V36.77l-3.821-1.918a1.368 1.368 0 0 0-.271-.1c-.027-.006-.056-.006-.084-.01a1.208 1.208 0 0 0-.189-.025v-4.491a2.083 2.083 0 0 0-2.094-2.066h-4.807a2.083 2.083 0 0 0-2.1 2.066v4.626c-.018.015-.031.035-.048.05a1.608 1.608 0 0 0-.142.144 1.783 1.783 0 0 0-.089.106 1.794 1.794 0 0 0-.111.176c-.022.04-.046.077-.064.118a1.474 1.474 0 0 0-.078.217c-.011.037-.026.072-.035.11a1.655 1.655 0 0 0-.04.354v3.232l-4.307 2.163a1.274 1.274 0 0 0-.7 1.443 1.3 1.3 0 0 0 1.273 1m7.536-9.493h-.979V30.34h4.575v5.307l-1.531.769h-.381v-.289a1.67 1.67 0 0 0-1.68-1.657M45.9 57.82h-21V42.277l2.425-1.218h.007a1.293 1.293 0 0 0 .2-.137c.029-.023.064-.038.091-.063a1.264 1.264 0 0 0 .408-.838 1 1 0 0 0 .016-.108V36.65H29.1v1.95h.124a1.278 1.278 0 0 0 .494.565 1.343 1.343 0 0 0 .319.139c.034.009.069.01.1.017a1.365 1.365 0 0 0 .237.033h.024a1.245 1.245 0 0 0 .171-.02 1.167 1.167 0 0 0 .117-.014 1.288 1.288 0 0 0 .314-.108l1.642-.824.587-.294v.006l1.405-.71.767-.384 6.334 3.179a3.438 3.438 0 0 0-1.661 2.143c-.43 1.428-.835 2.865-1.24 4.3l-2.849-2.608c-.1-.307-.195-.614-.294-.921l-.209-.656a2.753 2.753 0 0 1-.03-.112l.009-.028c.086-.239.151-.488.226-.73l.328-1.062c.416-1.345-1.717-1.92-2.131-.579a9.08 9.08 0 0 0-.7 2.413 5.317 5.317 0 0 0 .49 1.789L28.836 45.8c-1.334.459-.76 2.566.588 2.1l5.487-1.889 3.714 3.4a1.123 1.123 0 0 0 1.847-.481l.354-1.232 1.038.679c-.3 1.021-.624 2.044-.85 3.079-.272 1.244.69 2.01 1.424 2.957.853 1.1 2.773.015 1.909-1.1L43.2 51.838l1.014-3.633a1.114 1.114 0 0 0-.508-1.231L41.457 45.5l.51-1.778a8.479 8.479 0 0 0 .333-1.152 1.616 1.616 0 0 1 .054-.248 18.135 18.135 0 0 1 1.75-.947l1.793.9z" style="fill:#333"/>
            <path data-name="패스 26362" d="M28.533 24.555h4.809a2.081 2.081 0 0 0 2.093-2.063v-6.306a2.08 2.08 0 0 0-2.093-2.063h-4.809a2.08 2.08 0 0 0-2.092 2.063v6.306a2.081 2.081 0 0 0 2.092 2.063m.118-8.253h4.573v6.073h-4.573z" style="fill:#333"/>
        </g>
    </g>
</svg>
