<svg xmlns="http://www.w3.org/2000/svg" width="60" height="60" viewBox="0 0 60 60">
    <defs>
        <clipPath id="yjfqsgjova">
            <path data-name="사각형 3117" style="fill:none" d="M0 0h52v50H0z"/>
        </clipPath>
    </defs>
    <g data-name="그룹 18075">
        <g data-name="그룹 18074" style="clip-path:url(#yjfqsgjova)" transform="translate(4 6)">
            <path data-name="패스 64602" d="M15 49V1h20.8v48" style="stroke:#1c78bf;stroke-linecap:round;stroke-linejoin:round;stroke-width:2px;fill:none"/>
            <path data-name="패스 64603" d="M28.018 49v-8.961h-5.243V49" style="stroke:#1c78bf;stroke-linecap:round;stroke-linejoin:round;stroke-width:2px;fill:none"/>
            <path data-name="패스 64604" d="M15 20.766H1V49" style="stroke:#1c78bf;stroke-linecap:round;stroke-linejoin:round;stroke-width:2px;fill:none"/>
        </g>
    </g>
    <path data-name="사각형 3118" transform="translate(23.435 12.419)" style="stroke:#1c78bf;stroke-linecap:round;stroke-linejoin:round;stroke-width:2px;fill:none" d="M0 0h4.001v4H0z"/>
    <path data-name="사각형 3119" transform="translate(31.357 12.419)" style="stroke:#1c78bf;stroke-linecap:round;stroke-linejoin:round;stroke-width:2px;fill:none" d="M0 0h4.001v4H0z"/>
    <path data-name="사각형 3120" transform="translate(23.435 22.419)" style="stroke:#1c78bf;stroke-linecap:round;stroke-linejoin:round;stroke-width:2px;fill:none" d="M0 0h4.001v4H0z"/>
    <path data-name="사각형 3121" transform="translate(31.357 22.419)" style="stroke:#1c78bf;stroke-linecap:round;stroke-linejoin:round;stroke-width:2px;fill:none" d="M0 0h4.001v4H0z"/>
    <path data-name="사각형 3122" transform="translate(23.435 32.419)" style="stroke:#1c78bf;stroke-linecap:round;stroke-linejoin:round;stroke-width:2px;fill:none" d="M0 0h4.001v4H0z"/>
    <path data-name="사각형 3123" transform="translate(31.357 32.419)" style="stroke:#1c78bf;stroke-linecap:round;stroke-linejoin:round;stroke-width:2px;fill:none" d="M0 0h4.001v4H0z"/>
    <g data-name="그룹 18077">
        <g data-name="그룹 18076" style="clip-path:url(#yjfqsgjova)" transform="translate(4 6)">
            <path data-name="패스 64605" d="M35.791 14.21H51V49" style="stroke:#1c78bf;stroke-linecap:round;stroke-linejoin:round;stroke-width:2px;fill:none"/>
            <path data-name="선 145" transform="translate(1.032 49)" style="stroke:#1c78bf;stroke-linecap:round;stroke-linejoin:round;stroke-width:2px;fill:none" d="M0 0h49.952"/>
        </g>
    </g>
    <path data-name="선 146" transform="translate(9.437 33.419)" style="stroke:#1c78bf;stroke-linecap:round;stroke-linejoin:round;stroke-width:2px;fill:none" d="M0 0h5.12"/>
    <path data-name="선 147" transform="translate(9.437 39.419)" style="stroke:#1c78bf;stroke-linecap:round;stroke-linejoin:round;stroke-width:2px;fill:none" d="M0 0h5.12"/>
    <path data-name="선 148" transform="translate(9.437 45.419)" style="stroke:#1c78bf;stroke-linecap:round;stroke-linejoin:round;stroke-width:2px;fill:none" d="M0 0h5.12"/>
    <path data-name="선 149" transform="translate(44.906 26.248)" style="stroke:#1c78bf;stroke-linecap:round;stroke-linejoin:round;stroke-width:2px;fill:none" d="M0 0v19"/>
    <path data-name="선 150" transform="translate(49.908 26.248)" style="stroke:#1c78bf;stroke-linecap:round;stroke-linejoin:round;stroke-width:2px;fill:none" d="M0 0v19"/>
</svg>
