<svg xmlns="http://www.w3.org/2000/svg" width="48" height="48" viewBox="0 0 48 48">
    <defs>
        <clipPath id="ef6fqznuya">
            <path data-name="사각형 3118" style="fill:none" d="M0 0h38v45H0z"/>
        </clipPath>
    </defs>
    <g data-name="그룹 18263">
        <g data-name="그룹 18262" style="clip-path:url(#ef6fqznuya)" transform="translate(5 1)">
            <path data-name="패스 68237" d="M27.119 3.031h6.748A3.166 3.166 0 0 1 37 6.229V40.8a3.165 3.165 0 0 1-3.133 3.2H4.132A3.165 3.165 0 0 1 1 40.8V6.229a3.165 3.165 0 0 1 3.132-3.2h6.749" style="stroke-miterlimit:10;stroke:#fff;stroke-width:2px;fill:none"/>
            <path data-name="패스 68238" d="M24.319 5.8H13.681C11.98 5.8 10.6 4.143 10.6 2.1a1.023 1.023 0 0 1 .919-1.1h14.962a1.022 1.022 0 0 1 .919 1.1c0 2.043-1.379 3.7-3.081 3.7z" style="stroke-linecap:round;stroke-miterlimit:10;stroke:#fff;stroke-width:2px;fill:none"/>
            <ellipse data-name="타원 25" cx="5" cy="5.119" rx="5" ry="5.119" transform="translate(21 21.88)" style="stroke-linecap:round;stroke-miterlimit:10;stroke:#fff;stroke-width:2px;fill:none"/>
            <path data-name="패스 68239" d="M28.5 31.764v5.119L26 35.076l-2.5 1.807v-5.119" style="stroke-linejoin:round;stroke-linecap:round;stroke:#fff;stroke-width:2px;fill:none"/>
            <path data-name="선 184" transform="translate(7 12.306)" style="stroke-linecap:round;stroke-miterlimit:10;stroke:#fff;stroke-width:2px;fill:none" d="M0 0h24"/>
            <path data-name="선 185" transform="translate(7 17.125)" style="stroke-linecap:round;stroke-miterlimit:10;stroke:#fff;stroke-width:2px;fill:none" d="M0 0h14.658"/>
            <path data-name="선 186" transform="translate(7 30.412)" style="stroke-linecap:round;stroke-miterlimit:10;stroke:#fff;stroke-width:2px;fill:none" d="M0 0h8"/>
        </g>
    </g>
</svg>
