<svg xmlns="http://www.w3.org/2000/svg" width="64" height="64" viewBox="0 0 64 64">
    <g transform="translate(-174 -60)">
        <rect width="64" height="64" rx="12" transform="translate(174 60)" style="fill:#bd3819"/>
        <path data-name="패스 64457" d="M0 35V0h11.017A38.244 38.244 0 0 1 19.1.543a8.511 8.511 0 0 1 4.945 3.45A10.98 10.98 0 0 1 26 10.8a11.383 11.383 0 0 1-1.665 6.359 9.066 9.066 0 0 1-4.26 3.6c-1.664.69-4.6 1.035-8.764 1.035h-4.5V35zM6.806 5.916v9.958h3.819a19.65 19.65 0 0 0 5.19-.444 4.4 4.4 0 0 0 2.253-1.63 4.765 4.765 0 0 0 .881-2.908 4.819 4.819 0 0 0-.881-2.958 4.839 4.839 0 0 0-2.253-1.624 26.03 26.03 0 0 0-5.63-.394z" transform="translate(193 74)" style="fill:#fff"/>
    </g>
</svg>
