<svg xmlns="http://www.w3.org/2000/svg" width="60" height="60" viewBox="0 0 60 60">
    <defs>
        <clipPath id="4p2ue63y7a">
            <path data-name="사각형 16266" style="fill:none" d="M0 0h52v50H0z"/>
        </clipPath>
    </defs>
    <g data-name="그룹 18078">
        <g data-name="그룹 18077" style="clip-path:url(#4p2ue63y7a)" transform="translate(4 5)">
            <path data-name="패스 74037" d="M15 49V1h20.8v48" style="stroke:#1c78bf;stroke-linecap:round;stroke-linejoin:round;stroke-width:2px;fill:none"/>
            <path data-name="패스 74038" d="M28.018 49v-8.961h-5.243V49" style="stroke:#1c78bf;stroke-linecap:round;stroke-linejoin:round;stroke-width:2px;fill:none"/>
            <path data-name="패스 74039" d="M15 20.766H1V49" style="stroke:#1c78bf;stroke-linecap:round;stroke-linejoin:round;stroke-width:2px;fill:none"/>
        </g>
    </g>
    <path data-name="사각형 16267" transform="translate(23.435 11.419)" style="stroke:#1c78bf;stroke-linecap:round;stroke-linejoin:round;stroke-width:2px;fill:none" d="M0 0h4.001v4H0z"/>
    <path data-name="사각형 16268" transform="translate(31.357 11.419)" style="stroke:#1c78bf;stroke-linecap:round;stroke-linejoin:round;stroke-width:2px;fill:none" d="M0 0h4.001v4H0z"/>
    <path data-name="사각형 16269" transform="translate(23.435 21.419)" style="stroke:#1c78bf;stroke-linecap:round;stroke-linejoin:round;stroke-width:2px;fill:none" d="M0 0h4.001v4H0z"/>
    <path data-name="사각형 16270" transform="translate(31.357 21.419)" style="stroke:#1c78bf;stroke-linecap:round;stroke-linejoin:round;stroke-width:2px;fill:none" d="M0 0h4.001v4H0z"/>
    <path data-name="사각형 16271" transform="translate(23.435 31.419)" style="stroke:#1c78bf;stroke-linecap:round;stroke-linejoin:round;stroke-width:2px;fill:none" d="M0 0h4.001v4H0z"/>
    <path data-name="사각형 16272" transform="translate(31.357 31.419)" style="stroke:#1c78bf;stroke-linecap:round;stroke-linejoin:round;stroke-width:2px;fill:none" d="M0 0h4.001v4H0z"/>
    <g data-name="그룹 18080">
        <g data-name="그룹 18079" style="clip-path:url(#4p2ue63y7a)" transform="translate(4 5)">
            <path data-name="패스 74040" d="M35.791 14.21H51V49" style="stroke:#1c78bf;stroke-linecap:round;stroke-linejoin:round;stroke-width:2px;fill:none"/>
            <path data-name="선 216" transform="translate(1.032 49)" style="stroke:#1c78bf;stroke-linecap:round;stroke-linejoin:round;stroke-width:2px;fill:none" d="M0 0h49.952"/>
        </g>
    </g>
    <path data-name="선 217" transform="translate(9.437 32.419)" style="stroke:#1c78bf;stroke-linecap:round;stroke-linejoin:round;stroke-width:2px;fill:none" d="M0 0h5.12"/>
    <path data-name="선 218" transform="translate(9.437 38.419)" style="stroke:#1c78bf;stroke-linecap:round;stroke-linejoin:round;stroke-width:2px;fill:none" d="M0 0h5.12"/>
    <path data-name="선 219" transform="translate(9.437 44.419)" style="stroke:#1c78bf;stroke-linecap:round;stroke-linejoin:round;stroke-width:2px;fill:none" d="M0 0h5.12"/>
    <path data-name="선 220" transform="translate(44.906 25.248)" style="stroke:#1c78bf;stroke-linecap:round;stroke-linejoin:round;stroke-width:2px;fill:none" d="M0 0v19"/>
    <path data-name="선 221" transform="translate(49.908 25.248)" style="stroke:#1c78bf;stroke-linecap:round;stroke-linejoin:round;stroke-width:2px;fill:none" d="M0 0v19"/>
</svg>
