<svg xmlns="http://www.w3.org/2000/svg" width="52" height="52" viewBox="0 0 52 52">
    <defs>
        <clipPath id="nw55359oea">
            <path data-name="사각형 16277" style="fill:none" d="M0 0h52v52H0z"/>
        </clipPath>
    </defs>
    <g style="clip-path:url(#nw55359oea)">
        <path data-name="패스 74052" d="M48.735 16.593c.392-3.92 0-4.312-3.92-6.076-2.744-1.175-2.548-1.372-3.724-4.117-1.568-3.528-2.352-3.724-6.467-3.135-2.941.392-3.136 0-5.488-1.765-2.936-2.154-3.724-1.958-7.056.394-2.351 1.764-2.548 1.567-5.487 1.372-3.92-.393-4.312 0-6.076 3.919C9.342 9.93 9.146 9.733 6.4 10.909c-3.528 1.568-3.723 2.352-3.135 6.467.391 2.94 0 3.136-1.764 5.488-2.156 2.94-1.96 3.724.392 7.056 1.763 2.352 1.568 2.548 1.372 5.488-.393 3.92 0 4.311 3.919 6.075 2.744 1.176 2.548 1.371 3.724 4.116 1.568 3.527 2.352 3.724 6.468 3.136 2.94-.393 3.136 0 5.488 1.763 2.939 2.156 3.723 1.96 7.054-.391 2.353-1.765 2.549-1.569 5.488-1.372 3.92.391 4.312 0 6.076-3.92 1.176-2.744 1.372-2.549 4.116-3.724 3.528-1.568 3.724-2.352 3.136-6.467-.392-2.94 0-3.136 1.764-5.488 2.155-2.94 1.96-3.724-.392-7.055-1.764-2.353-1.568-2.549-1.372-5.488" style="fill-rule:evenodd;fill:#14ad46"/>
        <path data-name="패스 74053" d="M26 10a16 16 0 1 0 16 16 16 16 0 0 0-16-16" style="fill:#3aca68;fill-rule:evenodd"/>
    </g>
    <text transform="translate(26 30)" style="fill:#fff;font-size:12px;font-family:Pretendard-Medium,Pretendard;font-weight:500;letter-spacing:-.025em"><tspan x="-15.257" y="0">최우수</tspan></text>
</svg>
