<svg xmlns="http://www.w3.org/2000/svg" width="48" height="48" viewBox="0 0 48 48">
    <defs>
        <clipPath id="ja16wqpmma">
            <path data-name="사각형 2861" style="fill:none" d="M0 0h46v44H0z"/>
        </clipPath>
    </defs>
    <g data-name="그룹 18163">
        <g data-name="그룹 18160">
            <g data-name="그룹 18159" style="clip-path:url(#ja16wqpmma)" transform="translate(1 2)">
                <path data-name="패스 65275" d="M13.316 43V1h18.306v42" style="stroke:#1c78bf;stroke-linecap:round;stroke-linejoin:round;stroke-width:2px;fill:none"/>
                <path data-name="패스 65276" d="M24.775 43v-7.841h-4.614V43" style="stroke:#1c78bf;stroke-linecap:round;stroke-linejoin:round;stroke-width:2px;fill:none"/>
                <path data-name="패스 65277" d="M13.316 18.3H1V43" style="stroke:#1c78bf;stroke-linecap:round;stroke-linejoin:round;stroke-width:2px;fill:none"/>
            </g>
        </g>
        <path data-name="사각형 2862" transform="translate(18.223 7.742)" style="stroke:#1c78bf;stroke-linecap:round;stroke-linejoin:round;stroke-width:2px;fill:none" d="M0 0h3.521v3.5H0z"/>
        <path data-name="사각형 2863" transform="translate(25.194 7.742)" style="stroke:#1c78bf;stroke-linecap:round;stroke-linejoin:round;stroke-width:2px;fill:none" d="M0 0h3.521v3.5H0z"/>
        <path data-name="사각형 2864" transform="translate(18.223 16.492)" style="stroke:#1c78bf;stroke-linecap:round;stroke-linejoin:round;stroke-width:2px;fill:none" d="M0 0h3.521v3.5H0z"/>
        <path data-name="사각형 2865" transform="translate(25.194 16.492)" style="stroke:#1c78bf;stroke-linecap:round;stroke-linejoin:round;stroke-width:2px;fill:none" d="M0 0h3.521v3.5H0z"/>
        <path data-name="사각형 2866" transform="translate(18.223 25.242)" style="stroke:#1c78bf;stroke-linecap:round;stroke-linejoin:round;stroke-width:2px;fill:none" d="M0 0h3.521v3.5H0z"/>
        <path data-name="사각형 2867" transform="translate(25.194 25.242)" style="stroke:#1c78bf;stroke-linecap:round;stroke-linejoin:round;stroke-width:2px;fill:none" d="M0 0h3.521v3.5H0z"/>
        <g data-name="그룹 18162">
            <g data-name="그룹 18161" style="clip-path:url(#ja16wqpmma)" transform="translate(1 2)">
                <path data-name="패스 65278" d="M31.616 12.559H45V43" style="stroke:#1c78bf;stroke-linecap:round;stroke-linejoin:round;stroke-width:2px;fill:none"/>
                <path data-name="선 140" transform="translate(1.028 43)" style="stroke:#1c78bf;stroke-linecap:round;stroke-linejoin:round;stroke-width:2px;fill:none" d="M0 0h43.958"/>
            </g>
        </g>
        <path data-name="선 141" transform="translate(5.905 26.117)" style="stroke:#1c78bf;stroke-linecap:round;stroke-linejoin:round;stroke-width:2px;fill:none" d="M0 0h4.506"/>
        <path data-name="선 142" transform="translate(5.905 31.367)" style="stroke:#1c78bf;stroke-linecap:round;stroke-linejoin:round;stroke-width:2px;fill:none" d="M0 0h4.506"/>
        <path data-name="선 143" transform="translate(5.905 36.617)" style="stroke:#1c78bf;stroke-linecap:round;stroke-linejoin:round;stroke-width:2px;fill:none" d="M0 0h4.506"/>
        <path data-name="선 144" transform="translate(37.117 19.842)" style="stroke:#1c78bf;stroke-linecap:round;stroke-linejoin:round;stroke-width:2px;fill:none" d="M0 0v16.625"/>
        <path data-name="선 145" transform="translate(41.519 19.842)" style="stroke:#1c78bf;stroke-linecap:round;stroke-linejoin:round;stroke-width:2px;fill:none" d="M0 0v16.625"/>
    </g>
</svg>
