<svg xmlns="http://www.w3.org/2000/svg" width="48" height="48" viewBox="0 0 48 48">
    <defs>
        <clipPath id="tahrgdc5za">
            <path data-name="사각형 2873" style="fill:none" d="M0 0h40v40H0z"/>
        </clipPath>
    </defs>
    <g data-name="그룹 18172">
        <g data-name="그룹 18167">
            <g data-name="그룹 18166" style="clip-path:url(#tahrgdc5za)" transform="translate(4 4)">
                <path data-name="사각형 2870" transform="translate(1 31.4)" style="stroke:#1c78bf;stroke-linecap:round;stroke-linejoin:round;stroke-width:2px;fill:none" d="M0 0h12.667v7.6H0z"/>
                <path data-name="사각형 2871" transform="translate(13.667 31.4)" style="stroke:#1c78bf;stroke-linecap:round;stroke-linejoin:round;stroke-width:2px;fill:none" d="M0 0h12.667v7.6H0z"/>
                <path data-name="사각형 2872" transform="translate(26.333 31.4)" style="stroke:#1c78bf;stroke-linecap:round;stroke-linejoin:round;stroke-width:2px;fill:none" d="M0 0h12.667v7.6H0z"/>
            </g>
        </g>
        <path data-name="사각형 2874" transform="translate(11.333 27.8)" style="stroke:#1c78bf;stroke-linecap:round;stroke-linejoin:round;stroke-width:2px;fill:none" d="M0 0h12.667v7.6H0z"/>
        <path data-name="사각형 2875" transform="translate(24 27.8)" style="stroke:#1c78bf;stroke-linecap:round;stroke-linejoin:round;stroke-width:2px;fill:none" d="M0 0h12.667v7.6H0z"/>
        <g data-name="그룹 18169">
            <g data-name="그룹 18168" style="clip-path:url(#tahrgdc5za)" transform="translate(4 4)">
                <path data-name="사각형 2876" transform="translate(1 16.2)" style="stroke:#1c78bf;stroke-linecap:round;stroke-linejoin:round;stroke-width:2px;fill:none" d="M0 0h12.667v7.6H0z"/>
            </g>
        </g>
        <path data-name="사각형 2878" transform="translate(17.667 20.2)" style="stroke:#1c78bf;stroke-linecap:round;stroke-linejoin:round;stroke-width:2px;fill:none" d="M0 0h12.667v7.6H0z"/>
        <path data-name="패스 65283" d="M7.333 16.2V8.6H20v7.669z" style="stroke:#1c78bf;stroke-linecap:round;stroke-linejoin:round;stroke-width:2px;fill:none" transform="translate(4 4)"/>
        <g data-name="그룹 18171">
            <g data-name="그룹 18170" style="clip-path:url(#tahrgdc5za)" transform="translate(4 4)">
                <path data-name="사각형 2879" transform="translate(1 8.6)" style="stroke:#1c78bf;stroke-linecap:round;stroke-linejoin:round;stroke-width:2px;fill:none" d="M0 0h6.333v7.6H0z"/>
                <path data-name="사각형 2880" transform="translate(1 1)" style="stroke:#1c78bf;stroke-linecap:round;stroke-linejoin:round;stroke-width:2px;fill:none" d="M0 0h12.667v7.6H0z"/>
                <path data-name="사각형 2881" transform="translate(1 23.8)" style="stroke:#1c78bf;stroke-linecap:round;stroke-linejoin:round;stroke-width:2px;fill:none" d="M0 0h6.333v7.6H0z"/>
                <path data-name="사각형 2882" transform="translate(32.667 23.8)" style="stroke:#1c78bf;stroke-linecap:round;stroke-linejoin:round;stroke-width:2px;fill:none" d="M0 0h6.333v7.6H0z"/>
                <path data-name="사각형 2883" transform="translate(26.333 1)" style="stroke:#1c78bf;stroke-linecap:round;stroke-linejoin:round;stroke-width:2px;fill:none" d="M0 0h12.667v7.6H0z"/>
            </g>
        </g>
    </g>
</svg>
