<svg xmlns="http://www.w3.org/2000/svg" width="48" height="48" viewBox="0 0 48 48">
    <defs>
        <clipPath id="nynsty3qia">
            <path data-name="사각형 3119" style="fill:none" d="M0 0h38v45H0z"/>
        </clipPath>
    </defs>
    <g data-name="그룹 18265">
        <g data-name="그룹 18264" style="clip-path:url(#nynsty3qia)" transform="translate(5 1)">
            <path data-name="패스 68240" d="M27.119 3.031h6.748A3.166 3.166 0 0 1 37 6.229V40.8a3.165 3.165 0 0 1-3.133 3.2H4.132A3.165 3.165 0 0 1 1 40.8V6.229a3.165 3.165 0 0 1 3.132-3.2h6.749" style="stroke-miterlimit:10;stroke:#fff;stroke-width:2px;fill:none"/>
            <path data-name="패스 68241" d="M24.319 5.8H13.681C11.98 5.8 10.6 4.143 10.6 2.1a1.023 1.023 0 0 1 .919-1.1h14.962a1.022 1.022 0 0 1 .919 1.1c0 2.043-1.379 3.7-3.081 3.7z" style="stroke-linecap:round;stroke-miterlimit:10;stroke:#fff;stroke-width:2px;fill:none"/>
            <path data-name="선 187" transform="translate(18.431 14.494)" style="stroke-linecap:round;stroke-miterlimit:10;stroke:#fff;stroke-width:2px;fill:none" d="M0 0h12.6"/>
            <path data-name="선 188" transform="translate(18.431 18.6)" style="stroke-linecap:round;stroke-miterlimit:10;stroke:#fff;stroke-width:2px;fill:none" d="M0 0h7.695"/>
            <path data-name="패스 68242" d="m14.05 14.368-4.384 4.314-2.816-2.771" style="stroke-linejoin:round;stroke-linecap:round;stroke:#fff;stroke-width:2px;fill:none"/>
            <path data-name="선 189" transform="translate(18.431 27.907)" style="stroke-linecap:round;stroke-miterlimit:10;stroke:#fff;stroke-width:2px;fill:none" d="M0 0h12.6"/>
            <path data-name="선 190" transform="translate(18.431 32.013)" style="stroke-linecap:round;stroke-miterlimit:10;stroke:#fff;stroke-width:2px;fill:none" d="M0 0h7.695"/>
            <path data-name="패스 68243" d="m14.05 27.781-4.384 4.314-2.816-2.771" style="stroke-linejoin:round;stroke-linecap:round;stroke:#fff;stroke-width:2px;fill:none"/>
        </g>
    </g>
</svg>
