<svg xmlns="http://www.w3.org/2000/svg" width="48" height="48" viewBox="0 0 48 48">
    <defs>
        <clipPath id="6dq5i7wt3a">
            <path data-name="사각형 3091" style="fill:none" d="M0 0h46v44H0z"/>
        </clipPath>
    </defs>
    <g data-name="그룹 18248">
        <g data-name="그룹 18245">
            <g data-name="그룹 18244" style="clip-path:url(#6dq5i7wt3a)" transform="translate(1 2)">
                <path data-name="패스 68216" d="M13.316 43V1h18.306v42" style="stroke:#fff;stroke-linecap:round;stroke-linejoin:round;stroke-width:2px;fill:none"/>
                <path data-name="패스 68217" d="M24.775 43v-7.841h-4.614V43" style="stroke:#fff;stroke-linecap:round;stroke-linejoin:round;stroke-width:2px;fill:none"/>
                <path data-name="패스 68218" d="M13.316 18.3H1V43" style="stroke:#fff;stroke-linecap:round;stroke-linejoin:round;stroke-width:2px;fill:none"/>
            </g>
        </g>
        <path data-name="사각형 3092" transform="translate(18.223 7.742)" style="stroke:#fff;stroke-linecap:round;stroke-linejoin:round;stroke-width:2px;fill:none" d="M0 0h3.521v3.5H0z"/>
        <path data-name="사각형 3093" transform="translate(25.194 7.742)" style="stroke:#fff;stroke-linecap:round;stroke-linejoin:round;stroke-width:2px;fill:none" d="M0 0h3.521v3.5H0z"/>
        <path data-name="사각형 3094" transform="translate(18.223 16.492)" style="stroke:#fff;stroke-linecap:round;stroke-linejoin:round;stroke-width:2px;fill:none" d="M0 0h3.521v3.5H0z"/>
        <path data-name="사각형 3095" transform="translate(25.194 16.492)" style="stroke:#fff;stroke-linecap:round;stroke-linejoin:round;stroke-width:2px;fill:none" d="M0 0h3.521v3.5H0z"/>
        <path data-name="사각형 3096" transform="translate(18.223 25.242)" style="stroke:#fff;stroke-linecap:round;stroke-linejoin:round;stroke-width:2px;fill:none" d="M0 0h3.521v3.5H0z"/>
        <path data-name="사각형 3097" transform="translate(25.194 25.242)" style="stroke:#fff;stroke-linecap:round;stroke-linejoin:round;stroke-width:2px;fill:none" d="M0 0h3.521v3.5H0z"/>
        <g data-name="그룹 18247">
            <g data-name="그룹 18246" style="clip-path:url(#6dq5i7wt3a)" transform="translate(1 2)">
                <path data-name="패스 68219" d="M31.616 12.559H45V43" style="stroke:#fff;stroke-linecap:round;stroke-linejoin:round;stroke-width:2px;fill:none"/>
                <path data-name="선 167" transform="translate(1.028 43)" style="stroke:#fff;stroke-linecap:round;stroke-linejoin:round;stroke-width:2px;fill:none" d="M0 0h43.958"/>
            </g>
        </g>
        <path data-name="선 168" transform="translate(5.905 26.117)" style="stroke:#fff;stroke-linecap:round;stroke-linejoin:round;stroke-width:2px;fill:none" d="M0 0h4.506"/>
        <path data-name="선 169" transform="translate(5.905 31.367)" style="stroke:#fff;stroke-linecap:round;stroke-linejoin:round;stroke-width:2px;fill:none" d="M0 0h4.506"/>
        <path data-name="선 170" transform="translate(5.905 36.617)" style="stroke:#fff;stroke-linecap:round;stroke-linejoin:round;stroke-width:2px;fill:none" d="M0 0h4.506"/>
        <path data-name="선 171" transform="translate(37.117 19.842)" style="stroke:#fff;stroke-linecap:round;stroke-linejoin:round;stroke-width:2px;fill:none" d="M0 0v16.625"/>
        <path data-name="선 172" transform="translate(41.519 19.842)" style="stroke:#fff;stroke-linecap:round;stroke-linejoin:round;stroke-width:2px;fill:none" d="M0 0v16.625"/>
    </g>
</svg>
