<svg xmlns="http://www.w3.org/2000/svg" width="100" height="100" viewBox="0 0 100 100">
    <defs>
        <clipPath id="b612ym0ama">
            <path data-name="사각형 10" style="fill:none" d="M0 0h46v58H0z"/>
        </clipPath>
    </defs>
    <g transform="translate(-112 -137)">
        <circle cx="50" cy="50" r="50" transform="translate(112 137)" style="fill:#f2f2f2"/>
        <g data-name="그룹 10" style="clip-path:url(#b612ym0ama)" transform="translate(139 157)">
            <path data-name="패스 11" d="M23 1a.707.707 0 0 0-.461.174C19.625 3.669 11.76 9.566 1.707 10.446a.8.8 0 0 0-.707.826c0 17.236.067 36 21.721 45.668a.68.68 0 0 0 .557 0C44.932 47.274 45 28.508 45 11.271a.8.8 0 0 0-.707-.825c-10.054-.88-17.918-6.777-20.832-9.272A.707.707 0 0 0 23 1z" style="stroke:#333;stroke-linecap:round;stroke-linejoin:round;stroke-width:2px;fill:none"/>
            <circle data-name="타원 7" cx="11" cy="11" r="11" transform="translate(12 20.321)" style="stroke:#333;stroke-linecap:round;stroke-linejoin:round;stroke-width:2px;fill:none"/>
            <path data-name="패스 12" d="M25 28.78a2 2 0 1 1-2-2 2 2 0 0 1 2 2" style="fill:#333"/>
            <path data-name="선 6" transform="translate(23 29.775)" style="stroke:#333;stroke-linecap:round;stroke-linejoin:round;stroke-width:2px;fill:none" d="M0 0v4.405"/>
            <path data-name="패스 13" d="M17 21.628v-1.689a6 6 0 1 1 12 0v1.689" style="stroke:#333;stroke-linecap:round;stroke-linejoin:round;stroke-width:2px;fill:none"/>
        </g>
    </g>
</svg>
