<svg xmlns="http://www.w3.org/2000/svg" width="260" height="260" viewBox="0 0 260 260">
    <defs>
        <clipPath id="kup8wvfqza">
            <path d="M0 0h260v236a24 24 0 0 1-24 24H0V0z" transform="translate(430 1004)" style="fill:#fff"/>
        </clipPath>
        <clipPath id="s72twdf8hb">
            <path data-name="사각형 1229" style="fill:none" d="M0 0h298v298H0z"/>
        </clipPath>
    </defs>
    <g style="clip-path:url(#kup8wvfqza)">
        <g style="opacity:.1" transform="translate(-430 -1004)">
            <g data-name="그룹 18039" style="clip-path:url(#s72twdf8hb)" transform="translate(484 1040)">
                <rect data-name="사각형 1227" width="146" height="146" rx="10.022" transform="translate(3 149)" style="stroke:#fff;stroke-linejoin:round;stroke-width:6px;fill:none"/>
                <path data-name="사각형 1228" d="M10.059 0h125.883A10.058 10.058 0 0 1 146 10.058v125.883A10.059 10.059 0 0 1 135.941 146H10.059A10.059 10.059 0 0 1 0 135.941V10.059A10.059 10.059 0 0 1 10.059 0z" transform="translate(149 149)" style="stroke:#fff;stroke-linejoin:round;stroke-width:6px;fill:none"/>
                <path data-name="패스 64362" d="M212.016 149H86.087A10.087 10.087 0 0 1 76 138.913V12.993A9.993 9.993 0 0 1 85.994 3h125.922A10.084 10.084 0 0 1 222 13.084v125.932a9.984 9.984 0 0 1-9.984 9.984z" style="stroke:#fff;stroke-linejoin:round;stroke-width:6px;fill:none"/>
                <path data-name="패스 64363" d="M175.639 106.532H164.31l-5.7-16.765h-19.8l-5.774 16.765h-10.674l21.827-61.065h9.374zM141.83 80.7h13.77l-3.992-12.45q-1.061-3.048-1.675-5.121c-.41-1.384-.826-2.81-1.259-4.277-.22.849-.422 1.61-.612 2.287s-.392 1.367-.606 2.073-.458 1.456-.7 2.246-.553 1.723-.933 2.792z" style="fill:#fff"/>
                <path data-name="패스 64364" d="M54.008 191.467H76.82q18.481 0 18.482 14.9v1.784a17.228 17.228 0 0 1-.446 3.933 11.051 11.051 0 0 1-1.545 3.564 10.78 10.78 0 0 1-2.9 2.875 13.819 13.819 0 0 1-4.4 1.9 15.166 15.166 0 0 1 8.674 4.194q3.3 3.35 3.3 9.7v2.126q0 7.54-4.563 11.811t-14.091 4.277H54.008zm10.348 8.978v15.921h7.652c2.008 0 3.814-.059 5.418-.166a11.4 11.4 0 0 0 3.992-.928 5.451 5.451 0 0 0 2.448-2.34 9.379 9.379 0 0 0 .849-4.444v-1.521q0-3.9-2.893-5.2-2.887-1.32-9.487-1.318zm0 43.1H73.8a52.129 52.129 0 0 0 5.988-.3 11.7 11.7 0 0 0 4.23-1.177 5.687 5.687 0 0 0 2.482-2.498 9.557 9.557 0 0 0 .819-4.313v-1.865a8.994 8.994 0 0 0-.772-3.945 5.9 5.9 0 0 0-2.567-2.53 13.428 13.428 0 0 0-4.681-1.355 53.8 53.8 0 0 0-7.045-.38h-7.9z" style="fill:#fff"/>
                <path data-name="패스 64365" d="M223.461 190.538a36.079 36.079 0 0 1 10.967 1.521 27.756 27.756 0 0 1 9.238 5.252l-5.626 8.3a18.5 18.5 0 0 0-7.081-4.1 27.98 27.98 0 0 0-7.5-.975 16.843 16.843 0 0 0-5.126.8 10.442 10.442 0 0 0-4.486 2.923 15.912 15.912 0 0 0-3.172 5.763 29.611 29.611 0 0 0-1.224 9.315v6.263a25.9 25.9 0 0 0 1.141 8.216 15.388 15.388 0 0 0 3.059 5.5 11.469 11.469 0 0 0 4.438 3.1 14.577 14.577 0 0 0 5.287.974 28.412 28.412 0 0 0 8.353-1.313 17.873 17.873 0 0 0 7.782-5.044l5.537 8.305a22.668 22.668 0 0 1-5.5 4.278 32.545 32.545 0 0 1-5.739 2.454 27.016 27.016 0 0 1-5.62 1.14 56.414 56.414 0 0 1-5.216.256 29.065 29.065 0 0 1-9.161-1.438 20.17 20.17 0 0 1-7.651-4.574 22.318 22.318 0 0 1-5.263-7.961 31.2 31.2 0 0 1-1.95-11.692v-10.928a32.86 32.86 0 0 1 1.914-11.81 22.676 22.676 0 0 1 5.257-8.216 20.514 20.514 0 0 1 7.777-4.788 29.232 29.232 0 0 1 9.564-1.521" style="fill:#fff"/>
            </g>
        </g>
    </g>
</svg>
