<svg xmlns="http://www.w3.org/2000/svg" width="200" height="200" viewBox="0 0 200 200">
    <path data-name="패스 68422" d="M73.937 16.4C60 29.625 42.274 37.247 22.423 38.913A9.066 9.066 0 0 0 14 47.89v28.215c0 62.519 48.06 83.808 62.157 88.708a11.686 11.686 0 0 0 7.684 0c14.1-4.9 62.158-26.188 62.158-88.708V47.89a9.067 9.067 0 0 0-8.423-8.977C117.725 37.247 100 29.625 86.062 16.4a8.851 8.851 0 0 0-12.125 0z" transform="translate(20.5 10.5)" style="fill:none;stroke:#a9ed9f;stroke-linecap:round;stroke-linejoin:round;stroke-width:26px"/>
</svg>
