<svg xmlns="http://www.w3.org/2000/svg" width="144" height="72" viewBox="0 0 144 72">
    <defs>
        <clipPath id="xdxfgi02ua">
            <path transform="translate(586 1241)" style="fill:#fff" d="M0 0h144v72H0z"/>
        </clipPath>
        <clipPath id="71q8lsos7c">
            <path data-name="사각형 3224" style="fill:none" d="M0 0h42v33H0z"/>
        </clipPath>
        <filter id="9c06mp77ib" x="4" y="4" width="142" height="142" filterUnits="userSpaceOnUse">
            <feOffset dx="3" dy="3"/>
            <feGaussianBlur stdDeviation="3" result="blur"/>
            <feFlood flood-opacity=".149"/>
            <feComposite operator="in" in2="blur"/>
            <feComposite in="SourceGraphic"/>
        </filter>
    </defs>
    <g transform="translate(-522 -1233)" style="clip-path:url(#xdxfgi02ua)">
        <circle cx="72" cy="72" r="72" transform="translate(522 1233)" style="fill:#eeebe8"/>
        <g style="filter:url(#9c06mp77ib)">
            <circle data-name="bg_circle_top" cx="62" cy="62" r="62" transform="translate(532 1243)" style="fill:#8d7969"/>
        </g>
        <g data-name="icon">
            <g data-name="그룹 18144" style="clip-path:url(#71q8lsos7c)" transform="translate(574 1262)">
                <path data-name="패스 64941" d="M38.913 26.051a1.971 1.971 0 0 0-1.737 1.989v3.932a.029.029 0 0 0 .029.028h3.766a.029.029 0 0 0 .029-.028v-4.067a1.9 1.9 0 0 0-2.087-1.854z" style="stroke:#fff;stroke-linecap:round;stroke-linejoin:round;stroke-width:2px;fill:none"/>
                <path data-name="패스 64942" d="M39.056 25.392v-14.43a1.079 1.079 0 0 0-.08-.387.9.9 0 0 0-.049-.1 1.1 1.1 0 0 0-.166-.24c-.024-.026-.043-.053-.068-.077a1.152 1.152 0 0 0-.308-.208" style="stroke:#fff;stroke-linecap:round;stroke-linejoin:round;stroke-width:2px;fill:none"/>
                <path data-name="패스 64943" d="M6.227 13.747v12.692a1.326 1.326 0 0 0 .649 1.142 24.92 24.92 0 0 0 6.248 2.619c.283.076.567.143.851.209.144.034.286.069.43.1.27.058.542.106.813.155.16.028.318.059.478.084.256.041.512.072.767.1.178.024.354.048.532.066.24.027.48.042.721.06.193.016.386.033.58.042.225.012.45.016.675.022.21 0 .419.012.628.012s.419-.007.628-.012c.225-.006.451-.01.676-.022.194-.009.387-.026.58-.042.24-.018.481-.033.721-.06.177-.018.354-.042.531-.066.256-.032.512-.063.767-.1.16-.025.319-.056.479-.084.271-.049.542-.1.813-.155.143-.029.286-.064.429-.1.284-.066.568-.133.851-.209a24.927 24.927 0 0 0 6.249-2.617 1.329 1.329 0 0 0 .649-1.142v-12.7" style="stroke:#fff;stroke-linecap:round;stroke-linejoin:round;stroke-width:2px;fill:none"/>
                <path data-name="패스 64944" d="M37.565 11.289 20.085 19.5a1.14 1.14 0 0 1-.972 0l-17.48-8.211a1.079 1.079 0 0 1 0-1.966l17.48-8.215a1.145 1.145 0 0 1 .971 0l17.481 8.215a1.08 1.08 0 0 1 0 1.966z" style="stroke:#fff;stroke-linecap:round;stroke-linejoin:round;stroke-width:2px;fill:none"/>
            </g>
        </g>
    </g>
</svg>
