<svg xmlns="http://www.w3.org/2000/svg" width="140" height="70" viewBox="0 0 140 70">
    <defs>
        <clipPath id="hhxyrlir6a">
            <path data-name="사각형 1233" style="fill:none" d="M0 0h120v50H0z"/>
        </clipPath>
    </defs>
    <path data-name="패스 64337" d="M27.981 9.932h-7.8L6 25l14.26 15.105h7.8L13.814 25z" style="fill:#0080cb" transform="translate(10 10)"/>
    <g data-name="그룹 18039">
        <g data-name="그룹 18038" style="clip-path:url(#hhxyrlir6a)" transform="translate(10 10)">
            <path data-name="패스 64338" d="M42.107 40.555c-9.254 0-15.23-6.1-15.23-15.546s5.976-15.542 15.23-15.542 15.229 6.1 15.229 15.542-5.977 15.546-15.229 15.546m0-25.617c-5.559 0-9.148 3.954-9.148 10.071s3.589 10.073 9.148 10.073 9.145-3.955 9.145-10.073-3.59-10.071-9.145-10.071" style="fill:#0080cb"/>
            <path data-name="패스 64339" d="M63.938 40.1a2.077 2.077 0 0 1-2.076-2.074V9.932h3.922a2.077 2.077 0 0 1 2.076 2.074V40.1z" style="fill:#0080cb"/>
            <path data-name="패스 64340" d="M2.075 40.1A2.075 2.075 0 0 1 0 38.031V9.932h3.921A2.076 2.076 0 0 1 6 12.006V40.1z" style="fill:#0080cb"/>
            <path data-name="패스 64341" d="M75.271 40.1a2.076 2.076 0 0 1-2.076-2.074V9.932H93.49v3.576a1.9 1.9 0 0 1-1.9 1.9h-12.4v6.489h12v3.53a1.92 1.92 0 0 1-1.922 1.9H79.193v7.312h14.834v3.575a1.9 1.9 0 0 1-1.9 1.9z" style="fill:#0080cb"/>
            <path data-name="패스 64342" d="M31.238 0a3.055 3.055 0 0 0-2.589.93c-.828.877-3.9 4.164-3.9 4.164H120v-3.26A1.78 1.78 0 0 0 118.026 0z" style="fill:#0080cb"/>
            <path data-name="패스 64343" d="M31.305 50a3.025 3.025 0 0 1-2.573-.931l-3.939-4.163H120v3.26A1.78 1.78 0 0 1 118.027 50z" style="fill:#0080cb"/>
            <path data-name="패스 64344" d="M111.808 23.135 106.21 21c-2.026-.813-3.056-1.521-3.056-3.143 0-2.67 3-3.355 4.932-3.232A7.641 7.641 0 0 1 112.5 16.3a1.977 1.977 0 0 0 2.635.363l2.95-1.486c-1.445-3-5.051-5.708-10.171-5.708-6.914 0-10.688 4.033-10.74 8.817-.046 4.179 2.932 6.468 5.494 7.5L108.577 28c1.732.693 3.535 1.656 3.515 3.917-.024 2.518-2.784 3.447-5.145 3.389A7.243 7.243 0 0 1 100.826 32s-1.993.595-3.362.989a1.526 1.526 0 0 0-.939 2.563c1.4 2.064 4.45 5.006 10.449 5.006 6.325 0 11.407-3.431 11.407-9.177 0-3.813-2.3-6.518-6.573-8.243" style="fill:#0080cb"/>
        </g>
    </g>
</svg>
