<svg xmlns="http://www.w3.org/2000/svg" xmlns:xlink="http://www.w3.org/1999/xlink" width="180" height="180" viewBox="0 0 180 180">
  <defs>
    <clipPath id="clip-path">
      <rect id="사각형_5443" data-name="사각형 5443" width="175.5" height="157.482" fill="none"/>
    </clipPath>
  </defs>
  <g id="img_info_certifi_state_left" transform="translate(2 13.019)">
    <rect id="area" width="180" height="180" transform="translate(-2 -13.019)" fill="#fff" opacity="0"/>
    <g id="illust" transform="translate(0 -2.019)">
      <g id="그룹_18546" data-name="그룹 18546" clip-path="url(#clip-path)">
        <path id="패스_69874" data-name="패스 69874" d="M10.538,106.277H45.884a.2.2,0,0,1,.2.164l9.826,50.541" fill="none" stroke="#555" stroke-linecap="round" stroke-linejoin="round" stroke-width="1"/>
        <line id="선_651" data-name="선 651" x2="9.826" y2="50.541" transform="translate(10.72 106.441)" fill="none" stroke="#555" stroke-linecap="round" stroke-linejoin="round" stroke-width="1"/>
        <line id="선_652" data-name="선 652" y1="50.541" x2="9.826" transform="translate(0.5 106.441)" fill="none" stroke="#555" stroke-linecap="round" stroke-linejoin="round" stroke-width="1"/>
        <line id="선_653" data-name="선 653" y1="50.541" x2="9.826" transform="translate(35.847 106.441)" fill="none" stroke="#555" stroke-linecap="round" stroke-linejoin="round" stroke-width="1"/>
        <rect id="사각형_5436" data-name="사각형 5436" width="39.099" height="2.071" transform="translate(8.422 104.409)" fill="#fff"/>
        <rect id="사각형_5437" data-name="사각형 5437" width="39.505" height="2.477" rx="0.203" transform="translate(8.219 104.206)" fill="none" stroke="#555" stroke-linecap="round" stroke-linejoin="round" stroke-width="1"/>
        <rect id="사각형_5438" data-name="사각형 5438" width="39.099" height="2.071" transform="translate(4.874 124.708)" fill="#fff"/>
        <rect id="사각형_5439" data-name="사각형 5439" width="39.505" height="2.477" rx="0.203" transform="translate(4.671 124.505)" fill="none" stroke="#555" stroke-linecap="round" stroke-linejoin="round" stroke-width="1"/>
        <rect id="사각형_5440" data-name="사각형 5440" width="39.099" height="2.071" transform="translate(1.326 145.007)" fill="#fff"/>
        <rect id="사각형_5441" data-name="사각형 5441" width="39.505" height="2.477" rx="0.203" transform="translate(1.123 144.804)" fill="none" stroke="#555" stroke-linecap="round" stroke-linejoin="round" stroke-width="1"/>
        <path id="패스_69875" data-name="패스 69875" d="M8.716,61.708c-.475-3.13-1.576-4.813.159-10.469A52.681,52.681,0,0,1,13.269,41.08l17.644,5.766.33,3.96L49.049,67.133a10.6,10.6,0,0,1,2.8,11.439L45.015,97.325l2.4,3.966a1.227,1.227,0,0,1-1.053,1.862H30.318a2.654,2.654,0,0,1-2.519-3.5L35.76,76.1,24.082,65.542,22.7,116.625l3.613,6.528a1.034,1.034,0,0,1-.907,1.535H8.651a2.676,2.676,0,0,1-2.676-2.8Z" fill="#fff"/>
        <path id="패스_69876" data-name="패스 69876" d="M25.41,124.891H8.651a2.878,2.878,0,0,1-2.879-3.007l2.74-60.165c-.1-.62-.215-1.187-.331-1.736-.463-2.181-.9-4.241.5-8.8a53.512,53.512,0,0,1,4.414-10.2.2.2,0,0,1,.239-.089l17.643,5.766a.205.205,0,0,1,.139.176l.324,3.88L49.186,66.984a10.768,10.768,0,0,1,2.852,11.657L45.239,97.3l2.349,3.884a1.43,1.43,0,0,1-1.226,2.17H30.318a2.857,2.857,0,0,1-2.711-3.769l7.918-23.427L24.273,65.989l-1.364,50.587,3.586,6.48a1.237,1.237,0,0,1-1.085,1.835Z" fill="none" stroke="#555" stroke-linecap="round" stroke-linejoin="round" stroke-width="1"/>
        <path id="패스_69877" data-name="패스 69877" d="M45.049,97.525a99.963,99.963,0,0,1-14.741,1.219q-.469,0-.941-.006" fill="none" stroke="#555" stroke-linecap="round" stroke-linejoin="round" stroke-width="1"/>
        <path id="패스_69878" data-name="패스 69878" d="M22.806,116.8a39.11,39.11,0,0,1-13.685,4.04H9.1" fill="none" stroke="#555" stroke-linecap="round" stroke-linejoin="round" stroke-width="1"/>
        <path id="패스_69879" data-name="패스 69879" d="M23.182,65.15a61.476,61.476,0,0,1-6.64-6.188c-2.008-2.45-1.924-6.137-1.919-6.293" fill="none" stroke="#555" stroke-linecap="round" stroke-linejoin="round" stroke-width="1"/>
        <path id="패스_69880" data-name="패스 69880" d="M42.209,6.715a35.532,35.532,0,0,1-.534,5.8c-.55,3.046-1.214,4.5-2.743,4.689s-2.385.315-2.385.315L36.31,20.63l-6.175.348,1.683-9.587,2.754-4.643Z" fill="#fff"/>
        <path id="패스_69881" data-name="패스 69881" d="M30.182,20.266l1.576-8.978a.259.259,0,0,1,.032-.088l2.579-4.347a.261.261,0,0,1,.224-.128l7.151-.031h0a.261.261,0,0,1,.261.26,33.924,33.924,0,0,1-.5,5.477c-.5,2.754-1.114,4.39-2.792,4.6-1,.128-1.7.221-2.022.266L36.482,20" fill="none" stroke="#555" stroke-linecap="round" stroke-linejoin="round" stroke-width="1"/>
        <path id="패스_69882" data-name="패스 69882" d="M35.7,11.248a1.246,1.246,0,0,1,.957.086,1.325,1.325,0,0,1,.59.973" fill="none" stroke="#555" stroke-linecap="round" stroke-linejoin="round" stroke-width="1.5"/>
        <path id="패스_69883" data-name="패스 69883" d="M33.193,17.107a6.8,6.8,0,0,0,3.587-3.173,1.28,1.28,0,0,1-2.022-.564A2.43,2.43,0,0,1,36.586,9.8c1.628-.127,1.843,1.836,1.843,1.836a2.119,2.119,0,0,0,1.177-1.887s.666.623,1.236-.532A2.352,2.352,0,0,0,43.363,8.07c1.111-1.582.4-3.491-1.394-3.464,0,0,.273-2.593-2.79-4.116a3.574,3.574,0,0,0-4.728.992,6.079,6.079,0,0,0-4.413-.313c-3.659,1.011-2.01,4.551-2.01,4.551s-2.077.319-2.077,3.348c0,2.875,3.346,4.689,3.346,4.689s-.362,1.966.475,2.978,3.421.372,3.421.372" fill="#555"/>
        <path id="패스_69884" data-name="패스 69884" d="M32.283,22.108,45.461,27.17,59.007,19l3.371,10.14S48.119,40.64,43.8,41.664s-17.39-6.472-17.39-6.472Z" fill="#eaa35e"/>
        <path id="패스_69885" data-name="패스 69885" d="M72.813,15.311a28.385,28.385,0,0,1-18.855,2.563,3.069,3.069,0,0,0-3.572,2.14l-2.608,9.17C42,49.5,55.678,60.857,59.815,63.75a3.97,3.97,0,0,0,2.5.709c5.042-.292,22.659-2.776,28.439-23.1l2.608-9.17A3.062,3.062,0,0,0,91.452,28.5,28.323,28.323,0,0,1,76.76,16.43a3,3,0,0,0-3.947-1.119" fill="#32c67f"/>
        <path id="패스_69886" data-name="패스 69886" d="M57.612,35.43l5.82,10.8L83.083,34.943" fill="none" stroke="#fff" stroke-linecap="round" stroke-linejoin="round" stroke-width="2"/>
        <path id="패스_69887" data-name="패스 69887" d="M57.321,18.377a28.33,28.33,0,0,1,.32-3.831c.272-1.127,2.074-.057,2.3,2.238s-2.622,1.593-2.622,1.593" fill="#fff"/>
        <path id="패스_69888" data-name="패스 69888" d="M58.223,18.681a4.366,4.366,0,0,1-.951-.107.2.2,0,0,1-.152-.229c0-.035.007-.15.013-.32a22.884,22.884,0,0,1,.31-3.527.71.71,0,0,1,.756-.605c.807.056,1.782,1.222,1.946,2.871a1.631,1.631,0,0,1-.479,1.483A2.206,2.206,0,0,1,58.223,18.681Z" fill="none" stroke="#555" stroke-linecap="round" stroke-linejoin="round" stroke-width="1"/>
        <path id="패스_69889" data-name="패스 69889" d="M38.137,20.209c3.42,1.264,4.549,3.211,4.822,5.212l3.82,12.018,9.6.476.082,9.92-13.53.215c-4.292.056-7.156-1.977-7.97-5.117l-.7-1.866L32.61,50.592a.88.88,0,0,1-1.057.75L10.505,46.855a.878.878,0,0,1-.585-1.287L20.446,24.537c1.248-2.238,5.125-6.227,10.546-6.079" fill="#eaa35e"/>
        <line id="선_654" data-name="선 654" x1="0.996" y1="8.684" transform="translate(33.007 31.994)" fill="none" stroke="#555" stroke-linecap="round" stroke-linejoin="round" stroke-width="1"/>
        <path id="패스_69890" data-name="패스 69890" d="M46.171,37.309l-3.084-.076Z" fill="#fff"/>
        <path id="패스_69891" data-name="패스 69891" d="M46.171,37.512h-.005l-3.084-.076" fill="none" stroke="#555" stroke-linecap="round" stroke-linejoin="round" stroke-width="1"/>
        <path id="패스_69892" data-name="패스 69892" d="M55.8,38.04a2.2,2.2,0,0,0,1.534-.494c.867-.614.787-1.452,1.273-2.407a.892.892,0,0,1,1.677-.053,7.919,7.919,0,0,1-.11,2.136s1.218-.07,1.619.383a1.1,1.1,0,0,1-.031,1.379s1.071-.08,1.28.727c.236.91-.718,1.566-.718,1.566a1.2,1.2,0,0,1,.757,1.046,1.444,1.444,0,0,1-.991,1.389s.546.355.166,1.278c-.267.647-3.013,2.144-6.238,2.451s-.218-9.4-.218-9.4" fill="#fff"/>
        <path id="패스_69893" data-name="패스 69893" d="M56,47.239c3.2-.3,5.853-1.8,6.069-2.326.307-.743-.075-1.021-.091-1.033a.206.206,0,0,1-.086-.2.2.2,0,0,1,.136-.164,1.231,1.231,0,0,0,.852-1.185.989.989,0,0,0-.623-.865.206.206,0,0,1-.133-.165.2.2,0,0,1,.086-.193c.008-.006.833-.59.637-1.35-.165-.635-1.059-.575-1.069-.575a.2.2,0,0,1-.177-.325.908.908,0,0,0,.041-1.122,2.275,2.275,0,0,0-1.456-.314.213.213,0,0,1-.163-.067.2.2,0,0,1-.048-.17,7.451,7.451,0,0,0,.114-2.051.607.607,0,0,0-.527-.4.783.783,0,0,0-.773.5,5.835,5.835,0,0,0-.347.9,2.672,2.672,0,0,1-.989,1.578,2.394,2.394,0,0,1-1.688.528" fill="none" stroke="#555" stroke-linecap="round" stroke-linejoin="round" stroke-width="1"/>
        <path id="패스_69894" data-name="패스 69894" d="M60.188,37.429l-1.421.456a.2.2,0,0,1-.062.01" fill="none" stroke="#555" stroke-linecap="round" stroke-linejoin="round" stroke-width="1"/>
        <path id="패스_69895" data-name="패스 69895" d="M60.691,15.138s-2.108,2.174-2.022,2.869c.108.867,1.271.884,1.864.4,0,0-.839,1.136-.06,1.756.533.424,1.6-.026,1.6-.026s-.094.805.412,1.062c.914.462,1.742-.542,1.742-.542s.162.842,1.2.574,2.663-2.317,2.273-3.072-1.463-.312-1.463-.312.065-1.541-1.631-.959a1.306,1.306,0,0,0-1.816-1.242s-.5-2.245-2.095-.508" fill="#fff"/>
        <path id="패스_69896" data-name="패스 69896" d="M62.986,21.526a1.3,1.3,0,0,1-.6-.146,1.106,1.106,0,0,1-.526-.957,1.763,1.763,0,0,1-1.517-.1,1.209,1.209,0,0,1-.289-1.454,1.567,1.567,0,0,1-.972-.032.961.961,0,0,1-.619-.8c-.092-.751,1.708-2.654,2.076-3.033.532-.579,1.027-.812,1.468-.693.533.143.805.761.914,1.09a1.463,1.463,0,0,1,1.21.159,1.7,1.7,0,0,1,.634,1.071,1.37,1.37,0,0,1,1.2.136,1.234,1.234,0,0,1,.446.813,1.216,1.216,0,0,1,1.461.491,1.262,1.262,0,0,1-.1,1.083,4.593,4.593,0,0,1-2.3,2.279,1.248,1.248,0,0,1-1.007-.1.991.991,0,0,1-.311-.317A1.847,1.847,0,0,1,62.986,21.526Z" fill="none" stroke="#555" stroke-linecap="round" stroke-linejoin="round" stroke-width="1"/>
        <line id="선_655" data-name="선 655" y1="1.959" x2="1.638" transform="translate(60.537 16.637)" fill="none" stroke="#555" stroke-linecap="round" stroke-linejoin="round" stroke-width="1"/>
        <line id="선_656" data-name="선 656" y1="2.421" x2="1.955" transform="translate(62.071 17.748)" fill="none" stroke="#555" stroke-linecap="round" stroke-linejoin="round" stroke-width="1"/>
        <line id="선_657" data-name="선 657" y1="1.909" x2="1.424" transform="translate(64.22 18.786)" fill="none" stroke="#555" stroke-linecap="round" stroke-linejoin="round" stroke-width="1"/>
        <path id="패스_69897" data-name="패스 69897" d="M44.35,30.555l-1.214-3.81Z" fill="#fff"/>
        <line id="선_658" data-name="선 658" x1="1.214" y1="3.81" transform="translate(42.942 26.807)" fill="none" stroke="#555" stroke-linecap="round" stroke-linejoin="round" stroke-width="1"/>
        <path id="패스_69898" data-name="패스 69898" d="M138.484,104.038,124.449,133.9a38.548,38.548,0,0,0-3.5,12.9l-.869,9.541H139.82l-.445-14.965,16.18-34.672Z" fill="#fff"/>
        <path id="패스_69899" data-name="패스 69899" d="M119.9,156.326l.869-9.541a38.608,38.608,0,0,1,3.519-12.961l14.035-29.862a.18.18,0,0,1,.19-.1l17.071,2.668a.178.178,0,0,1,.134.252l-16.162,34.633L140,156.337" fill="none" stroke="#555" stroke-linecap="round" stroke-linejoin="round" stroke-width="1"/>
        <path id="패스_69900" data-name="패스 69900" d="M151.7,156.347l-5.271-12.066a30.652,30.652,0,0,1-2.348-15.917l3.017-25.21,16.923,1.926-1.977,32.188,12.889,18.838" fill="#fff"/>
        <path id="패스_69901" data-name="패스 69901" d="M151.531,156.418l-5.271-12.066a30.868,30.868,0,0,1-2.362-16.01l1.31-10.944a2.58,2.58,0,0,0-.291-1.537l-.473-.877" fill="none" stroke="#555" stroke-linecap="round" stroke-linejoin="round" stroke-width="1"/>
        <path id="패스_69902" data-name="패스 69902" d="M164.195,105.092l-2.148,32.165L175,156.246" fill="none" stroke="#555" stroke-linecap="round" stroke-linejoin="round" stroke-width="1"/>
        <path id="패스_69903" data-name="패스 69903" d="M129.678,77.063s27.148-5.217,34.009-3.782,8.246,10.953,6.568,19.738l-2.71,2.943s-1.934,8.811-2.639,10.948c-1.017,3.085-27.917,3.456-29.484,2.153s3.989-20.706,3.989-20.706-15.2,2.132-28.389-3.6c-4.21-1.831-2.106-9.385-2.106-9.385Z" fill="#7069e0"/>
        <path id="패스_69904" data-name="패스 69904" d="M129.678,77.063s27.148-5.217,34.009-3.782,8.246,10.953,6.568,19.738l-2.71,2.943s-1.934,8.811-2.639,10.948c-1.017,3.085-27.917,3.456-29.484,2.153s3.989-20.706,3.989-20.706-15.2,2.132-28.389-3.6c-4.21-1.831-2.106-9.385-2.106-9.385Z" fill="none" stroke="#7069e0" stroke-linecap="round" stroke-linejoin="round" stroke-width="1.5"/>
        <line id="선_659" data-name="선 659" y1="4.658" x2="0.807" transform="translate(161.146 80.402)" fill="none" stroke="#555" stroke-linecap="round" stroke-linejoin="round" stroke-width="1"/>
        <path id="패스_69905" data-name="패스 69905" d="M123.895,56.488A30.374,30.374,0,0,1,104.127,61.5a3.291,3.291,0,0,0-3.547,2.714L98.9,74.308c-3.716,22.376,12.213,32.84,16.966,35.428a4.236,4.236,0,0,0,2.749.455c5.334-.919,23.794-5.694,27.51-28.069l1.677-10.1a3.287,3.287,0,0,0-2.48-3.711,30.333,30.333,0,0,1-17.092-11.106,3.208,3.208,0,0,0-4.338-.718" fill="#32c67f"/>
        <path id="사각형_5442" data-name="사각형 5442" d="M1.266,0H12.872a1.267,1.267,0,0,1,1.267,1.267V17.88a1.266,1.266,0,0,1-1.266,1.266H1.267A1.267,1.267,0,0,1,0,17.879V1.266A1.266,1.266,0,0,1,1.266,0Z" transform="translate(110.724 90.812) rotate(-80.605)" fill="none" stroke="#fff" stroke-linecap="round" stroke-linejoin="round" stroke-width="2"/>
        <path id="패스_69906" data-name="패스 69906" d="M117.443,77.592l1.029-6.2A2.537,2.537,0,0,1,121.4,69.33l5.037.834a2.531,2.531,0,0,1,2.107,2.9l-1.029,6.2" fill="none" stroke="#fff" stroke-linecap="round" stroke-linejoin="round" stroke-width="2"/>
        <line id="선_660" data-name="선 660" x1="0.783" y2="4.714" transform="translate(120.931 83.043)" fill="none" stroke="#fff" stroke-linecap="round" stroke-linejoin="round" stroke-width="2"/>
        <path id="패스_69907" data-name="패스 69907" d="M98.262,74.913a1.02,1.02,0,0,1-.184-1.338c.482-.774,3.433-.128,3.7.884s-1.1,1.257-1.34,1.187a2.656,2.656,0,0,1,1,1.565c.133.943-.929.948-1.264.983a1.125,1.125,0,0,1,.245,1.493c-.221.442-1.284.486-1.284.486s.594.968-.31,1.282a2.943,2.943,0,0,1-3.056-1.149c-.5-.943.664-.918.753-1.017,0,0-1.071-.955-.97-1.723s1.366-.666,1.366-.666-1.065-.591-.73-1.428,2.077-.559,2.077-.559" fill="#fff"/>
        <path id="패스_69908" data-name="패스 69908" d="M98.222,81.723a3.14,3.14,0,0,1-2.614-1.333.835.835,0,0,1-.092-.751.926.926,0,0,1,.66-.438,2.415,2.415,0,0,1-.8-1.659c.073-.562.61-.746,1.034-.8a1.209,1.209,0,0,1-.387-1.335c.273-.682,1.267-.739,1.846-.71a1.164,1.164,0,0,1,.062-1.215c.329-.529,1.332-.441,1.747-.378.969.145,2.095.617,2.279,1.311a.953.953,0,0,1-.257.98,1.726,1.726,0,0,1-.818.4,2.575,2.575,0,0,1,.734,1.388.922.922,0,0,1-.168.735,1.35,1.35,0,0,1-.893.415,1.365,1.365,0,0,1,.026,1.431c-.191.382-.809.515-1.173.561a1.154,1.154,0,0,1,.051.778.867.867,0,0,1-.574.518A2.027,2.027,0,0,1,98.222,81.723Z" fill="none" stroke="#555" stroke-linecap="round" stroke-linejoin="round" stroke-width="1"/>
        <line id="선_661" data-name="선 661" x2="1.706" y2="0.601" transform="translate(98.634 74.956)" fill="none" stroke="#555" stroke-linecap="round" stroke-linejoin="round" stroke-width="1"/>
        <line id="선_662" data-name="선 662" x2="2.501" y2="1.027" transform="translate(97.579 77.081)" fill="none" stroke="#555" stroke-linecap="round" stroke-linejoin="round" stroke-width="1"/>
        <line id="선_663" data-name="선 663" x2="1.904" y2="0.619" transform="translate(97.204 79.423)" fill="none" stroke="#555" stroke-linecap="round" stroke-linejoin="round" stroke-width="1"/>
        <path id="패스_69909" data-name="패스 69909" d="M144.352,84.954s-.9-.315-1.58-.473-2.317-2.523-2.739-3.207-1.211-.473-1.264.368a10.853,10.853,0,0,0,.422,2.523s-2-.946-2.528-.63-.421,1.261.474,1.84c0,0-1.312-.366-1.475.525-.152.829,1.064,1.735,1.064,1.735a.872.872,0,0,0-.59.736c-.068.75,1,1.419,1,1.419a.9.9,0,0,0-.263,1.1c.316.684,2.317,2.471,5.9,3.207s1.58-9.147,1.58-9.147" fill="#fff"/>
        <path id="패스_69910" data-name="패스 69910" d="M143.139,94.319a1.981,1.981,0,0,1-.4-.043c-3.511-.721-5.657-2.51-6.025-3.307a1.053,1.053,0,0,1,.145-1.157c-.326-.245-.957-.81-.9-1.457a1,1,0,0,1,.444-.755c-.364-.323-1.045-1.032-.916-1.732a.824.824,0,0,1,.38-.578,1.332,1.332,0,0,1,.7-.168h.006a1.5,1.5,0,0,1-.406-1,.859.859,0,0,1,.406-.746c.467-.28,1.7.189,2.351.467a9.038,9.038,0,0,1-.332-2.217.939.939,0,0,1,.646-.923.883.883,0,0,1,.95.472c.632,1.026,2.092,3,2.626,3.126.687.159,1.562.466,1.6.479a.182.182,0,0,1,.116.133c.059.294,1.433,7.2-.349,8.974A1.427,1.427,0,0,1,143.139,94.319Z" fill="none" stroke="#555" stroke-linecap="round" stroke-linejoin="round" stroke-width="1"/>
        <path id="패스_69911" data-name="패스 69911" d="M144,84.367l-1.874,10.181,22.07,3.246a5.474,5.474,0,0,0,1.276-10.874Z" fill="#7069e0"/>
        <path id="패스_69912" data-name="패스 69912" d="M144,84.367l-1.874,10.181,22.07,3.246a5.474,5.474,0,0,0,1.276-10.874Z" fill="none" stroke="#7069e0" stroke-linecap="round" stroke-linejoin="round" stroke-width="1.5"/>
        <path id="패스_69913" data-name="패스 69913" d="M165.474,87.1h-.021L147.39,84.376" fill="none" stroke="#555" stroke-linecap="round" stroke-linejoin="round" stroke-width="1"/>
        <path id="패스_69914" data-name="패스 69914" d="M166.818,97.648a5.666,5.666,0,0,1-1.994.361c-.216,0-.82-.013-1.035-.038L142.922,94.41" fill="none" stroke="#555" stroke-linecap="round" stroke-linejoin="round" stroke-width="1"/>
        <path id="패스_69915" data-name="패스 69915" d="M161.335,67.8l1.691,7.514-9.165,7.188,2.182-7.242-.364-6Z" fill="#fff"/>
        <path id="패스_69916" data-name="패스 69916" d="M162.757,75.379l-1.629-7.237-5.16,1.329.35,5.777" fill="none" stroke="#555" stroke-linecap="round" stroke-linejoin="round" stroke-width="1"/>
        <path id="패스_69917" data-name="패스 69917" d="M164.107,67s3.233-.692,4.039-3.643c.785-2.869-1.307-3.237-1.307-3.237s-.358-2.512-2.153-3.409a7.648,7.648,0,0,0-2.936-1,4.389,4.389,0,0,0-4.241-2.587,4.531,4.531,0,0,0-4.644,3.337c-.688,2.436-.049,5.392,2.141,6.8s2.823,4.761,4.818,5.053S164.107,67,164.107,67" fill="#555"/>
        <path id="패스_69918" data-name="패스 69918" d="M156.931,72.3a4.113,4.113,0,0,1-3.956-2.262c-1.128-2.252.218-4.766,1.077-6.984.11-.283.208-.536.286-.749.712-1.927,1.885-1.949,1.934-1.949a.275.275,0,0,1,.225.116c.013.019,2.258,1.879,4.231,1.924a.276.276,0,0,1,.256.362c-.007.018-1.506,1.846-1.325,2.979a.607.607,0,0,0,.274.462c.289.172,1.165-.522,1.165-.522a3.466,3.466,0,0,1,2.819-.1c.778.306,1.058,1.252.679,2.3a2.624,2.624,0,0,1-2.97,1.838,3.909,3.909,0,0,1-2.322,2.246,7.927,7.927,0,0,1-2.373.342" fill="#fff"/>
        <path id="패스_69919" data-name="패스 69919" d="M156.931,72.3a4.113,4.113,0,0,1-3.956-2.262c-1.128-2.252.218-4.766,1.077-6.984.11-.283.208-.536.286-.749.712-1.927,1.885-1.949,1.934-1.949a.275.275,0,0,1,.225.116c.013.019,2.258,1.879,4.231,1.924a.276.276,0,0,1,.256.362c-.007.018-1.506,1.846-1.325,2.979a.607.607,0,0,0,.274.462c.289.172,1.165-.522,1.165-.522a3.466,3.466,0,0,1,2.819-.1c.778.306,1.058,1.252.679,2.3a2.624,2.624,0,0,1-2.97,1.838,3.909,3.909,0,0,1-2.322,2.246A7.927,7.927,0,0,1,156.931,72.3Z" fill="none" stroke="#555" stroke-linecap="round" stroke-linejoin="round" stroke-width="1"/>
        <path id="패스_69920" data-name="패스 69920" d="M161.773,67.815a1.366,1.366,0,0,1,1.666-.751" fill="none" stroke="#555" stroke-linecap="round" stroke-linejoin="round" stroke-width="1.5"/>
        <line id="선_664" data-name="선 664" x2="47.994" transform="translate(61.899 145.378)" fill="none" stroke="#555" stroke-linecap="round" stroke-linejoin="round" stroke-width="1"/>
      </g>
    </g>
  </g>
</svg>
