<svg xmlns="http://www.w3.org/2000/svg" width="231" height="30" viewBox="0 0 231 30">
    <defs>
        <clipPath id="v1daucr2ba">
            <path data-name="사각형 1229" style="fill:none" d="M0 0h231v30H0z"/>
        </clipPath>
    </defs>
    <path data-name="패스 64256" d="M15.845 5.634h-4.418L3.4 14.181l8.078 8.569h4.419l-8.07-8.569z" style="fill:#555"/>
    <g data-name="그룹 18034">
        <g data-name="그룹 18033" style="clip-path:url(#v1daucr2ba)">
            <path data-name="패스 64257" d="M23.846 23c-5.242 0-8.625-3.461-8.625-8.818S18.6 5.37 23.846 5.37s8.623 3.461 8.623 8.817S29.084 23 23.846 23m0-14.531c-3.148 0-5.182 2.243-5.182 5.713S20.7 19.9 23.846 19.9s5.178-2.243 5.178-5.714-2.032-5.713-5.178-5.713" style="fill:#555"/>
            <path data-name="패스 64258" d="M36.209 22.751a1.177 1.177 0 0 1-1.176-1.177V5.635h2.221a1.177 1.177 0 0 1 1.176 1.176v15.94z" style="fill:#555"/>
            <path data-name="패스 64259" d="M1.175 22.751A1.177 1.177 0 0 1 0 21.574V5.635h2.22a1.176 1.176 0 0 1 1.175 1.176v15.94z" style="fill:#555"/>
            <path data-name="패스 64260" d="M42.626 22.751a1.177 1.177 0 0 1-1.176-1.177V5.635h11.494v2.028a1.077 1.077 0 0 1-1.074 1.076h-7.023v3.681h6.793v2a1.087 1.087 0 0 1-1.088 1.08h-5.7v4.148h8.4v2.028a1.075 1.075 0 0 1-1.074 1.076z" style="fill:#555"/>
            <path data-name="패스 64261" d="M17.69 0a1.729 1.729 0 0 0-1.466.527l-2.21 2.362h53.942V1.04A1.008 1.008 0 0 0 66.838 0z" style="fill:#555"/>
            <path data-name="패스 64262" d="M17.728 28.363a1.709 1.709 0 0 1-1.457-.527l-2.231-2.362h53.916v1.85a1.007 1.007 0 0 1-1.117 1.039z" style="fill:#555"/>
            <path data-name="패스 64263" d="m63.317 13.124-3.17-1.212c-1.148-.461-1.731-.862-1.731-1.782 0-1.516 1.7-1.9 2.793-1.834a4.329 4.329 0 0 1 2.5.949 1.117 1.117 0 0 0 1.492.207l1.671-.843A6.224 6.224 0 0 0 61.11 5.37c-3.915 0-6.052 2.289-6.082 5a4.518 4.518 0 0 0 3.112 4.252l3.347 1.26c.981.393 2 .939 1.991 2.222-.014 1.428-1.577 1.955-2.914 1.922a4.1 4.1 0 0 1-3.464-1.875s-1.129.338-1.9.561a.866.866 0 0 0-.532 1.454 6.731 6.731 0 0 0 5.917 2.84c3.582 0 6.461-1.946 6.461-5.206 0-2.163-1.305-3.7-3.723-4.676" style="fill:#555"/>
            <path data-name="패스 64264" d="M162.631 16.214c0 1.219-.443 1.964-1.358 1.964h-.452c-.38 0-.6-.282-.6-.98V0h2.4z" style="fill:#555"/>
            <path data-name="패스 64265" d="M179.113 7.146c0 1.219-.444 1.96-1.361 1.96h-.452c-.38 0-.6-.283-.6-.98V0h2.408z" style="fill:#555"/>
            <path data-name="패스 64266" d="M195.35 9.95c0 1.22-.445 1.962-1.361 1.962h-.449c-.383 0-.6-.284-.6-.981V0h2.408z" style="fill:#555"/>
            <path data-name="패스 64267" d="M108.6 6.9h3.259c.281 0 .583.132.583.473v.316c0 .618-.261 1.258-1.486 1.258H95.944V6.9H108.6z" style="fill:#555"/>
            <path data-name="패스 64268" d="M143.2 8.065h3.26c.28 0 .583.134.583.474v.314c0 .618-.26 1.259-1.485 1.259h-15.01V8.065H143.2z" style="fill:#555"/>
            <path data-name="패스 64269" d="M125.912 13.518h3.259c.279 0 .582.133.582.479v.31c0 .62-.261 1.255-1.485 1.255h-15.012v-2.044h12.656z" style="fill:#555"/>
            <path data-name="패스 64270" d="M124.758 10.375c.037-.258.072-.507.1-.76.063-.555.111-1.1.143-1.634a53.562 53.562 0 0 0 .086-3.27V3.583h-9.8V1.5h10.678a1.435 1.435 0 0 1 1.5 1.468v1.11c0 1.428-.007 2.757-.1 3.976-.213 2.656-1.307 3.479-1.307 3.479a7.009 7.009 0 0 1-1.079-.136c-.385-.1-.257-.706-.209-1.022" style="fill:#555"/>
            <path data-name="패스 64271" d="M156.322 9.364a25.03 25.03 0 0 0 2.39 2.4s-.4.412-.857.9a1 1 0 0 1-1.336.107c-.208-.2-.414-.4-.614-.6q-.613-.6-1.149-1.153-.552-.558-.934-1.006a2.748 2.748 0 0 1-.478-.7h-.04a2.93 2.93 0 0 1-.523.776c-.288.338-.59.671-.91 1-.356.371-.731.749-1.128 1.139-.132.127-.272.268-.424.411-.3.286-1.061.859-1.678.222l-.9-.93a19.7 19.7 0 0 0 2.865-2.811 7.878 7.878 0 0 0 1.478-4.319V1.247h2.463V4.8a6.791 6.791 0 0 0 1.775 4.562" style="fill:#555"/>
            <path data-name="패스 64272" d="M169.681 5.839a1.993 1.993 0 0 1-.446.611 9.56 9.56 0 0 1-.852.765c-.409.332-.829.674-1.261 1.021-.152.125-.314.254-.482.384a1.334 1.334 0 0 1-1.691-.082l-.731-.922a13.241 13.241 0 0 0 2.95-2.29 5.01 5.01 0 0 0 1.2-3.381v-1.5h2.446v1.462a3.752 3.752 0 0 0 1.339 3.374 31.374 31.374 0 0 0 2.638 1.839s-.335.394-.8 1a.826.826 0 0 1-1.218.2q-.864-.587-1.726-1.231a15.293 15.293 0 0 1-.907-.734 1.6 1.6 0 0 1-.43-.524zm9.348 5.123v2.628a1.031 1.031 0 0 1-1.12 1.141h-7.691v1.535h8.582c.364 0 .581.121.581.458v.3c0 .6-.517 1.151-1.469 1.151h-8.142a1.75 1.75 0 0 1-1.881-1.873v-2.83a.535.535 0 0 1 .559-.559h8.25v-1.321h-8.9V9.68h9.925a1.158 1.158 0 0 1 1.312 1.282" style="fill:#555"/>
            <path data-name="패스 64273" d="M204.4 7.56a2 2 0 0 1-.45.61 9.437 9.437 0 0 1-.852.766c-.405.332-.826.669-1.26 1.022-.154.125-.312.252-.483.38a1.328 1.328 0 0 1-1.688-.078c-.452-.572-.732-.923-.732-.923a13.338 13.338 0 0 0 2.95-2.289 5.012 5.012 0 0 0 1.2-3.382v-1.5h2.446v1.461A3.757 3.757 0 0 0 206.865 7c.816.687 2.407 1.683 2.635 1.837 0 0-.333.4-.8 1a.82.82 0 0 1-1.214.2c-.577-.388-1.15-.8-1.725-1.229a15.684 15.684 0 0 1-.908-.736 1.576 1.576 0 0 1-.431-.523z" style="fill:#555"/>
            <path data-name="패스 64274" d="M83.867 3.645c-3.011 0-4.242 1.574-4.242 3.513s1.235 3.514 4.242 3.514 4.242-1.572 4.242-3.514-1.231-3.513-4.242-3.513m0 5.134c-1.329 0-1.873-.726-1.873-1.621s.544-1.62 1.873-1.62 1.873.728 1.873 1.62-.54 1.621-1.873 1.621" style="fill:#555"/>
            <path data-name="패스 64275" d="M186.171.656c-3.228 0-4.546 2.079-4.546 4.644s1.322 4.639 4.546 4.639 4.546-2.077 4.546-4.639S189.4.656 186.171.656m0 7.311c-1.519 0-2.144-1.192-2.144-2.667s.622-2.674 2.144-2.674 2.144 1.2 2.144 2.674-.625 2.667-2.144 2.667" style="fill:#555"/>
            <path data-name="패스 64276" d="M138.8.133c-3.852 0-5.426 1.573-5.426 3.513s1.58 3.513 5.426 3.513 5.426-1.572 5.426-3.513S142.649.133 138.8.133m0 5.133c-2.035 0-2.872-.723-2.872-1.62s.834-1.621 2.872-1.621 2.868.724 2.868 1.621-.833 1.62-2.868 1.62" style="fill:#555"/>
            <path data-name="패스 64277" d="M221.634.133c-3.159 0-4.452 1.508-4.452 3.367s1.3 3.365 4.452 3.365 4.453-1.5 4.453-3.365S224.8.133 221.634.133m0 4.818c-1.5 0-2.11-.652-2.11-1.451s.612-1.453 2.11-1.453 2.112.651 2.112 1.453-.614 1.451-2.112 1.451" style="fill:#555"/>
            <path data-name="패스 64278" d="M107.428 3.542q0 .671-.074 1.577a12.82 12.82 0 0 1-.287 1.809h2.409c.048-.292.1-.6.141-.919s.083-.636.116-.955.054-.618.076-.9.029-.53.029-.746V1.784c0-.912-.632-1.128-1.512-1.128H98.065V2.7h9.363z" style="fill:#555"/>
            <path data-name="패스 64279" d="M108.8 11.649h-3.566V8.734h-2.409v2.915h-4.76v2.029h9.575V17.2c0 .7.216.981.6.981h.451c.915 0 1.358-.742 1.358-1.961v-3.233a1.214 1.214 0 0 0-1.248-1.338" style="fill:#555"/>
            <path data-name="패스 64280" d="M137.564 12.083H132.8v2.03h9.575V17.2c0 .7.217.982.6.982h.451c.917 0 1.36-.741 1.36-1.962v-2.8a1.211 1.211 0 0 0-1.245-1.337h-5.979z" style="fill:#555"/>
            <path data-name="사각형 1219" transform="translate(116.621 7.766)" style="fill:#555" d="M0 0h2.373v6.081H0z"/>
            <path data-name="사각형 1220" transform="translate(121.038 7.766)" style="fill:#555" d="M0 0h2.367v6.081H0z"/>
            <path data-name="사각형 1221" transform="translate(134.924 9.521)" style="fill:#555" d="M0 0h2.412v3.444H0z"/>
            <path data-name="사각형 1222" transform="translate(140.182 9.521)" style="fill:#555" d="M0 0h2.408v3.444H0z"/>
            <path data-name="사각형 1223" transform="translate(174.201 2.846)" style="fill:#555" d="M0 0h2.752v2.047H0z"/>
            <path data-name="사각형 1224" transform="translate(208.888 4.556)" style="fill:#555" d="M0 0h2.747v2.045H0z"/>
            <path data-name="사각형 1225" transform="translate(225.439 10.719)" style="fill:#555" d="M0 0h3.374v2.047H0z"/>
            <path data-name="패스 64281" d="M88.912 2.573v-.316c0-.338-.306-.473-.582-.473h-3.26V0h-2.407v1.784h-3.918V3.83h8.682c1.226 0 1.485-.637 1.485-1.257" style="fill:#555"/>
            <path data-name="패스 64282" d="M203.4 1.115h-3.92v2.046h8c1.224 0 1.485-.64 1.485-1.258v-.312c0-.341-.3-.476-.583-.476H203.4z" style="fill:#555"/>
            <path data-name="패스 64283" d="M220.048 7.689h-3.917v2.045h12.3c1.222 0 1.482-.639 1.482-1.256v-.316c0-.341-.3-.473-.58-.473h-9.287z" style="fill:#555"/>
            <path data-name="패스 64284" d="M92.657 5.149V0H90.25v11.566c0 .7.216.98.6.98h.45c.917 0 1.36-.741 1.36-1.963V5.149z" style="fill:#555"/>
            <path data-name="패스 64285" d="M92.632 16.121h-8.613v-3.749h-2.427v4.255a1.517 1.517 0 0 0 1.517 1.552h8.62c1.226 0 1.484-.64 1.484-1.26v-.311a.518.518 0 0 0-.581-.487" style="fill:#555"/>
            <path data-name="패스 64286" d="M195.191 16.121h-8.531v-4.209h-2.428v4.715a1.517 1.517 0 0 0 1.518 1.552h8.541c1.222 0 1.485-.64 1.485-1.26v-.311a.52.52 0 0 0-.585-.487" style="fill:#555"/>
            <path data-name="패스 64287" d="M213.215 16.121h-8.534v-4.209h-2.425v4.715a1.516 1.516 0 0 0 1.516 1.552h8.543c1.224 0 1.483-.64 1.483-1.26v-.311a.519.519 0 0 0-.583-.487" style="fill:#555"/>
            <path data-name="패스 64288" d="M230.417 16.121h-9.2v-3.445h-2.429v3.951a1.518 1.518 0 0 0 1.518 1.552h9.211c1.223 0 1.484-.64 1.484-1.26v-.311a.519.519 0 0 0-.582-.487" style="fill:#555"/>
            <path data-name="패스 64289" d="M94.406 5.115h-2.264v2.043H93.5c1.224 0 1.485-.638 1.485-1.258v-.311c0-.341-.3-.474-.582-.474" style="fill:#555"/>
            <path data-name="패스 64290" d="M197.207 4.555h-2.266V6.6h1.359c1.225 0 1.485-.639 1.485-1.256v-.312c0-.342-.3-.477-.581-.477" style="fill:#555"/>
            <path data-name="패스 64291" d="M213.632 9.95c0 1.22-.445 1.962-1.359 1.962h-.453c-.379 0-.6-.284-.6-.981V0h2.409z" style="fill:#555"/>
            <path data-name="패스 64292" d="M230.712 12.33c0 1.221-.445 1.965-1.359 1.965h-.453c-.379 0-.6-.283-.6-.98V0h2.409z" style="fill:#555"/>
            <path data-name="패스 64293" d="M220.611 8.508v2.852c0 .7.217.979.6.979h.45c.916 0 1.359-.741 1.359-1.961v-1.87z" style="fill:#555"/>
            <path data-name="패스 64294" d="M82.614 28.376 80.279 25.9v2.472h-.925v-5.5h.925v2.418l2.105-2.411h1.147l-2.294 2.7 2.621 2.8z" style="fill:#555"/>
            <path data-name="패스 64295" d="M85.454 28.451a1.921 1.921 0 0 1-.811-.166 1.819 1.819 0 0 1-.612-.455 2.068 2.068 0 0 1-.393-.678 2.5 2.5 0 0 1-.136-.823 2.845 2.845 0 0 1 .106-.773 1.958 1.958 0 0 1 .345-.685 1.717 1.717 0 0 1 .6-.479 1.993 1.993 0 0 1 .886-.182 2.074 2.074 0 0 1 .815.159 1.9 1.9 0 0 1 .633.444 2.189 2.189 0 0 1 .407.669 2.334 2.334 0 0 1 .147.825 2.813 2.813 0 0 1-.111.771 2.173 2.173 0 0 1-.344.689 1.9 1.9 0 0 1-.626.493 2 2 0 0 1-.906.191m-.021-3.445a.818.818 0 0 0-.478.127.969.969 0 0 0-.3.32 1.383 1.383 0 0 0-.166.432 2.094 2.094 0 0 0-.045.422 1.984 1.984 0 0 0 .077.585 1.142 1.142 0 0 0 .223.417.89.89 0 0 0 .323.252.993.993 0 0 0 .408.084 1.023 1.023 0 0 0 .41-.084.941.941 0 0 0 .32-.25 1.285 1.285 0 0 0 .218-.413 1.923 1.923 0 0 0 .078-.569 1.656 1.656 0 0 0-.086-.547 1.38 1.38 0 0 0-.231-.421 1.084 1.084 0 0 0-.342-.263.946.946 0 0 0-.409-.092" style="fill:#555"/>
            <path data-name="패스 64296" d="M133.552 28.451a1.929 1.929 0 0 1-.812-.166 1.835 1.835 0 0 1-.611-.455 2.051 2.051 0 0 1-.393-.678 2.5 2.5 0 0 1-.136-.823 2.845 2.845 0 0 1 .106-.773 1.973 1.973 0 0 1 .344-.685 1.717 1.717 0 0 1 .6-.479 2 2 0 0 1 .887-.182 2.078 2.078 0 0 1 .815.159 1.9 1.9 0 0 1 .633.444 2.189 2.189 0 0 1 .407.669 2.333 2.333 0 0 1 .146.825 2.775 2.775 0 0 1-.111.771 2.17 2.17 0 0 1-.343.689 1.9 1.9 0 0 1-.626.493 2 2 0 0 1-.906.191m-.021-3.445a.812.812 0 0 0-.477.127.952.952 0 0 0-.3.32 1.358 1.358 0 0 0-.166.432 2.174 2.174 0 0 0-.046.422 1.949 1.949 0 0 0 .079.585 1.125 1.125 0 0 0 .221.417.9.9 0 0 0 .325.252.985.985 0 0 0 .407.084 1.023 1.023 0 0 0 .41-.084.951.951 0 0 0 .32-.25 1.3 1.3 0 0 0 .218-.413 1.955 1.955 0 0 0 .079-.569 1.656 1.656 0 0 0-.087-.547 1.36 1.36 0 0 0-.232-.421 1.08 1.08 0 0 0-.341-.263.946.946 0 0 0-.409-.092" style="fill:#555"/>
            <path data-name="패스 64297" d="M168.046 28.451a1.914 1.914 0 0 1-.811-.166 1.823 1.823 0 0 1-.613-.455 2.066 2.066 0 0 1-.392-.678 2.5 2.5 0 0 1-.136-.823 2.884 2.884 0 0 1 .105-.773 1.958 1.958 0 0 1 .345-.685 1.712 1.712 0 0 1 .6-.479 1.99 1.99 0 0 1 .886-.182 2.078 2.078 0 0 1 .815.159 1.9 1.9 0 0 1 .633.444 2.189 2.189 0 0 1 .407.669 2.356 2.356 0 0 1 .146.825 2.812 2.812 0 0 1-.111.771 2.152 2.152 0 0 1-.344.689 1.893 1.893 0 0 1-.625.493 2 2 0 0 1-.906.191m-.021-3.445a.821.821 0 0 0-.479.127.979.979 0 0 0-.3.32 1.356 1.356 0 0 0-.165.432 2.1 2.1 0 0 0-.046.422 1.949 1.949 0 0 0 .079.585 1.125 1.125 0 0 0 .221.417.894.894 0 0 0 .324.252.993.993 0 0 0 .408.084 1.03 1.03 0 0 0 .41-.084.947.947 0 0 0 .319-.25 1.266 1.266 0 0 0 .218-.413 1.924 1.924 0 0 0 .078-.569 1.631 1.631 0 0 0-.086-.547 1.379 1.379 0 0 0-.23-.421 1.107 1.107 0 0 0-.342-.263.95.95 0 0 0-.409-.092" style="fill:#555"/>
            <path data-name="패스 64298" d="M88.121 28.362v-4.07h.952v.436a1.174 1.174 0 0 1 .747-.5 1.251 1.251 0 0 1 .814.176l-.328.872a.93.93 0 0 0-.755-.093.727.727 0 0 0-.478.7v2.476z" style="fill:#555"/>
            <path data-name="패스 64299" d="M92.572 28.44a2.051 2.051 0 0 1-1.965-2.133 1.92 1.92 0 0 1 1.917-2.1 1.854 1.854 0 0 1 .789.161 1.485 1.485 0 0 1 .587.455 1.732 1.732 0 0 1 .334.71 4.182 4.182 0 0 1 .056 1.1h-2.68a1.069 1.069 0 0 0 1.037.988 1.584 1.584 0 0 0 1.122-.407l.428.56a2 2 0 0 1-1.625.668m.784-2.589s-.088-.82-.855-.82-.862.82-.862.82z" style="fill:#555"/>
            <path data-name="패스 64300" d="M127.158 28.44a2.051 2.051 0 0 1-1.965-2.133 1.921 1.921 0 0 1 1.918-2.1 1.849 1.849 0 0 1 .788.161 1.5 1.5 0 0 1 .588.455 1.745 1.745 0 0 1 .334.71 4.231 4.231 0 0 1 .056 1.1H126.2a1.068 1.068 0 0 0 1.037.988 1.584 1.584 0 0 0 1.122-.407l.427.56a2 2 0 0 1-1.625.668m.785-2.589a.9.9 0 0 0-.856-.82c-.754 0-.862.82-.862.82z" style="fill:#555"/>
            <path data-name="패스 64301" d="M221.886 28.44a2.053 2.053 0 0 1-1.966-2.133 1.922 1.922 0 0 1 1.918-2.1 1.85 1.85 0 0 1 .789.161 1.5 1.5 0 0 1 .588.455 1.745 1.745 0 0 1 .334.71 4.231 4.231 0 0 1 .056 1.1h-2.68a1.068 1.068 0 0 0 1.037.988 1.584 1.584 0 0 0 1.122-.407l.428.56a2 2 0 0 1-1.626.668m.785-2.589a.9.9 0 0 0-.856-.82c-.754 0-.862.82-.862.82z" style="fill:#555"/>
            <path data-name="패스 64302" d="M95.932 28.42a1.567 1.567 0 0 1-.51-.083 1.165 1.165 0 0 1-.4-.242 1.007 1.007 0 0 1-.262-.369 1.214 1.214 0 0 1-.091-.469 1.152 1.152 0 0 1 .119-.537 1.184 1.184 0 0 1 .307-.387 1.526 1.526 0 0 1 .429-.258 3.231 3.231 0 0 1 .512-.156 3.486 3.486 0 0 1 .985-.059v-.16a.661.661 0 0 0-.7-.679 1.715 1.715 0 0 0-1.071.46l-.4-.615a2.239 2.239 0 0 1 1.6-.65 1.349 1.349 0 0 1 1.534 1.42v1.677a6 6 0 0 0 .079 1.045h-.924L97.087 28a1.6 1.6 0 0 1-1.155.416m1.09-1.909a1.849 1.849 0 0 0-1.022.186c-.522.278-.364.686-.222.814a.8.8 0 0 0 1.24-.488z" style="fill:#555"/>
            <path data-name="패스 64303" d="M158.578 28.42a1.567 1.567 0 0 1-.51-.083 1.165 1.165 0 0 1-.4-.242 1.021 1.021 0 0 1-.263-.369 1.213 1.213 0 0 1-.09-.469 1.165 1.165 0 0 1 .118-.537 1.186 1.186 0 0 1 .308-.387 1.534 1.534 0 0 1 .428-.258 3.276 3.276 0 0 1 .513-.156 3.486 3.486 0 0 1 .985-.059v-.16a.661.661 0 0 0-.7-.679 1.712 1.712 0 0 0-1.071.46l-.4-.615a2.233 2.233 0 0 1 1.6-.65 1.349 1.349 0 0 1 1.534 1.42v1.677a6.079 6.079 0 0 0 .078 1.045h-.924l-.052-.358a1.6 1.6 0 0 1-1.154.416m1.09-1.909a1.849 1.849 0 0 0-1.018.182c-.523.278-.364.686-.223.814a.8.8 0 0 0 1.241-.488z" style="fill:#555"/>
            <path data-name="패스 64304" d="M175.757 28.42a1.584 1.584 0 0 1-.512-.083 1.18 1.18 0 0 1-.4-.242 1.018 1.018 0 0 1-.262-.369 1.214 1.214 0 0 1-.091-.469 1.152 1.152 0 0 1 .119-.537 1.184 1.184 0 0 1 .307-.387 1.511 1.511 0 0 1 .429-.258 3.232 3.232 0 0 1 .512-.156 3.486 3.486 0 0 1 .985-.059v-.16a.661.661 0 0 0-.7-.679 1.715 1.715 0 0 0-1.071.46l-.4-.615a2.236 2.236 0 0 1 1.6-.65 1.349 1.349 0 0 1 1.534 1.42v1.677a6.079 6.079 0 0 0 .078 1.045h-.925l-.049-.358a1.6 1.6 0 0 1-1.154.416m1.089-1.909a1.851 1.851 0 0 0-1.018.182c-.523.278-.364.686-.222.814a.8.8 0 0 0 1.24-.488z" style="fill:#555"/>
            <path data-name="패스 64305" d="M187.468 28.42a1.564 1.564 0 0 1-.511-.083 1.175 1.175 0 0 1-.4-.242 1.043 1.043 0 0 1-.262-.369 1.232 1.232 0 0 1-.091-.469 1.152 1.152 0 0 1 .119-.537 1.174 1.174 0 0 1 .308-.387 1.506 1.506 0 0 1 .428-.258 3.264 3.264 0 0 1 .512-.156 3.486 3.486 0 0 1 .985-.059v-.16a.66.66 0 0 0-.7-.679 1.716 1.716 0 0 0-1.072.46l-.4-.615a2.236 2.236 0 0 1 1.6-.65 1.349 1.349 0 0 1 1.534 1.42v1.677a6.079 6.079 0 0 0 .078 1.045h-.924l-.05-.358a1.6 1.6 0 0 1-1.154.416m1.089-1.909a1.851 1.851 0 0 0-1.018.182c-.521.278-.364.686-.221.814a.8.8 0 0 0 1.239-.488z" style="fill:#555"/>
            <path data-name="패스 64306" d="M214.836 28.42a1.573 1.573 0 0 1-.511-.083 1.175 1.175 0 0 1-.4-.242 1.031 1.031 0 0 1-.262-.369 1.232 1.232 0 0 1-.091-.469 1.152 1.152 0 0 1 .119-.537 1.186 1.186 0 0 1 .308-.387 1.52 1.52 0 0 1 .428-.258 3.264 3.264 0 0 1 .512-.156 3.486 3.486 0 0 1 .985-.059v-.16a.66.66 0 0 0-.7-.679 1.712 1.712 0 0 0-1.072.46l-.4-.615a2.239 2.239 0 0 1 1.6-.65 1.349 1.349 0 0 1 1.535 1.42v1.677a6.157 6.157 0 0 0 .077 1.045h-.924l-.05-.358a1.6 1.6 0 0 1-1.154.416m1.089-1.909a1.853 1.853 0 0 0-1.018.182c-.522.278-.364.686-.221.814a.8.8 0 0 0 1.239-.488z" style="fill:#555"/>
            <path data-name="사각형 1226" transform="translate(101.216 22.878)" style="fill:#555" d="M0 0h.953v5.497H0z"/>
            <path data-name="패스 64307" d="M105.362 28.362v-2.688a.621.621 0 0 0-.517-.617.786.786 0 0 0-.933.747v2.558h-.944v-4.07h.944v.339a1.678 1.678 0 0 1 1.125-.416 1.241 1.241 0 0 1 .932.36 1.362 1.362 0 0 1 .342.971v2.816z" style="fill:#555"/>
            <path data-name="패스 64308" d="M172.9 28.362v-2.688a.62.62 0 0 0-.515-.617.786.786 0 0 0-.934.747v2.558h-.944v-4.07h.944v.339a1.679 1.679 0 0 1 1.125-.416 1.243 1.243 0 0 1 .932.36 1.361 1.361 0 0 1 .341.971v2.816z" style="fill:#555"/>
            <path data-name="패스 64309" d="M119.215 24.3v2.688a.62.62 0 0 0 .516.617.785.785 0 0 0 .933-.746V24.3h.944v3.376a3.286 3.286 0 0 0 .081.694h-.945l-.08-.338a1.682 1.682 0 0 1-1.124.416 1.243 1.243 0 0 1-.933-.36 1.365 1.365 0 0 1-.34-.971V24.3z" style="fill:#555"/>
            <path data-name="패스 64310" d="M150.542 24.3v2.688a.619.619 0 0 0 .515.617.786.786 0 0 0 .934-.746V24.3h.944v3.376a3.325 3.325 0 0 0 .08.694h-.944l-.08-.338a1.684 1.684 0 0 1-1.125.416 1.238 1.238 0 0 1-.932-.36 1.365 1.365 0 0 1-.341-.971V24.3z" style="fill:#555"/>
            <path data-name="패스 64311" d="M108.305 28.446a2.313 2.313 0 0 1-1.471-.491l.452-.716a1.969 1.969 0 0 0 .986.387c.3 0 .593-.036.646-.356a.4.4 0 0 0-.247-.408c-.344-.176-.671-.306-.944-.429a1.252 1.252 0 0 1-.773-1.034c0-.75.661-1.2 1.462-1.2a1.743 1.743 0 0 1 1.345.455l-.384.69a1.578 1.578 0 0 0-.928-.373c-.162 0-.52.06-.52.391a.344.344 0 0 0 .163.3 2.136 2.136 0 0 0 .473.245c.175.069.34.14.493.209a2.2 2.2 0 0 1 .423.243 1.1 1.1 0 0 1 .3.34.907.907 0 0 1 .112.463c0 .764-.647 1.279-1.584 1.279" style="fill:#555"/>
            <path data-name="패스 64312" d="M111.921 28.446a1.018 1.018 0 0 1-1.136-1.161v-2.2h-.645V24.3h.645v-1.062h.926V24.3h.96v.789h-.96v2.109a.371.371 0 0 0 .319.411.955.955 0 0 0 .644-.172l.342.614a1.753 1.753 0 0 1-1.1.4" style="fill:#555"/>
            <path data-name="패스 64313" d="M116.852 28.446a1.018 1.018 0 0 1-1.137-1.161v-2.2h-.644V24.3h.644v-1.062h.926V24.3h.961v.789h-.961v2.109a.371.371 0 0 0 .319.411.955.955 0 0 0 .644-.172l.342.614a1.755 1.755 0 0 1-1.094.4" style="fill:#555"/>
            <path data-name="패스 64314" d="M123.875 28.446a1.018 1.018 0 0 1-1.136-1.161v-2.2h-.645V24.3h.645v-1.062h.925V24.3h.961v.789h-.961v2.109a.372.372 0 0 0 .32.411.951.951 0 0 0 .643-.172l.343.614a1.756 1.756 0 0 1-1.1.4" style="fill:#555"/>
            <path data-name="패스 64315" d="M162.847 28.446a1.018 1.018 0 0 1-1.136-1.161v-2.2h-.645V24.3h.645v-1.062h.926V24.3h.96v.789h-.96v2.109a.371.371 0 0 0 .319.411.955.955 0 0 0 .644-.172l.342.614a1.753 1.753 0 0 1-1.1.4" style="fill:#555"/>
            <path data-name="패스 64316" d="M201.5 28.446a1.017 1.017 0 0 1-1.136-1.161v-2.2h-.644V24.3h.644v-1.062h.926V24.3h.961v.789h-.961v2.109a.371.371 0 0 0 .319.411.955.955 0 0 0 .644-.172l.342.614a1.753 1.753 0 0 1-1.1.4" style="fill:#555"/>
            <path data-name="패스 64317" d="M113.533 24.292h.966v4.057h-.966zm0-1.669h.966v1h-.966z" style="fill:#555"/>
            <path data-name="패스 64318" d="M164.411 24.292h.966v4.057h-.966zm0-1.669h.966v1h-.966z" style="fill:#555"/>
            <path data-name="패스 64319" d="M194.355 24.292h.966v4.057h-.966zm0-1.669h.966v1h-.966z" style="fill:#555"/>
            <path data-name="패스 64320" d="M198.075 24.292h.966v4.057h-.966zm0-1.669h.966v1h-.966z" style="fill:#555"/>
            <path data-name="패스 64321" d="M136.451 28.362V25.07h-.644v-.778h.644V24a1.41 1.41 0 0 1 1.315-1.578 1.829 1.829 0 0 1 1.157.347l-.4.662a.677.677 0 0 0-.587-.181.626.626 0 0 0-.559.687v.357h1v.778h-1v3.292z" style="fill:#555"/>
            <path data-name="패스 64322" d="M217.9 28.362V25.07h-.644v-.778h.644V24a1.41 1.41 0 0 1 1.316-1.578 1.828 1.828 0 0 1 1.156.347l-.4.662a.681.681 0 0 0-.589-.181.626.626 0 0 0-.558.687v.357h1v.778h-1v3.292z" style="fill:#555"/>
            <path data-name="패스 64323" d="M141.386 28.371v-5.492h3.238v.836h-2.3v1.443h1.953V26h-1.953v1.54h2.3v.834z" style="fill:#555"/>
            <path data-name="패스 64324" d="M146.919 28.44a1.632 1.632 0 0 1-.779-.178 1.56 1.56 0 0 1-.544-.474 2.066 2.066 0 0 1-.32-.677 3.073 3.073 0 0 1-.1-.8 2.413 2.413 0 0 1 .121-.758 2.187 2.187 0 0 1 .355-.674 1.885 1.885 0 0 1 .587-.485 1.686 1.686 0 0 1 .8-.19 1.925 1.925 0 0 1 .516.065 1.13 1.13 0 0 1 .306.132v-1.856h.965v5.107a2.372 2.372 0 0 0 .1.723H148l-.072-.3a1.368 1.368 0 0 1-1.009.366m.212-3.425c-.425.027-.943.4-.943 1.3s.523 1.284.961 1.284a.746.746 0 0 0 .706-.839v-1.472a.773.773 0 0 0-.724-.274" style="fill:#555"/>
            <path data-name="패스 64325" d="M155.554 28.446a2.146 2.146 0 0 1-1.371-3.745 2.168 2.168 0 0 1 1.389-.494 2.221 2.221 0 0 1 1.4.547l-.482.664a1.3 1.3 0 0 0-.921-.387 1.162 1.162 0 0 0-1.138 1.3 1.155 1.155 0 0 0 1.158 1.278 1.492 1.492 0 0 0 .984-.4l.459.639a2.194 2.194 0 0 1-1.481.6" style="fill:#555"/>
            <path data-name="패스 64326" d="M192.262 28.446a2.146 2.146 0 0 1-1.37-3.745 2.164 2.164 0 0 1 1.388-.494 2.222 2.222 0 0 1 1.4.547l-.482.664a1.3 1.3 0 0 0-.922-.387 1.162 1.162 0 0 0-1.137 1.3 1.155 1.155 0 0 0 1.157 1.278 1.5 1.5 0 0 0 .985-.4l.458.639a2.191 2.191 0 0 1-1.481.6" style="fill:#555"/>
            <path data-name="사각형 1227" transform="translate(178.695 22.549)" style="fill:#555" d="M0 0h.928v5.822H0z"/>
            <path data-name="사각형 1228" transform="translate(196.192 22.549)" style="fill:#555" d="M0 0h.928v5.822H0z"/>
            <path data-name="패스 64327" d="M182.716 28.371v-5.492h3.315v.836h-2.364v1.393h2.086v.825h-2.086v2.438z" style="fill:#555"/>
            <path data-name="패스 64328" d="M203.059 30v-.812s.665 0 .892-.286a1.119 1.119 0 0 0 .316-.727l-1.5-3.879h1.006l.951 2.8.919-2.8h.975l-1.587 4.325a2.792 2.792 0 0 1-.338.69 1.977 1.977 0 0 1-1.63.689" style="fill:#555"/>
            <path data-name="패스 64329" d="M225.64 28.446a1.018 1.018 0 0 1-1.136-1.161v-2.2h-.645V24.3h.645v-1.062h.926V24.3h.96v.789h-.96v2.109a.371.371 0 0 0 .319.411.959.959 0 0 0 .645-.172l.342.614a1.754 1.754 0 0 1-1.1.4" style="fill:#555"/>
            <path data-name="패스 64330" d="M227.2 30v-.812s.666 0 .892-.286a1.119 1.119 0 0 0 .316-.727l-1.5-3.879h1.007l.95 2.8.918-2.8h.977l-1.588 4.325a2.754 2.754 0 0 1-.338.69A1.977 1.977 0 0 1 227.2 30" style="fill:#555"/>
            <path data-name="패스 64331" d="M211.1 28.452a2.923 2.923 0 0 1-1.816-.615l.5-.843a2.446 2.446 0 0 0 1.272.509c.424 0 .888-.112.965-.593a.674.674 0 0 0-.418-.614 13.894 13.894 0 0 0-.9-.436l-.012-.006-.317-.146a1.527 1.527 0 0 1 .863-2.916 2.268 2.268 0 0 1 1.659.56l-.41.777a2.1 2.1 0 0 0-1.206-.423c-.076 0-.791.006-.791.592a.616.616 0 0 0 .288.484 2.99 2.99 0 0 0 .626.342c.226.093.44.189.637.284a2.648 2.648 0 0 1 .535.324 1.43 1.43 0 0 1 .365.443 1.234 1.234 0 0 1 .137.6c0 1-.8 1.677-1.984 1.677" style="fill:#555"/>
        </g>
    </g>
</svg>
