<svg xmlns="http://www.w3.org/2000/svg" width="170" height="200" viewBox="0 0 170 200">
    <defs>
        <clipPath id="lp56pbl21a">
            <path d="M84.82 200a12.785 12.785 0 0 1-5.647-1.319c-18.035-8.939-76.884-41.972-76.973-91.77a2.326 2.326 0 0 1 .015-.267c.042-2.162-.8-27.728-2.215-67.063a8.281 8.281 0 0 1 7.937-8.511c39.621-1.721 63.012-20.64 71.23-28.695a8.352 8.352 0 0 1 11.513-.147c8.755 8.139 33.24 27.266 71.412 29.064a8.288 8.288 0 0 1 7.9 8.509c-.691 19.272-2.315 64.4-2.484 67.237-3.012 50.4-59.67 82.853-76.963 91.6A12.75 12.75 0 0 1 84.82 200M2.452 105.891a2.046 2.046 0 0 0-.216.644 2.2 2.2 0 0 1 .216-.644m1.987-1.213a2.238 2.238 0 0 0-.726.124 2.268 2.268 0 0 1 .726-.124" style="fill:#888"/>
        </clipPath>
        <clipPath id="jhfh0523ob">
            <path data-name="사각형 618" style="fill:none" d="M0 0h531.561v531.561H0z"/>
        </clipPath>
        <clipPath id="7ypxqlrmyc">
            <path data-name="사각형 703" style="fill:none" d="M0 0h100v73H0z"/>
        </clipPath>
    </defs>
    <g data-name="그룹 17931" style="opacity:.8;clip-path:url(#lp56pbl21a)">
        <path data-name="사각형 616" transform="rotate(-45 415.388 128.748)" style="fill:#9edbf8" d="M0 0h501.066v1.121H0z"/>
        <g data-name="그룹 17928">
            <g data-name="그룹 17927" style="clip-path:url(#jhfh0523ob)" transform="translate(-144.5 -198)">
                <path data-name="사각형 617" transform="rotate(-45 726.645 53.32)" style="stroke:#9edbf8;stroke-miterlimit:10;stroke-width:2px;fill:none" d="M0 0h501.066v1.121H0z"/>
            </g>
        </g>
        <path data-name="사각형 619" transform="rotate(-45 405.818 132.712)" style="fill:#9edbf8" d="M0 0h501.066v1.121H0z"/>
        <path data-name="사각형 620" transform="rotate(-45 405.818 132.712)" style="stroke:#9edbf8;stroke-miterlimit:10;stroke-width:2px;fill:none" d="M0 0h501.066v1.121H0z"/>
        <path data-name="사각형 621" transform="rotate(-45 396.247 136.675)" style="fill:#9edbf8" d="M0 0h501.066v1.121H0z"/>
        <path data-name="사각형 622" transform="rotate(-45 396.247 136.675)" style="stroke:#9edbf8;stroke-miterlimit:10;stroke-width:2px;fill:none" d="M0 0h501.066v1.121H0z"/>
        <path data-name="사각형 623" transform="rotate(-45 377.107 144.603)" style="fill:#9edbf8" d="M0 0h501.066v1.121H0z"/>
        <path data-name="사각형 624" transform="rotate(-45 377.107 144.603)" style="stroke:#9edbf8;stroke-miterlimit:10;stroke-width:2px;fill:none" d="M0 0h501.066v1.121H0z"/>
        <path data-name="사각형 625" transform="rotate(-45 357.966 152.533)" style="fill:#9edbf8" d="M0 0h501.066v1.121H0z"/>
        <path data-name="사각형 626" transform="rotate(-45 357.966 152.533)" style="stroke:#9edbf8;stroke-miterlimit:10;stroke-width:2px;fill:none" d="M0 0h501.066v1.121H0z"/>
        <path data-name="사각형 627" transform="rotate(-45 338.826 160.46)" style="fill:#9edbf8" d="M0 0h501.066v1.121H0z"/>
        <path data-name="사각형 628" transform="rotate(-45 338.826 160.46)" style="stroke:#9edbf8;stroke-miterlimit:10;stroke-width:2px;fill:none" d="M0 0h501.066v1.121H0z"/>
        <path data-name="사각형 629" transform="rotate(-45 319.685 168.388)" style="fill:#9edbf8" d="M0 0h501.066v1.121H0z"/>
        <path data-name="사각형 630" transform="rotate(-45 319.685 168.388)" style="stroke:#9edbf8;stroke-miterlimit:10;stroke-width:2px;fill:none" d="M0 0h501.066v1.121H0z"/>
        <path data-name="사각형 631" transform="rotate(-45 300.545 176.316)" style="fill:#9edbf8" d="M0 0h501.066v1.121H0z"/>
        <path data-name="사각형 632" transform="rotate(-45 300.545 176.316)" style="stroke:#9edbf8;stroke-miterlimit:10;stroke-width:2px;fill:none" d="M0 0h501.066v1.121H0z"/>
        <path data-name="사각형 633" transform="rotate(-45 281.404 184.246)" style="fill:#9edbf8" d="M0 0h501.066v1.121H0z"/>
        <path data-name="사각형 634" transform="rotate(-45 281.404 184.246)" style="stroke:#9edbf8;stroke-miterlimit:10;stroke-width:2px;fill:none" d="M0 0h501.066v1.121H0z"/>
        <path data-name="사각형 635" transform="rotate(-45 262.264 192.174)" style="fill:#9edbf8" d="M0 0h501.066v1.121H0z"/>
        <path data-name="사각형 636" transform="rotate(-45 262.264 192.174)" style="stroke:#9edbf8;stroke-miterlimit:10;stroke-width:2px;fill:none" d="M0 0h501.066v1.121H0z"/>
        <path data-name="사각형 637" transform="rotate(-45 243.123 200.101)" style="fill:#9edbf8" d="M0 0h501.066v1.121H0z"/>
        <path data-name="사각형 638" transform="rotate(-45 243.123 200.101)" style="stroke:#9edbf8;stroke-miterlimit:10;stroke-width:2px;fill:none" d="M0 0h501.066v1.121H0z"/>
        <path data-name="사각형 639" transform="rotate(-45 223.982 208.03)" style="fill:#9edbf8" d="M0 0h501.066v1.121H0z"/>
        <path data-name="사각형 640" transform="rotate(-45 223.982 208.03)" style="stroke:#9edbf8;stroke-miterlimit:10;stroke-width:2px;fill:none" d="M0 0h501.066v1.121H0z"/>
        <path data-name="사각형 641" transform="rotate(-45 204.842 215.959)" style="fill:#9edbf8" d="M0 0h501.066v1.121H0z"/>
        <path data-name="사각형 642" transform="rotate(-45 204.842 215.959)" style="stroke:#9edbf8;stroke-miterlimit:10;stroke-width:2px;fill:none" d="M0 0h501.066v1.121H0z"/>
        <path data-name="사각형 643" transform="rotate(-45 185.702 223.887)" style="fill:#9edbf8" d="M0 0h501.066v1.121H0z"/>
        <path data-name="사각형 644" transform="rotate(-45 185.702 223.887)" style="stroke:#9edbf8;stroke-miterlimit:10;stroke-width:2px;fill:none" d="M0 0h501.066v1.121H0z"/>
        <path data-name="사각형 645" transform="rotate(-45 166.56 231.814)" style="fill:#9edbf8" d="M0 0h501.066v1.121H0z"/>
        <path data-name="사각형 646" transform="rotate(-45 166.56 231.814)" style="stroke:#9edbf8;stroke-miterlimit:10;stroke-width:2px;fill:none" d="M0 0h501.066v1.121H0z"/>
        <path data-name="사각형 647" transform="rotate(-45 147.42 239.744)" style="fill:#9edbf8" d="M0 0h501.066v1.121H0z"/>
        <path data-name="사각형 648" transform="rotate(-45 147.42 239.744)" style="stroke:#9edbf8;stroke-miterlimit:10;stroke-width:2px;fill:none" d="M0 0h501.066v1.121H0z"/>
        <path data-name="사각형 649" transform="rotate(-45 128.28 247.672)" style="fill:#9edbf8" d="M0 0h501.066v1.121H0z"/>
        <path data-name="사각형 650" transform="rotate(-45 128.28 247.672)" style="stroke:#9edbf8;stroke-miterlimit:10;stroke-width:2px;fill:none" d="M0 0h501.066v1.121H0z"/>
        <path data-name="사각형 651" transform="rotate(-45 386.677 140.64)" style="fill:#9edbf8" d="M0 0h501.066v1.121H0z"/>
        <path data-name="사각형 652" transform="rotate(-45 386.677 140.64)" style="stroke:#9edbf8;stroke-miterlimit:10;stroke-width:2px;fill:none" d="M0 0h501.066v1.121H0z"/>
        <path data-name="사각형 653" transform="rotate(-45 367.536 148.569)" style="fill:#9edbf8" d="M0 0h501.066v1.121H0z"/>
        <path data-name="사각형 654" transform="rotate(-45 367.536 148.569)" style="stroke:#9edbf8;stroke-miterlimit:10;stroke-width:2px;fill:none" d="M0 0h501.066v1.121H0z"/>
        <path data-name="사각형 655" transform="rotate(-45 348.396 156.497)" style="fill:#9edbf8" d="M0 0h501.066v1.121H0z"/>
        <path data-name="사각형 656" transform="rotate(-45 348.396 156.497)" style="stroke:#9edbf8;stroke-miterlimit:10;stroke-width:2px;fill:none" d="M0 0h501.066v1.121H0z"/>
        <path data-name="사각형 657" transform="rotate(-45 329.256 164.425)" style="fill:#9edbf8" d="M0 0h501.066v1.121H0z"/>
        <path data-name="사각형 658" transform="rotate(-45 329.256 164.425)" style="stroke:#9edbf8;stroke-miterlimit:10;stroke-width:2px;fill:none" d="M0 0h501.066v1.121H0z"/>
        <path data-name="사각형 659" transform="rotate(-45 310.115 172.352)" style="fill:#9edbf8" d="M0 0h501.066v1.121H0z"/>
        <path data-name="사각형 660" transform="rotate(-45 310.115 172.352)" style="stroke:#9edbf8;stroke-miterlimit:10;stroke-width:2px;fill:none" d="M0 0h501.066v1.121H0z"/>
        <path data-name="사각형 661" transform="rotate(-45 290.974 180.282)" style="fill:#9edbf8" d="M0 0h501.066v1.121H0z"/>
        <path data-name="사각형 662" transform="rotate(-45 290.974 180.282)" style="stroke:#9edbf8;stroke-miterlimit:10;stroke-width:2px;fill:none" d="M0 0h501.066v1.121H0z"/>
        <path data-name="사각형 663" transform="rotate(-45 271.834 188.21)" style="fill:#9edbf8" d="M0 0h501.066v1.121H0z"/>
        <path data-name="사각형 664" transform="rotate(-45 271.834 188.21)" style="stroke:#9edbf8;stroke-miterlimit:10;stroke-width:2px;fill:none" d="M0 0h501.066v1.121H0z"/>
        <path data-name="사각형 665" transform="rotate(-45 252.694 196.138)" style="fill:#9edbf8" d="M0 0h501.066v1.121H0z"/>
        <path data-name="사각형 666" transform="rotate(-45 252.694 196.138)" style="stroke:#9edbf8;stroke-miterlimit:10;stroke-width:2px;fill:none" d="M0 0h501.066v1.121H0z"/>
        <path data-name="사각형 667" transform="rotate(-45 233.553 204.065)" style="fill:#9edbf8" d="M0 0h501.066v1.121H0z"/>
        <path data-name="사각형 668" transform="rotate(-45 233.553 204.065)" style="stroke:#9edbf8;stroke-miterlimit:10;stroke-width:2px;fill:none" d="M0 0h501.066v1.121H0z"/>
        <path data-name="사각형 669" transform="rotate(-45 214.412 211.995)" style="fill:#9edbf8" d="M0 0h501.066v1.121H0z"/>
        <path data-name="사각형 670" transform="rotate(-45 214.412 211.995)" style="stroke:#9edbf8;stroke-miterlimit:10;stroke-width:2px;fill:none" d="M0 0h501.066v1.121H0z"/>
        <path data-name="사각형 671" transform="rotate(-45 195.272 219.923)" style="fill:#9edbf8" d="M0 0h501.066v1.121H0z"/>
        <path data-name="사각형 672" transform="rotate(-45 195.272 219.923)" style="stroke:#9edbf8;stroke-miterlimit:10;stroke-width:2px;fill:none" d="M0 0h501.066v1.121H0z"/>
        <path data-name="사각형 673" transform="rotate(-45 176.132 227.85)" style="fill:#9edbf8" d="M0 0h501.066v1.121H0z"/>
        <path data-name="사각형 674" transform="rotate(-45 176.132 227.85)" style="stroke:#9edbf8;stroke-miterlimit:10;stroke-width:2px;fill:none" d="M0 0h501.066v1.121H0z"/>
        <path data-name="사각형 675" transform="rotate(-45 156.99 235.78)" style="fill:#9edbf8" d="M0 0h501.066v1.121H0z"/>
        <path data-name="사각형 676" transform="rotate(-45 156.99 235.78)" style="stroke:#9edbf8;stroke-miterlimit:10;stroke-width:2px;fill:none" d="M0 0h501.066v1.121H0z"/>
        <path data-name="사각형 677" transform="rotate(-45 137.85 243.708)" style="fill:#9edbf8" d="M0 0h501.066v1.121H0z"/>
        <path data-name="사각형 678" transform="rotate(-45 137.85 243.708)" style="stroke:#9edbf8;stroke-miterlimit:10;stroke-width:2px;fill:none" d="M0 0h501.066v1.121H0z"/>
        <path data-name="사각형 679" transform="rotate(-45 118.71 251.636)" style="fill:#9edbf8" d="M0 0h501.066v1.121H0z"/>
        <g data-name="그룹 17930">
            <g data-name="그룹 17929" style="clip-path:url(#jhfh0523ob)" transform="translate(-144.5 -198)">
                <path data-name="사각형 680" transform="rotate(-45 429.967 176.209)" style="stroke:#9edbf8;stroke-miterlimit:10;stroke-width:2px;fill:none" d="M0 0h501.066v1.121H0z"/>
            </g>
        </g>
    </g>
    <g data-name="그룹 17962" transform="translate(35 58.667)" style="clip-path:url(#7ypxqlrmyc)">
        <path data-name="패스 26777" d="m10 39.082 26.619 26.682L92.243 10" transform="translate(-1.121 -1.265)" style="stroke:#fff;stroke-linecap:round;stroke-linejoin:round;stroke-width:20px;fill:none"/>
    </g>
</svg>
