<svg xmlns="http://www.w3.org/2000/svg" width="80" height="30" viewBox="0 0 80 30">
    <defs>
        <clipPath id="2obb3xq8oa">
            <path data-name="사각형 1218" style="fill:none" d="M0 0h73.469v23.375H0z"/>
        </clipPath>
    </defs>
    <g data-name="그룹 3648">
        <path data-name="패스 3762" d="M12.547.313 6.75 7.8l-2.063 2.825V.313H0v22.75h4.687v-6.5l2.438-2.625 5.844 9.125h5.578l-8.312-12.64L18.312.313z" style="fill:#111" transform="translate(3 3)"/>
        <path data-name="패스 3763" d="M20.312.313v22.75h15.251V19.3H25v-6.1h9V9.531h-9V4.11h10.531V.313z" style="fill:#111" transform="translate(3 3)"/>
        <path data-name="사각형 1216" transform="translate(41.609 3.313)" style="fill:#111" d="M0 0h4.688v22.75H0z"/>
        <path data-name="사각형 1217" transform="translate(50.938 3.313)" style="fill:#111" d="M0 0h4.687v22.75H0z"/>
        <g data-name="그룹 3647">
            <g data-name="그룹 3646" style="clip-path:url(#2obb3xq8oa)" transform="translate(3 3)">
                <path data-name="패스 3764" d="M68.766 17.094a2.407 2.407 0 0 0-.937-2.039 12.309 12.309 0 0 0-3.375-1.5A23.749 23.749 0 0 1 60.594 12q-3.876-2.093-3.875-5.64a5.491 5.491 0 0 1 1.039-3.289A6.787 6.787 0 0 1 60.743.813 11.24 11.24 0 0 1 65.11 0a10.23 10.23 0 0 1 4.343.883 6.924 6.924 0 0 1 2.961 2.492 6.515 6.515 0 0 1 1.055 3.656h-4.687A3.065 3.065 0 0 0 67.8 4.6a4.046 4.046 0 0 0-2.765-.867 4.323 4.323 0 0 0-2.672.726 2.292 2.292 0 0 0-.953 1.914 2.195 2.195 0 0 0 1.117 1.86 12.626 12.626 0 0 0 3.289 1.406 14.234 14.234 0 0 1 5.828 2.984 5.944 5.944 0 0 1 1.828 4.438 5.478 5.478 0 0 1-2.237 4.639 9.782 9.782 0 0 1-6.016 1.679 11.608 11.608 0 0 1-4.781-.961 7.553 7.553 0 0 1-3.289-2.632 6.739 6.739 0 0 1-1.133-3.875h4.7q0 3.765 4.5 3.765a4.375 4.375 0 0 0 2.61-.68 2.211 2.211 0 0 0 .937-1.9" style="fill:#111"/>
            </g>
        </g>
    </g>
</svg>
