<svg xmlns="http://www.w3.org/2000/svg" width="260" height="260" viewBox="0 0 260 260">
    <defs>
        <clipPath id="trpaljl9ha">
            <path d="M0 0h260v236a24 24 0 0 1-24 24H0V0z" transform="translate(430 1004)" style="fill:#fff"/>
        </clipPath>
        <clipPath id="e6pzqfzihb">
            <path data-name="사각형 1225" style="fill:none" d="M0 0h334v347.949H0z"/>
        </clipPath>
    </defs>
    <g style="clip-path:url(#trpaljl9ha)">
        <g style="opacity:.1" transform="translate(-430 -1004)">
            <g data-name="그룹 18037" style="clip-path:url(#e6pzqfzihb)" transform="translate(470 1034)">
                <path data-name="패스 64347" d="M220.062 145.255h96.943V334.9a10.053 10.053 0 0 1-10.051 10.051H27.044A10.05 10.05 0 0 1 17 334.9V145.255h96.459" style="stroke:#fff;stroke-linecap:round;stroke-linejoin:round;stroke-width:6px;fill:none"/>
                <path data-name="패스 64348" d="M186.977 72.424h94.467a17.991 17.991 0 0 1 15.888 9.545L331 145.255H219.7" style="stroke:#fff;stroke-linecap:round;stroke-linejoin:round;stroke-width:6px;fill:none"/>
                <path data-name="패스 64349" d="M114.2 145.255H3l33.667-63.286a17.992 17.992 0 0 1 15.888-9.545h94.468" style="stroke:#fff;stroke-linecap:round;stroke-linejoin:round;stroke-width:6px;fill:none"/>
                <path data-name="패스 64350" d="M235.71 123.966H98.29L167 53.756z" style="stroke:#fff;stroke-linecap:round;stroke-linejoin:round;stroke-width:6px;fill:none"/>
                <path data-name="패스 64351" d="M270.269 344.949H63.731V327.9a4.683 4.683 0 0 1 4.688-4.685h197.163a4.683 4.683 0 0 1 4.687 4.685z" style="stroke:#fff;stroke-linecap:round;stroke-linejoin:round;stroke-width:6px;fill:none"/>
                <path data-name="패스 64352" d="M249.986 323.214H84.015v-17.05a4.688 4.688 0 0 1 4.687-4.69H245.3a4.689 4.689 0 0 1 4.689 4.69z" style="stroke:#fff;stroke-linecap:round;stroke-linejoin:round;stroke-width:6px;fill:none"/>
                <path data-name="사각형 1223" transform="translate(114.339 123.966)" style="stroke:#fff;stroke-linecap:round;stroke-linejoin:round;stroke-width:6px;fill:none" d="M0 0h105.323v177.508H0z"/>
                <path data-name="패스 64353" d="M243.6 35.743H167V3h76.6l-23.938 16.369z" style="stroke:#fff;stroke-linecap:round;stroke-linejoin:round;stroke-width:6px;fill:none"/>
                <path data-name="패스 64354" d="M90.349 230.141H38.2v-46.732a5.416 5.416 0 0 1 5.417-5.416H84.93a5.417 5.417 0 0 1 5.419 5.416z" style="stroke:#fff;stroke-linecap:round;stroke-linejoin:round;stroke-width:6px;fill:none"/>
                <path data-name="패스 64355" d="M243.651 230.141H295.8v-46.732a5.416 5.416 0 0 0-5.416-5.416h-41.315a5.417 5.417 0 0 0-5.418 5.416z" style="stroke:#fff;stroke-linecap:round;stroke-linejoin:round;stroke-width:6px;fill:none"/>
                <path data-name="선 109" transform="translate(27.884 230.577)" style="stroke:#fff;stroke-linecap:round;stroke-linejoin:round;stroke-width:6px;fill:none" d="M0 0h72.778"/>
                <path data-name="선 110" transform="translate(233.339 230.577)" style="stroke:#fff;stroke-linecap:round;stroke-linejoin:round;stroke-width:6px;fill:none" d="M72.776 0H0"/>
                <path data-name="패스 64356" d="M199.344 173.975A32.344 32.344 0 1 1 167 141.633a32.347 32.347 0 0 1 32.344 32.342z" style="stroke:#fff;stroke-linecap:round;stroke-linejoin:round;stroke-width:6px;fill:none"/>
                <path data-name="사각형 1224" transform="translate(145.115 242.512)" style="stroke:#fff;stroke-linecap:round;stroke-linejoin:round;stroke-width:6px;fill:none" d="M0 0h43.77v58.962H0z"/>
                <path data-name="선 111" transform="translate(167 3.14)" style="stroke:#fff;stroke-linecap:round;stroke-linejoin:round;stroke-width:6px;fill:none" d="M0 51.37V0"/>
                <path data-name="선 112" transform="translate(167.007 173.977)" style="stroke:#fff;stroke-linecap:round;stroke-linejoin:round;stroke-width:6px;fill:none" d="M0 0h15.646"/>
                <path data-name="선 113" transform="translate(64.273 181.236)" style="stroke:#fff;stroke-linecap:round;stroke-linejoin:round;stroke-width:6px;fill:none" d="M0 45.662V0"/>
                <path data-name="선 114" transform="translate(41.442 204.067)" style="stroke:#fff;stroke-linecap:round;stroke-linejoin:round;stroke-width:6px;fill:none" d="M45.662 0H0"/>
                <path data-name="선 115" transform="translate(269.727 181.236)" style="stroke:#fff;stroke-linecap:round;stroke-linejoin:round;stroke-width:6px;fill:none" d="M0 45.662V0"/>
                <path data-name="선 116" transform="translate(246.896 204.067)" style="stroke:#fff;stroke-linecap:round;stroke-linejoin:round;stroke-width:6px;fill:none" d="M45.662 0H0"/>
                <path data-name="선 117" transform="translate(167 156.87)" style="stroke:#fff;stroke-linecap:round;stroke-linejoin:round;stroke-width:6px;fill:none" d="M0 0v17.123"/>
            </g>
        </g>
    </g>
</svg>
