<svg xmlns="http://www.w3.org/2000/svg" width="218.994" height="248" viewBox="0 0 218.994 248">
    <defs>
        <clipPath id="7ikw618pda">
            <path data-name="사각형 16292" style="fill:none" d="M0 0h38v44H0z"/>
        </clipPath>
    </defs>
    <g transform="translate(-258 -1285)">
        <rect width="140" height="3" rx="1.5" transform="rotate(90 -505.25 813.25)" style="fill:#aaa"/>
        <g transform="translate(-183 423)">
            <circle cx="48" cy="48" r="48" transform="translate(441 1014)" style="fill:#aaa"/>
            <circle cx="42" cy="42" r="42" transform="translate(447 1020)" style="fill:#fff"/>
            <g data-name="그룹 18097" style="clip-path:url(#7ikw618pda)" transform="translate(470 1039)">
                <path data-name="패스 74084" d="M26.394 2.984h7.561A3.084 3.084 0 0 1 37 6.107v33.77A3.084 3.084 0 0 1 33.955 43H4.046A3.085 3.085 0 0 1 1 39.877V6.107a3.085 3.085 0 0 1 3.046-3.123h6.561" style="stroke-width:2px;stroke-miterlimit:10;stroke:#aaa;fill:none"/>
                <path data-name="패스 74085" d="M24.229 5.685H13.887c-1.654 0-3-1.616-3-3.609A1 1 0 0 1 11.785 1h14.546a1 1 0 0 1 .894 1.076c0 1.993-1.342 3.609-2.996 3.609z" style="stroke-linecap:round;stroke-width:2px;stroke-miterlimit:10;stroke:#aaa;fill:none"/>
                <path data-name="선 226" transform="translate(7 12.607)" style="stroke-linecap:round;stroke-width:2px;stroke-miterlimit:10;stroke:#aaa;fill:none" d="M0 0h24"/>
                <path data-name="선 227" transform="translate(7 16.618)" style="stroke-linecap:round;stroke-width:2px;stroke-miterlimit:10;stroke:#aaa;fill:none" d="M0 0h14.658"/>
                <path data-name="선 228" transform="translate(7 30.292)" style="stroke-linecap:round;stroke-width:2px;stroke-miterlimit:10;stroke:#aaa;fill:none" d="M0 0h8"/>
                <circle data-name="타원 504" cx="5" cy="5" r="5" transform="translate(21 21.958)" style="stroke-linecap:round;stroke-width:2px;stroke-miterlimit:10;stroke:#aaa;fill:none"/>
                <path data-name="패스 74086" d="M28.5 31.613v5L26 34.848l-2.5 1.765v-5" style="stroke-linejoin:round;stroke-linecap:round;stroke-width:2px;stroke:#aaa;fill:none"/>
            </g>
        </g>
        <g transform="translate(296 1369)" style="stroke-width:5px;stroke:#aaa;fill:#fff">
            <circle cx="10.5" cy="10.5" r="10.5" style="stroke:none"/>
            <circle cx="10.5" cy="10.5" r="8" style="fill:none"/>
        </g>
        <path d="M171.631 20.876 152.507 40H0V8a8 8 0 0 1 8-8h144.507l19.124 19.125a1.237 1.237 0 0 1 0 1.751" transform="translate(305 1285)" style="fill:#aaa"/>
    </g>
</svg>
