<svg xmlns="http://www.w3.org/2000/svg" width="100" height="100" viewBox="0 0 100 100">
    <defs>
        <clipPath id="bzmpthgtqa">
            <path data-name="사각형 8" style="fill:none" d="M0 0h34v58H0z"/>
        </clipPath>
    </defs>
    <g transform="translate(-112 -137)">
        <circle cx="50" cy="50" r="50" transform="translate(112 137)" style="fill:#f2f2f2"/>
        <g data-name="그룹 8" style="clip-path:url(#bzmpthgtqa)" transform="translate(145 158)">
            <path data-name="사각형 7" d="M5.2 0h21.6A5.2 5.2 0 0 1 32 5.2v45.6a5.2 5.2 0 0 1-5.2 5.2H5.2A5.2 5.2 0 0 1 0 50.8V5.2A5.2 5.2 0 0 1 5.2 0z" transform="translate(1 1)" style="stroke:#333;stroke-linecap:round;stroke-linejoin:round;stroke-width:2px;fill:none"/>
            <path data-name="선 4" transform="translate(12 5.5)" style="stroke:#333;stroke-linecap:round;stroke-linejoin:round;stroke-width:2px;fill:none" d="M0 0h10"/>
            <path data-name="패스 7" d="m7.667 27.9 6.042 6.048 12.625-12.641" style="stroke:#333;stroke-linecap:round;stroke-linejoin:round;stroke-width:2px;fill:none"/>
            <circle data-name="타원 5" cx="2.5" cy="2.5" r="2.5" transform="translate(14.5 47.4)" style="stroke:#333;stroke-linecap:round;stroke-linejoin:round;stroke-width:2px;fill:none"/>
        </g>
    </g>
</svg>
