<svg xmlns="http://www.w3.org/2000/svg" xmlns:xlink="http://www.w3.org/1999/xlink" width="180" height="180" viewBox="0 0 180 180">
  <defs>
    <clipPath id="clip-path">
      <rect id="사각형_5453" data-name="사각형 5453" width="175.5" height="161.145" fill="none"/>
    </clipPath>
  </defs>
  <g id="img_info_certifi_state_right" transform="translate(1 13.019)">
    <rect id="area" width="180" height="180" transform="translate(-1 -13.019)" fill="#fff" opacity="0.01"/>
    <g id="illust" transform="translate(1 -4.019)">
      <path id="패스_69921" data-name="패스 69921" d="M134.579.7l15.515,14.233V65.49H119.063V14.932Z" fill="#fff"/>
      <path id="패스_69922" data-name="패스 69922" d="M134.579,4.469,150.094,18.7V67.421H119.063V18.7Z" fill="#fff"/>
      <g id="그룹_18548" data-name="그룹 18548">
        <g id="그룹_18547" data-name="그룹 18547" clip-path="url(#clip-path)">
          <path id="패스_69923" data-name="패스 69923" d="M150.1,67.62H119.064a.2.2,0,0,1-.2-.2V18.7a.2.2,0,0,1,.064-.147L134.445,4.322a.2.2,0,0,1,.269,0L150.23,18.555a.2.2,0,0,1,.064.147V67.421a.2.2,0,0,1-.2.2" fill="#fff"/>
          <path id="패스_69924" data-name="패스 69924" d="M150.1,67.62H119.064a.2.2,0,0,1-.2-.2V18.7a.2.2,0,0,1,.064-.147L134.445,4.322a.2.2,0,0,1,.269,0L150.23,18.555a.2.2,0,0,1,.064.147V67.421A.2.2,0,0,1,150.1,67.62Z" fill="none" stroke="#555" stroke-linecap="round" stroke-linejoin="round" stroke-width="1"/>
          <path id="패스_69925" data-name="패스 69925" d="M117.866,15.843,134.444.553a.2.2,0,0,1,.27,0l16.5,15.21" fill="none" stroke="#555" stroke-linecap="round" stroke-linejoin="round" stroke-width="1"/>
          <rect id="사각형_5444" data-name="사각형 5444" width="9.11" height="12.889" transform="translate(130.024 15.989)" fill="#fff"/>
          <path id="패스_69926" data-name="패스 69926" d="M139.134,29.077h-9.11a.2.2,0,0,1-.2-.2V15.989a.2.2,0,0,1,.2-.2h9.11a.2.2,0,0,1,.2.2V28.878a.2.2,0,0,1-.2.2" fill="#fff"/>
          <rect id="사각형_5445" data-name="사각형 5445" width="9.508" height="13.287" rx="0.199" transform="translate(129.825 15.79)" fill="none" stroke="#555" stroke-linecap="round" stroke-linejoin="round" stroke-width="1"/>
          <rect id="사각형_5446" data-name="사각형 5446" width="22.669" height="33.408" transform="translate(95.968 34.013)" fill="#fff"/>
          <path id="패스_69927" data-name="패스 69927" d="M118.637,67.62H95.968a.2.2,0,0,1-.2-.2V34.013a.2.2,0,0,1,.2-.2h22.669a.2.2,0,0,1,.2.2V67.421a.2.2,0,0,1-.2.2" fill="#fff"/>
          <rect id="사각형_5447" data-name="사각형 5447" width="23.067" height="33.806" rx="0.199" transform="translate(95.769 33.814)" fill="none" stroke="#555" stroke-linecap="round" stroke-linejoin="round" stroke-width="1"/>
          <path id="패스_69928" data-name="패스 69928" d="M118.637,25.129H103.3L94.278,34.1h24.359Z" fill="#fff"/>
          <path id="패스_69929" data-name="패스 69929" d="M118.637,34.3H94.278a.2.2,0,0,1-.184-.123.2.2,0,0,1,.044-.217l9.022-8.976a.2.2,0,0,1,.14-.058h15.337a.2.2,0,0,1,.2.2V34.1a.2.2,0,0,1-.2.2" fill="#fff"/>
          <path id="패스_69930" data-name="패스 69930" d="M118.637,34.3H94.278a.2.2,0,0,1-.184-.123.2.2,0,0,1,.044-.217l9.022-8.976a.2.2,0,0,1,.14-.058h15.337a.2.2,0,0,1,.2.2V34.1A.2.2,0,0,1,118.637,34.3Z" fill="none" stroke="#555" stroke-linecap="round" stroke-linejoin="round" stroke-width="1"/>
          <path id="패스_69931" data-name="패스 69931" d="M113.894,58.248H100.778a.2.2,0,0,1-.2-.2v-19.2a.2.2,0,0,1,.2-.2h13.116a.2.2,0,0,1,.2.2v19.2a.2.2,0,0,1-.2.2" fill="#fff"/>
          <rect id="사각형_5448" data-name="사각형 5448" width="13.514" height="19.602" rx="0.199" transform="translate(100.579 38.646)" fill="none" stroke="#555" stroke-linecap="round" stroke-linejoin="round" stroke-width="1"/>
          <rect id="사각형_5449" data-name="사각형 5449" width="22.669" height="33.408" transform="translate(150.441 34.013)" fill="#fff"/>
          <path id="패스_69932" data-name="패스 69932" d="M173.111,67.62h-22.67a.2.2,0,0,1-.2-.2V34.013a.2.2,0,0,1,.2-.2h22.67a.2.2,0,0,1,.2.2V67.421a.2.2,0,0,1-.2.2" fill="#fff"/>
          <rect id="사각형_5450" data-name="사각형 5450" width="23.067" height="33.806" rx="0.199" transform="translate(150.242 33.814)" fill="none" stroke="#555" stroke-linecap="round" stroke-linejoin="round" stroke-width="1"/>
          <path id="패스_69933" data-name="패스 69933" d="M150.442,25.129h15.337L174.8,34.1H150.442Z" fill="#fff"/>
          <path id="패스_69934" data-name="패스 69934" d="M174.8,34.3H150.442a.2.2,0,0,1-.2-.2V25.128a.2.2,0,0,1,.2-.2h15.337a.2.2,0,0,1,.14.058l9.023,8.976a.2.2,0,0,1-.141.34" fill="#fff"/>
          <path id="패스_69935" data-name="패스 69935" d="M174.8,34.3H150.442a.2.2,0,0,1-.2-.2V25.128a.2.2,0,0,1,.2-.2h15.337a.2.2,0,0,1,.14.058l9.023,8.976a.2.2,0,0,1-.141.34Z" fill="none" stroke="#555" stroke-linecap="round" stroke-linejoin="round" stroke-width="1"/>
          <path id="패스_69936" data-name="패스 69936" d="M168.3,58.248H155.185a.2.2,0,0,1-.2-.2v-19.2a.2.2,0,0,1,.2-.2H168.3a.2.2,0,0,1,.2.2v19.2a.2.2,0,0,1-.2.2" fill="#fff"/>
          <rect id="사각형_5451" data-name="사각형 5451" width="13.514" height="19.602" rx="0.199" transform="translate(154.986 38.646)" fill="none" stroke="#555" stroke-linecap="round" stroke-linejoin="round" stroke-width="1"/>
          <path id="패스_69937" data-name="패스 69937" d="M126.561,57.679V38.845a.2.2,0,0,1,.2-.2h14.258" fill="#fff"/>
          <path id="패스_69938" data-name="패스 69938" d="M126.561,57.679V38.845a.2.2,0,0,1,.2-.2h14.258" fill="none" stroke="#555" stroke-linecap="round" stroke-linejoin="round" stroke-width="1"/>
          <path id="패스_69939" data-name="패스 69939" d="M41.1,71.977s-5.39,39.075,3.615,68.346l-4.193,4.239a.849.849,0,0,0,.608,1.446H59.314a3.164,3.164,0,0,0,3.118-3.749c-1.544-8.122-5.132-27.1-6.113-33.2l11.838,32.4L65.273,144.6a.85.85,0,0,0,.63,1.423H84.069a3.163,3.163,0,0,0,2.993-4.213C82.033,127.609,65.69,81.6,60.587,72.564Z" fill="#fff"/>
          <path id="패스_69940" data-name="패스 69940" d="M64.949,145.591a1.022,1.022,0,0,1,.184-1.117l2.807-3.066-11.1-30.373c1.3,7.549,4.406,23.979,5.776,31.189a3.352,3.352,0,0,1-3.3,3.973H41.132a1.038,1.038,0,0,1-.741-1.767l4.113-4.159c-4.629-15.121-5.362-32.865-5.159-45.1a216.04,216.04,0,0,1,1.571-23.219.189.189,0,0,1,.192-.162l19.484.587a.189.189,0,0,1,.159.1c3.434,6.08,12.594,30.035,26.488,69.275a3.351,3.351,0,0,1-3.171,4.464H65.9A1.028,1.028,0,0,1,64.949,145.591Z" fill="none" stroke="#555" stroke-linecap="round" stroke-linejoin="round" stroke-width="1"/>
          <path id="패스_69941" data-name="패스 69941" d="M68.14,141.639c.074.006,5.294.447,10.9.447,2.361,0,4.791-.078,6.936-.3" fill="none" stroke="#555" stroke-linecap="round" stroke-linejoin="round" stroke-width="1"/>
          <path id="패스_69942" data-name="패스 69942" d="M44.657,140.5c.04.013,3.6,1.164,12.424,1.164,1.287,0,2.686-.024,4.2-.081" fill="none" stroke="#555" stroke-linecap="round" stroke-linejoin="round" stroke-width="1"/>
          <path id="패스_69943" data-name="패스 69943" d="M56.5,109,48.372,84.351a3,3,0,0,0-2.161-1.967l-1.452-.333" fill="none" stroke="#555" stroke-linecap="round" stroke-linejoin="round" stroke-width="1"/>
          <path id="패스_69944" data-name="패스 69944" d="M63.607,80.632H42.6V51.018a5.565,5.565,0,0,1,5.565-5.565H63.607a5.565,5.565,0,0,1,5.565,5.565V75.067a5.566,5.566,0,0,1-5.565,5.565" fill="#eaa35e"/>
          <path id="패스_69945" data-name="패스 69945" d="M65.75,46.981a6.148,6.148,0,0,0-6.153,6.13v25.8" fill="none" stroke="#555" stroke-linecap="round" stroke-linejoin="round" stroke-width="1"/>
          <path id="패스_69946" data-name="패스 69946" d="M39.506,83.438H66.258s-3.376-9.15-3.5-9.077,6.132-2.779,3.5-12.5S56.4,46.871,45.9,46.708a26.924,26.924,0,0,0-13.917,2.114,26.517,26.517,0,0,0-8.221,5.755l-11.152-7.2L8.193,55.447A26.141,26.141,0,0,0,32.565,65.912l6.941,17.526" fill="#bd56a0"/>
          <path id="패스_69947" data-name="패스 69947" d="M50.637,68.252l5.832,5.694a5.114,5.114,0,0,0,6.4.577" fill="none" stroke="#555" stroke-linecap="round" stroke-linejoin="round" stroke-width="1"/>
          <line id="선_665" data-name="선 665" x1="5.602" y1="5.399" transform="translate(56.171 58.91)" fill="none" stroke="#555" stroke-linecap="round" stroke-linejoin="round" stroke-width="1"/>
          <path id="패스_69948" data-name="패스 69948" d="M50.073,60.276s-.178-9.824,3.472-13.165l-2.633-.341a2.108,2.108,0,0,0-2.131,1.1c-.994,1.861-2.57,5.893-2.685,12.892Z" fill="#eaa35e"/>
          <path id="패스_69949" data-name="패스 69949" d="M55.612,58.545s-3.085,6.993-4.844,8.9L48.022,65.24s-4.778-1.759-2.389-3.495c0,0-1.823-1.469-.084-2.415,0,0-1.041-1.566.532-1.9,0,0-.84-1.733,1.576-1.733s7.955,2.852,7.955,2.852" fill="#fff"/>
          <path id="패스_69950" data-name="패스 69950" d="M50.339,56.075a9.24,9.24,0,0,0-2.682-.571,2.608,2.608,0,0,0-1.365.3" fill="#fff"/>
          <path id="패스_69951" data-name="패스 69951" d="M50.339,56.075a9.24,9.24,0,0,0-2.682-.571,2.608,2.608,0,0,0-1.365.3" fill="none" stroke="#555" stroke-linecap="round" stroke-linejoin="round" stroke-width="1"/>
          <path id="패스_69952" data-name="패스 69952" d="M.661,42.349c.311-.5,2.833-2.1,10.6,4.156.41.329.807.643,1.2.948a11.143,11.143,0,0,1-4.253,7.769,29.053,29.053,0,0,0-5.775-6.2A1.466,1.466,0,0,1,1.812,47.1c-.692-.764.113-1.638.113-1.638-.616-1.092,1.619-1.242,1.619-1.242C3.365,43.368.35,42.846.661,42.349" fill="#fff"/>
          <path id="패스_69953" data-name="패스 69953" d="M12.358,47.14a40.288,40.288,0,0,0-6.366-4.4c-1.065-.537-3.281-1.655-4.916-.925-.259.116-.507.255-.564.491a.474.474,0,0,0,.118.419,2.582,2.582,0,0,0,1.355.671,2.261,2.261,0,0,1,1.272.638,2.081,2.081,0,0,0-1.558.69.392.392,0,0,0-.08.482.8.8,0,0,0,.125.177A1.361,1.361,0,0,0,1.6,47.2a.683.683,0,0,0-.14.377c0,1.008.844,1.593,1.521,2.062.129.09.255.177.372.264a34.7,34.7,0,0,1,3.881,4.384q.417.528.83,1.045" fill="#fff"/>
          <path id="패스_69954" data-name="패스 69954" d="M12.358,47.14a40.288,40.288,0,0,0-6.366-4.4c-1.065-.537-3.281-1.655-4.916-.925-.259.116-.507.255-.564.491a.474.474,0,0,0,.118.419,2.582,2.582,0,0,0,1.355.671,2.261,2.261,0,0,1,1.272.638,2.081,2.081,0,0,0-1.558.69.392.392,0,0,0-.08.482.8.8,0,0,0,.125.177A1.361,1.361,0,0,0,1.6,47.2a.683.683,0,0,0-.14.377c0,1.008.844,1.593,1.521,2.062.129.09.255.177.372.264a34.7,34.7,0,0,1,3.881,4.384q.417.528.83,1.045" fill="none" stroke="#555" stroke-linecap="round" stroke-linejoin="round" stroke-width="1"/>
          <path id="패스_69955" data-name="패스 69955" d="M7.2,45.594a8.863,8.863,0,0,0-2.054.2c-.566.124-.894.366-.975.719a.948.948,0,0,0,.413.919,3.258,3.258,0,0,0,1.706.512l.14.015a2.2,2.2,0,0,1,1.533.626" fill="#fff"/>
          <path id="패스_69956" data-name="패스 69956" d="M7.2,45.594a8.863,8.863,0,0,0-2.054.2c-.566.124-.894.366-.975.719a.948.948,0,0,0,.413.919,3.258,3.258,0,0,0,1.706.512l.14.015a2.2,2.2,0,0,1,1.533.626" fill="none" stroke="#555" stroke-linecap="round" stroke-linejoin="round" stroke-width="1"/>
          <path id="패스_69957" data-name="패스 69957" d="M2.086,45.927a2.885,2.885,0,0,0,2.171,1.082h0" fill="#fff"/>
          <path id="패스_69958" data-name="패스 69958" d="M2.086,45.927a2.885,2.885,0,0,0,2.171,1.082h0" fill="none" stroke="#555" stroke-linecap="round" stroke-linejoin="round" stroke-width="1"/>
          <line id="선_666" data-name="선 666" x2="1.219" y2="0.821" transform="translate(23.832 54.703)" fill="#fff"/>
          <line id="선_667" data-name="선 667" x2="1.219" y2="0.821" transform="translate(23.832 54.703)" fill="none" stroke="#555" stroke-linecap="round" stroke-linejoin="round" stroke-width="1"/>
          <path id="패스_69959" data-name="패스 69959" d="M39.314,43.23l1.68,4.442s-1.011,1.167,1.25,1.443,4.782-1.945,4.782-1.945L44.6,40.462Z" fill="#fff"/>
          <path id="패스_69960" data-name="패스 69960" d="M47.084,46.775,44.774,40.4a.189.189,0,0,0-.266-.1l-5.281,2.768a.188.188,0,0,0-.089.234l1.317,3.482" fill="#fff"/>
          <path id="패스_69961" data-name="패스 69961" d="M47.084,46.775,44.774,40.4a.189.189,0,0,0-.266-.1l-5.281,2.768a.188.188,0,0,0-.089.234l1.317,3.482" fill="none" stroke="#555" stroke-linecap="round" stroke-linejoin="round" stroke-width="1"/>
          <path id="패스_69962" data-name="패스 69962" d="M34.2,29.625c.939-2.286,3.745-3.51,6.223-3.555a7.452,7.452,0,0,1,5.8,2.658,3.5,3.5,0,0,1,2.6.9,3.1,3.1,0,0,1,0,3.874,1.627,1.627,0,0,1,1.746.286,2.393,2.393,0,0,1,.744,1.664,4.216,4.216,0,0,1-2.941,3.886,10.372,10.372,0,0,1-5.172.176,13.726,13.726,0,0,1-4.026-1.138A12.369,12.369,0,0,1,35.1,35.008a5.506,5.506,0,0,1-.9-5.383" fill="#555"/>
          <path id="패스_69963" data-name="패스 69963" d="M37.371,32.853s-5.029,7.629-.693,10.616,7.555-1.851,7.555-1.851a3.249,3.249,0,0,0,3.655-1.544c1.475-2.576-1.463-4.058-2.8-2.24,0,0-1.613,1.365-1.643.306s-.273-5.857-6.071-5.287" fill="#fff"/>
          <path id="패스_69964" data-name="패스 69964" d="M36.571,43.625c-4.437-3.057.433-10.558.643-10.875a.184.184,0,0,1,.139-.084A5.782,5.782,0,0,1,41.9,33.805a5.794,5.794,0,0,1,1.73,4.33c0,.067.014.183.072.209.189.083.791-.261,1.243-.639a2,2,0,0,1,2.7-.555c.774.5,1.2,1.631.4,3.018a3.424,3.424,0,0,1-3.737,1.662,6.959,6.959,0,0,1-3.936,2.721,4.507,4.507,0,0,1-.847.081A5.191,5.191,0,0,1,36.571,43.625Z" fill="none" stroke="#555" stroke-linecap="round" stroke-linejoin="round" stroke-width="1"/>
          <path id="패스_69965" data-name="패스 69965" d="M46.415,39.461a3.138,3.138,0,0,0-2.068.942" fill="#fff"/>
          <path id="패스_69966" data-name="패스 69966" d="M46.415,39.461a3.138,3.138,0,0,0-2.068.942" fill="none" stroke="#555" stroke-linecap="round" stroke-linejoin="round" stroke-width="1.5"/>
          <line id="선_668" data-name="선 668" x2="88.238" transform="translate(0.982 146.211)" fill="none" stroke="#555" stroke-linecap="round" stroke-linejoin="round" stroke-width="1"/>
          <path id="패스_69967" data-name="패스 69967" d="M126.128,141.138c.083.055,3.4,3.63,3.4,3.63s-.718,8.076-1.1,13.13a2.776,2.776,0,0,1-2.773,2.558H108.988a1,1,0,0,1-.763-1.661l2.471-2.85,2.837-13.125Z" fill="#fff"/>
          <path id="패스_69968" data-name="패스 69968" d="M107.9,159.947a1.178,1.178,0,0,1,.184-1.275l2.439-2.814,2.826-13.077a.188.188,0,0,1,.16-.147l12.595-1.682a.185.185,0,0,1,.129.03c.068.045,1.224,1.276,3.437,3.659a.188.188,0,0,1,.05.145c-.007.08-.722,8.132-1.1,13.127a2.978,2.978,0,0,1-2.961,2.732H108.988a1.184,1.184,0,0,1-1.089-.7" fill="#fff"/>
          <path id="패스_69969" data-name="패스 69969" d="M107.9,159.947a1.178,1.178,0,0,1,.184-1.275l2.439-2.814,2.826-13.077a.188.188,0,0,1,.16-.147l12.595-1.682a.185.185,0,0,1,.129.03c.068.045,1.224,1.276,3.437,3.659a.188.188,0,0,1,.05.145c-.007.08-.722,8.132-1.1,13.127a2.978,2.978,0,0,1-2.961,2.732H108.988A1.184,1.184,0,0,1,107.9,159.947Z" fill="none" stroke="#555" stroke-linecap="round" stroke-linejoin="round" stroke-width="1"/>
          <path id="패스_69970" data-name="패스 69970" d="M112.842,156.1a72.715,72.715,0,0,0,15.077-.034" fill="#fff"/>
          <path id="패스_69971" data-name="패스 69971" d="M112.842,156.1a72.715,72.715,0,0,0,15.077-.034" fill="none" stroke="#555" stroke-linecap="round" stroke-linejoin="round" stroke-width="1"/>
          <path id="패스_69972" data-name="패스 69972" d="M127.216,84.223s-13.714,1.259-16.965,3.292c0,0-18.113,24.914-20.071,28.43-2.452,4.4.522,14.132,3.748,24.631l17.251-6.491-4.767-11.758,10.7-17.286-4.276,38.537,17.507,1.19s2.336-35.236.808-53.45a9.956,9.956,0,0,0-3.205-6.564,3.042,3.042,0,0,0-.726-.531" fill="#4fabd3"/>
          <path id="패스_69973" data-name="패스 69973" d="M110.371,134.085s3.826,7.937,5.951,12.556a4.331,4.331,0,0,1-.264,4.107l-4.594,7.341a5.05,5.05,0,0,1-4.281,2.367h-7.82A1.531,1.531,0,0,1,98.135,158l3.586-4.741s-4.209-9.588-5.765-13.752Z" fill="#fff"/>
          <path id="패스_69974" data-name="패스 69974" d="M95.78,139.575c1.452,3.891,5.269,12.62,5.725,13.66l-3.521,4.653a1.72,1.72,0,0,0,1.38,2.757h7.819a5.207,5.207,0,0,0,4.441-2.456l4.593-7.342a4.5,4.5,0,0,0,.276-4.285c-2.1-4.568-5.914-12.479-5.953-12.559" fill="#fff"/>
          <path id="패스_69975" data-name="패스 69975" d="M95.78,139.575c1.452,3.891,5.269,12.62,5.725,13.66l-3.521,4.653a1.72,1.72,0,0,0,1.38,2.757h7.819a5.207,5.207,0,0,0,4.441-2.456l4.593-7.342a4.5,4.5,0,0,0,.276-4.285c-2.1-4.568-5.914-12.479-5.953-12.559" fill="none" stroke="#555" stroke-linecap="round" stroke-linejoin="round" stroke-width="1"/>
          <path id="패스_69976" data-name="패스 69976" d="M103.471,153.355h0a14.286,14.286,0,0,0,12.109-7.417" fill="#fff"/>
          <path id="패스_69977" data-name="패스 69977" d="M103.471,153.355h0a14.286,14.286,0,0,0,12.109-7.417" fill="none" stroke="#555" stroke-linecap="round" stroke-linejoin="round" stroke-width="1"/>
          <path id="패스_69978" data-name="패스 69978" d="M132.229,59.674a8.407,8.407,0,0,1,8.423,8.391v17.38a5.932,5.932,0,0,1-5.943,5.92H116.261V59.674Z" fill="#fff"/>
          <path id="패스_69979" data-name="패스 69979" d="M116.073,91.365V59.674a.189.189,0,0,1,.189-.189h15.967a8.606,8.606,0,0,1,8.612,8.58V85.444a6.127,6.127,0,0,1-6.131,6.11H116.262a.189.189,0,0,1-.189-.189" fill="#7069e0"/>
          <path id="패스_69980" data-name="패스 69980" d="M116.073,91.365V59.674a.189.189,0,0,1,.189-.189h15.967a8.606,8.606,0,0,1,8.612,8.58V85.444a6.127,6.127,0,0,1-6.131,6.11H116.262A.189.189,0,0,1,116.073,91.365Z" fill="none" stroke="#7069e0" stroke-linecap="round" stroke-linejoin="round" stroke-width="1.5"/>
          <path id="패스_69981" data-name="패스 69981" d="M138.8,67.6a6.129,6.129,0,0,0-6.134-6.111H121.75" fill="none" stroke="#555" stroke-linecap="round" stroke-linejoin="round" stroke-width="1"/>
          <path id="패스_69982" data-name="패스 69982" d="M130.18,88.046l2.256,7.29a1.048,1.048,0,0,1-1,1.355H103.284a1.313,1.313,0,0,1-1.315-1.31V86.319S96.916,82.9,97.418,74.831c.476-7.658,7.42-11.706,7.42-11.706a25.662,25.662,0,0,1,8.528-3.447V58.314a2.66,2.66,0,0,1,1.692-2.48,8.761,8.761,0,0,1,5.079-.274,2.672,2.672,0,0,1,2.1,2.74l-.071,1.38a19.621,19.621,0,0,1,7.368,3.421" fill="#fff"/>
          <path id="패스_69983" data-name="패스 69983" d="M130.18,88.046l2.256,7.29a1.048,1.048,0,0,1-1,1.355H103.284a1.313,1.313,0,0,1-1.315-1.31V86.319S96.916,82.9,97.418,74.831c.476-7.658,7.42-11.706,7.42-11.706a25.662,25.662,0,0,1,8.528-3.447V58.314a2.66,2.66,0,0,1,1.692-2.48,8.761,8.761,0,0,1,5.079-.274,2.672,2.672,0,0,1,2.1,2.74l-.071,1.38a19.621,19.621,0,0,1,7.368,3.421" fill="none" stroke="#555" stroke-linecap="round" stroke-linejoin="round" stroke-width="1"/>
          <path id="패스_69984" data-name="패스 69984" d="M127.487,59.674s-3.582,1.974-4.35,7.5h-3.573c.768-5.525,4.35-7.5,4.35-7.5Z" fill="#fff"/>
          <path id="패스_69985" data-name="패스 69985" d="M119.421,67.3a.19.19,0,0,1-.045-.15c.773-5.554,4.3-7.555,4.447-7.638a.192.192,0,0,1,.091-.023h3.573a.188.188,0,0,1,.091.353c-.035.02-3.51,2-4.255,7.36a.189.189,0,0,1-.187.163h-3.573a.19.19,0,0,1-.142-.065" fill="#7069e0"/>
          <path id="패스_69986" data-name="패스 69986" d="M119.421,67.3a.19.19,0,0,1-.045-.15c.773-5.554,4.3-7.555,4.447-7.638a.192.192,0,0,1,.091-.023h3.573a.188.188,0,0,1,.091.353c-.035.02-3.51,2-4.255,7.36a.189.189,0,0,1-.187.163h-3.573A.19.19,0,0,1,119.421,67.3Z" fill="none" stroke="#7069e0" stroke-linecap="round" stroke-linejoin="round" stroke-width="1.5"/>
          <rect id="사각형_5452" data-name="사각형 5452" width="19.71" height="27.983" transform="translate(104.198 65.745)" fill="#92b4ea"/>
          <path id="패스_69987" data-name="패스 69987" d="M102.263,86.346s5.058,6.333,16.428,3.4c9.109-2.346,0-.563,0-.563l-1.844-10.7-15.075-3.947Z" fill="#fff"/>
          <path id="패스_69988" data-name="패스 69988" d="M105.833,73.712a4.062,4.062,0,0,1,3.051.638c1.691,1.035,4.725,2.692,4.725,2.692L110.9,82.916l-6.706-3.08V80.7s-2.142-1.52-.84-2.756c0,0-.918-1.275.239-1.844a.9.9,0,0,1,.116-1.562s-.592-1.938,2.12-.83" fill="#fff"/>
          <path id="패스_69989" data-name="패스 69989" d="M110.826,83.088l-6.44-2.957V80.7a.189.189,0,0,1-.1.168.191.191,0,0,1-.2-.014,3.269,3.269,0,0,1-1.336-1.926,1.329,1.329,0,0,1,.366-1.008,1.767,1.767,0,0,1-.261-1.239,1.063,1.063,0,0,1,.442-.623,1.2,1.2,0,0,1-.308-.832,1.061,1.061,0,0,1,.508-.773,1.132,1.132,0,0,1,.25-1.039c.381-.346,1.068-.315,2.1.1a4.336,4.336,0,0,1,3.136.675c1.668,1.021,4.687,2.672,4.717,2.688a.188.188,0,0,1,.081.244L111.076,83a.189.189,0,0,1-.172.109.177.177,0,0,1-.078-.017" fill="#fff"/>
          <path id="패스_69990" data-name="패스 69990" d="M110.826,83.088l-6.44-2.957V80.7a.189.189,0,0,1-.1.168.191.191,0,0,1-.2-.014,3.269,3.269,0,0,1-1.336-1.926,1.329,1.329,0,0,1,.366-1.008,1.767,1.767,0,0,1-.261-1.239,1.063,1.063,0,0,1,.442-.623,1.2,1.2,0,0,1-.308-.832,1.061,1.061,0,0,1,.508-.773,1.132,1.132,0,0,1,.25-1.039c.381-.346,1.068-.315,2.1.1a4.336,4.336,0,0,1,3.136.675c1.668,1.021,4.687,2.672,4.717,2.688a.188.188,0,0,1,.081.244L111.076,83a.189.189,0,0,1-.172.109A.177.177,0,0,1,110.826,83.088Z" fill="none" stroke="#555" stroke-linecap="round" stroke-linejoin="round" stroke-width="1"/>
          <line id="선_669" data-name="선 669" x1="2.38" y1="1.161" transform="translate(105.916 73.543)" fill="#fff"/>
          <line id="선_670" data-name="선 670" x1="2.38" y1="1.161" transform="translate(105.916 73.543)" fill="none" stroke="#555" stroke-linecap="round" stroke-linejoin="round" stroke-width="1"/>
          <path id="패스_69991" data-name="패스 69991" d="M112.8,77.321a14.327,14.327,0,0,0-2.485,5.214,3.516,3.516,0,0,0,.826,3.014c2.435,2.766,9.192,9.242,17.067,6.442s10.327-9.175,8.528-16.783c-1.523-6.439-7.208-12.106-7.208-12.106l-6.538,16.914-6.8-3.5a2.673,2.673,0,0,0-3.392.807" fill="#fff"/>
          <path id="패스_69992" data-name="패스 69992" d="M112.648,77.211a14.6,14.6,0,0,0-2.517,5.287A3.722,3.722,0,0,0,111,85.674c2.106,2.391,7.105,7.2,13.261,7.2a11.894,11.894,0,0,0,4.012-.7c3.858-1.372,6.551-3.621,8-6.687a17.436,17.436,0,0,0,.832-11c-1.517-6.417-7.521-11.325-7.579-11.382" fill="#fff"/>
          <path id="패스_69993" data-name="패스 69993" d="M112.648,77.211a14.6,14.6,0,0,0-2.517,5.287A3.722,3.722,0,0,0,111,85.674c2.106,2.391,7.105,7.2,13.261,7.2a11.894,11.894,0,0,0,4.012-.7c3.858-1.372,6.551-3.621,8-6.687a17.436,17.436,0,0,0,.832-11c-1.517-6.417-7.521-11.325-7.579-11.382" fill="none" stroke="#555" stroke-linecap="round" stroke-linejoin="round" stroke-width="1"/>
          <line id="선_671" data-name="선 671" x1="4.818" y1="2.212" transform="translate(123.07 79.844)" fill="#fff"/>
          <line id="선_672" data-name="선 672" x1="4.818" y1="2.212" transform="translate(123.07 79.844)" fill="none" stroke="#555" stroke-linecap="round" stroke-linejoin="round" stroke-width="1"/>
          <path id="패스_69994" data-name="패스 69994" d="M101.845,86.219c.333.291.674.583,1.012.867s.669.556,1,.822" fill="#fff"/>
          <path id="패스_69995" data-name="패스 69995" d="M101.845,86.219c.333.291.674.583,1.012.867s.669.556,1,.822" fill="none" stroke="#555" stroke-linecap="round" stroke-linejoin="round" stroke-width="1"/>
          <path id="패스_69996" data-name="패스 69996" d="M120.308,51.442l.08,5.734s-1.525,2.333-5.556.387l-.16-4.665s2.411-3.031,5.636-1.456" fill="#fff"/>
          <path id="패스_69997" data-name="패스 69997" d="M114.948,55.643l-.109-2.087c0-.039.011-.975.036-1.006a4.883,4.883,0,0,1,5.182-.435.165.165,0,0,1,.094.147l.071,5.065" fill="#fff"/>
          <path id="패스_69998" data-name="패스 69998" d="M114.948,55.643l-.109-2.087c0-.039.011-.975.036-1.006a4.883,4.883,0,0,1,5.182-.435.165.165,0,0,1,.094.147l.071,5.065" fill="none" stroke="#555" stroke-linecap="round" stroke-linejoin="round" stroke-width="1"/>
          <path id="패스_69999" data-name="패스 69999" d="M109.132,47.048a2.843,2.843,0,0,1-2.062-2,3.36,3.36,0,0,1,.575-2.854,4.182,4.182,0,0,1,2.516-1.549,27.052,27.052,0,0,0,2.784-.385c.653-.206,1.232-.6,1.871-.844a5.7,5.7,0,0,1,3.7,0,7.8,7.8,0,0,1,5.135,9.79,5.349,5.349,0,0,1-2.137,2.982,6.315,6.315,0,0,1-3.606.744,9.4,9.4,0,0,1-4.847-1.405,4.515,4.515,0,0,1-1.593-1.568,8.436,8.436,0,0,1-.382-1.571c-.3-1.1-.97-1.123-1.957-1.337" fill="#555"/>
          <path id="패스_70000" data-name="패스 70000" d="M118.41,51.919s-.524,4.448-4.306,4.091-4.072-4.408-3.164-8.468l5.082-.158s-.2,2.325,1.03,2.537c.306.053.8.017.885-.343.285-1.161,2-2.127,2.775-.527,1.006,2.07-1.139,2.991-2.3,2.868" fill="#fff"/>
          <path id="패스_70001" data-name="패스 70001" d="M113.969,56.882a4.05,4.05,0,0,1-3.048-1.618c-1.458-2.005-1.11-5.352-.561-7.806a.2.2,0,0,1,.194-.16l5.506-.171a.225.225,0,0,1,.155.064.2.2,0,0,1,.055.157c-.054.649.011,2.369.947,2.531.25.043.668.022.727-.219a2.232,2.232,0,0,1,1.794-1.631,1.545,1.545,0,0,1,1.6,1.019,2.129,2.129,0,0,1-.041,2.281,3.046,3.046,0,0,1-2.465,1.132c-.158.875-1.011,4.445-4.379,4.444-.154,0-.314-.007-.479-.023" fill="#fff"/>
          <path id="패스_70002" data-name="패스 70002" d="M113.969,56.882a4.05,4.05,0,0,1-3.048-1.618c-1.458-2.005-1.11-5.352-.561-7.806a.2.2,0,0,1,.194-.16l5.506-.171a.225.225,0,0,1,.155.064.2.2,0,0,1,.055.157c-.054.649.011,2.369.947,2.531.25.043.668.022.727-.219a2.232,2.232,0,0,1,1.794-1.631,1.545,1.545,0,0,1,1.6,1.019,2.129,2.129,0,0,1-.041,2.281,3.046,3.046,0,0,1-2.465,1.132c-.158.875-1.011,4.445-4.379,4.444C114.294,56.9,114.134,56.9,113.969,56.882Z" fill="none" stroke="#555" stroke-linecap="round" stroke-linejoin="round" stroke-width="1"/>
          <path id="패스_70003" data-name="패스 70003" d="M119.681,50.054a2.064,2.064,0,0,0-1.212,1.131" fill="#fff"/>
          <path id="패스_70004" data-name="패스 70004" d="M119.681,50.054a2.064,2.064,0,0,0-1.212,1.131" fill="none" stroke="#555" stroke-linecap="round" stroke-linejoin="round" stroke-width="1.5"/>
          <line id="선_673" data-name="선 673" x2="60.232" transform="translate(90.093 160.645)" fill="#fff"/>
          <line id="선_674" data-name="선 674" x2="60.232" transform="translate(90.093 160.645)" fill="none" stroke="#555" stroke-linecap="round" stroke-linejoin="round" stroke-width="1"/>
        </g>
      </g>
    </g>
  </g>
</svg>
