<svg xmlns="http://www.w3.org/2000/svg" width="240" height="160" viewBox="0 0 240 160">
    <defs>
        <clipPath id="tcigi0g79a">
            <path transform="translate(1033 735)" style="fill:#fff;stroke:#707070" d="M0 0h240v160H0z"/>
        </clipPath>
        <clipPath id="qj9kdzjozb">
            <path data-name="사각형 1238" style="fill:none" d="M0 0h217.041v73.25H0z"/>
        </clipPath>
        <clipPath id="zwlaj6fkbc">
            <path data-name="사각형 1237" style="fill:none" d="M0 0h74v74H0z"/>
        </clipPath>
    </defs>
    <g transform="translate(-1033 -735)" style="clip-path:url(#tcigi0g79a)">
        <g data-name="그룹 18047" style="clip-path:url(#qj9kdzjozb)" transform="translate(1044 827)">
            <path data-name="패스 64715" d="m181.562 36.435-6.856-4.124a.239.239 0 0 0-.149-.035 93.73 93.73 0 0 0-28.5 7.86.257.257 0 0 0-.13.319.252.252 0 0 0 .3.161c7.75-2.059 16.407-3.364 35.2-3.666l11.151 6.708c-3.05-.142-12.911-.208-33.214 2.938-25.031 3.878-39.045 9.754-39.184 9.813a.256.256 0 0 0-.143.312.253.253 0 0 0 .292.175c.361-.075 36.471-7.508 73.222-6.578a91.683 91.683 0 0 1 5.813 8.266 23.234 23.234 0 0 0-4.392-1.843c-21.295-1.392-72.478 3.413-72.993 3.46a.257.257 0 0 0-.207.151.263.263 0 0 0 .026.257l3.334 4.627a.25.25 0 0 0 .2.105l78.347-.151a.25.25 0 0 0 .221-.132.26.26 0 0 0-.006-.259c-.125-.2-1.438-2.338-3.126-4.973 5.745 2.9 13.732 7.377 14.987 8.57h-94.31c-1.655-3.582-4.806-8.324-9.9-8.34h-.022c-6.1 0-8.668 8.172-8.775 8.52a.261.261 0 0 0 .038.228.252.252 0 0 0 .2.1h18.1a27.614 27.614 0 0 1 1.221 3.205h-23.7a12.15 12.15 0 0 1-.02-1.658c.143-.577 4.7-7.989 5.217-8.683a.3.3 0 0 0 .033-.308c-.46-1.026-17.311-3.6-34.58-4.924-20.957-1.608-44.668-1.708-44.9-1.708-2 0-3.8 1.178-7.065 3.316-.812.532-1.694 1.109-2.684 1.737l5.835-11.122c1.476.009 13.666.128 37.02 1.808 24.827 1.786 41.3 6.028 41.459 6.071a.251.251 0 0 0 .294-.142.259.259 0 0 0-.088-.317c-.084-.059-8.688-5.851-35.219-9.136-23.009-2.848-36.847-2.233-40.166-2.015l7.211-6.2c1.939.194 29.323 2.946 39.287 5.109a.253.253 0 0 0 .3-.178.257.257 0 0 0-.154-.312c-14.467-5.463-33.8-7.535-37.944-7.93 3.756-2.183 8.821-5.127 14.1-8.2 13.875 1.872 28.845 8.363 39.693 13.948a228.686 228.686 0 0 1 24.335 14.492.251.251 0 0 0 .252.022.257.257 0 0 0 .145-.21c.012-.153.071-.87.155-1.986 1.4 1.345 2.1 2.143 2.124 2.176a.25.25 0 0 0 .226.086.255.255 0 0 0 .194-.144 16.389 16.389 0 0 1 1.286-2.007l.079 2.366a.255.255 0 0 0 .16.229.252.252 0 0 0 .272-.057c.08-.082 8.162-8.241 26.063-18.2 16.293-9.066 38.758-11.9 38.983-11.927a.254.254 0 0 0 .22-.22.259.259 0 0 0-.155-.273l-14.938-6.167c14.773-5.014 24.436-5.49 24.572-5.5a.256.256 0 0 0 .061-.5c-13.35-4-38.716-11.636-39.657-12.029a.255.255 0 0 0-.162-.037c-11.678 1.333-20.937 8.264-26.651 13.843a65.8 65.8 0 0 0-9.692 11.9.257.257 0 0 0-.036.14l.08 2.43c-.252.322-.5.65-.744.98q-.758-.8-1.639-1.612a13.122 13.122 0 0 0-.273-1.668c-.782-3.127-7.042-9.611-14.886-15.417C87.255 5.051 78.155.914 71.643.626a.242.242 0 0 0-.156.046c-.947.476-29.3 11.377-44.225 17.1a.257.257 0 0 0 .077.5c.139.007 10.073.571 25.394 4.851-2.074 1.207-.726.456-7.027 4.088-5.168 3.004-10.206 5.934-14.216 8.263a.258.258 0 0 0-.121.278.254.254 0 0 0 .227.2c.208.016 19.67 1.642 35.394 6.837-12.12-2.106-35.831-4.458-36.09-4.484a.245.245 0 0 0-.188.059l-7.884 6.782a.259.259 0 0 0-.069.3.256.256 0 0 0 .257.156c.141-.014 14.419-1.315 40.854 1.958 20.07 2.486 29.811 6.4 33.358 8.148a270.538 270.538 0 0 0-39.706-5.644c-24.862-1.788-37.087-1.808-37.208-1.808a.252.252 0 0 0-.223.135l-6.319 12.031q-.45.282-.931.575c-2.125 1.3-4.453 2.571-6.508 3.693C1.66 67.242.49 67.954.637 68.545c.09.363.591.363.805.363h92.6c.978 0 2.7-2.238 2.7-3.243a.674.674 0 0 0-.184-.5.728.728 0 0 0-.534-.189h-84.07l2.2-4.194c1.3-.814 2.42-1.546 3.432-2.208 3.187-2.085 4.943-3.234 6.79-3.234.226 0 23.918.1 44.857 1.707 18.33 1.407 32.412 3.843 34.058 4.6-.835 1.271-5.106 8.137-5.189 8.728a14.482 14.482 0 0 0 .031 2.015.255.255 0 0 0 .252.237h24.272a.253.253 0 0 0 .2-.1.259.259 0 0 0 .044-.222 25.6 25.6 0 0 0-1.224-3.4h94.277c.417 0 .458-.265.461-.347.007-.218.017-.547-3.178-2.492-1.749-1.065-4.2-2.45-6.9-3.9a217.701 217.701 0 0 0-6.085-3.147 96.184 96.184 0 0 0-6.4-9.133.242.242 0 0 0-.178-.081c-30.807-.789-61.189 4.293-70.532 6.024 5.224-1.87 17.713-5.85 36.3-8.73 24.944-3.865 34.059-2.873 34.148-2.862a.253.253 0 0 0 .268-.173.256.256 0 0 0-.11-.3l-11.352-6.83m-33.517 2.492a94.42 94.42 0 0 1 25.642-6.633l6.08 3.658c-16.112.289-24.666 1.335-31.722 2.975M103.351 68.4c.55-1.531 3.122-7.827 8.179-7.827h.019c4.656.014 7.665 4.393 9.31 7.827zm11.315-38.53c10.3-13.026 27.941-18.417 29.3-18.817l20.223 8.347a150.012 150.012 0 0 0-19.78 8.606 90.725 90.725 0 0 0-22.926 17.184 78.551 78.551 0 0 0-6.076 7.049zm64.834-4.145c-4.453.645-23.751 3.8-38.225 11.857-15.718 8.745-23.905 16.119-25.765 17.886l-.081-2.441a89.292 89.292 0 0 1 29.208-24.563 149.039 149.039 0 0 1 20.259-8.77zM124.153 15.59c5.647-5.515 14.79-12.364 26.3-13.694.233.1.705.248 1.654.545 1.087.341 2.639.818 4.5 1.386 3.294 1.008 7.888 2.4 13.654 4.138 7.768 2.344 15.537 4.676 18.551 5.581a108.493 108.493 0 0 0-23.9 5.6l-20.842-8.607a.253.253 0 0 0-.163-.009c-.191.052-18.45 5.278-29.272 18.554l-.058-1.761a65.829 65.829 0 0 1 9.571-11.735m-12.306 14.236q.751.716 1.407 1.425a.257.257 0 0 0 .2.081.252.252 0 0 0 .189-.1q.267-.369.543-.733l.742 22.4c-.757 1.032-1.273 1.814-1.539 2.264a47.868 47.868 0 0 0-2.216-2.229c.389-5.295 1.149-17.121.674-23.1m-1.151 22.652c-5.1-4.746-16.937-14.368-36.434-22.443a189.244 189.244 0 0 0-20.226-7.076c9.425-5.488 17.879-10.422 19-11.113 11.356.974 29.271 9.281 38.262 17.465.547 5.523-.193 17.523-.6 23.167M28.5 17.845c3.024-1.16 12.052-4.625 21.08-8.1A5835.423 5835.423 0 0 0 64.8 3.861 856.74 856.74 0 0 0 69.822 1.9c1.09-.431 1.6-.634 1.846-.76 14.749.691 37.9 20.636 39.339 26.38a10.151 10.151 0 0 1 .191 1.026c-9.221-8.14-26.946-16.284-38.206-17.22h-.021a.25.25 0 0 0-.156.055c-.368.251-9.282 5.452-19.467 11.381A142.231 142.231 0 0 0 28.5 17.845m24.916 5.468a188.953 188.953 0 0 1 20.648 7.194c19.828 8.212 31.7 18.019 36.578 22.621-.065.875-.117 1.549-.149 1.957A232.445 232.445 0 0 0 86.467 40.81C75.751 35.292 61.021 28.893 47.255 26.9l6.163-3.587M11.31 65.115a.262.262 0 0 0 .006.253.253.253 0 0 0 .217.124h84.5a.278.278 0 0 1 .179.043.207.207 0 0 1 .033.13c0 .791-1.559 2.731-2.195 2.731H1.442a1.775 1.775 0 0 1-.257-.016 36.286 36.286 0 0 1 5.388-3.239c2.06-1.125 4.394-2.4 6.529-3.7l.2-.125zm191.916-.436-77.763.15-2.994-4.158c5.091-.47 52.273-4.738 72.469-3.418a26.22 26.22 0 0 1 4.938 2.124 374.531 374.531 0 0 1 3.35 5.3" style="fill:#c9e1f3"/>
            <path data-name="패스 64716" d="m181.562 36.435-6.856-4.124a.239.239 0 0 0-.149-.035 93.73 93.73 0 0 0-28.5 7.86.257.257 0 0 0-.13.319.252.252 0 0 0 .3.161c7.75-2.059 16.407-3.364 35.2-3.666l11.151 6.708c-3.05-.142-12.911-.208-33.214 2.938-25.031 3.878-39.045 9.754-39.184 9.813a.256.256 0 0 0-.143.312.253.253 0 0 0 .292.175c.361-.075 36.471-7.508 73.222-6.578a91.683 91.683 0 0 1 5.813 8.266 23.234 23.234 0 0 0-4.392-1.843c-21.295-1.392-72.478 3.413-72.993 3.46a.257.257 0 0 0-.207.151.263.263 0 0 0 .026.257l3.334 4.627a.25.25 0 0 0 .2.105l78.347-.151a.25.25 0 0 0 .221-.132.26.26 0 0 0-.006-.259c-.125-.2-1.438-2.338-3.126-4.973 5.745 2.9 13.732 7.377 14.987 8.57h-94.31c-1.655-3.582-4.806-8.324-9.9-8.34h-.022c-6.1 0-8.668 8.172-8.775 8.52a.261.261 0 0 0 .038.228.252.252 0 0 0 .2.1h18.1a27.614 27.614 0 0 1 1.221 3.205h-23.7a12.15 12.15 0 0 1-.02-1.658c.143-.577 4.7-7.989 5.217-8.683a.3.3 0 0 0 .033-.308c-.46-1.026-17.311-3.6-34.58-4.924-20.957-1.608-44.668-1.708-44.9-1.708-2 0-3.8 1.178-7.065 3.316-.812.532-1.694 1.109-2.684 1.737l5.835-11.122c1.476.009 13.666.128 37.02 1.808 24.827 1.786 41.3 6.028 41.459 6.071a.251.251 0 0 0 .294-.142.259.259 0 0 0-.088-.317c-.084-.059-8.688-5.851-35.219-9.136-23.009-2.848-36.847-2.233-40.166-2.015l7.211-6.2c1.939.194 29.323 2.946 39.287 5.109a.253.253 0 0 0 .3-.178.257.257 0 0 0-.154-.312c-14.467-5.463-33.8-7.535-37.944-7.93 3.756-2.183 8.821-5.127 14.1-8.2 13.875 1.872 28.845 8.363 39.693 13.948a228.686 228.686 0 0 1 24.335 14.492.251.251 0 0 0 .252.022.257.257 0 0 0 .145-.21c.012-.153.071-.87.155-1.986 1.4 1.345 2.1 2.143 2.124 2.176a.25.25 0 0 0 .226.086.255.255 0 0 0 .194-.144 16.389 16.389 0 0 1 1.286-2.007l.079 2.366a.255.255 0 0 0 .16.229.252.252 0 0 0 .272-.057c.08-.082 8.162-8.241 26.063-18.2 16.293-9.066 38.758-11.9 38.983-11.927a.254.254 0 0 0 .22-.22.259.259 0 0 0-.155-.273l-14.938-6.167c14.773-5.014 24.436-5.49 24.572-5.5a.256.256 0 0 0 .061-.5c-13.35-4-38.716-11.636-39.657-12.029a.255.255 0 0 0-.162-.037c-11.678 1.333-20.937 8.264-26.651 13.843a65.8 65.8 0 0 0-9.692 11.9.257.257 0 0 0-.036.14l.08 2.43c-.252.322-.5.65-.744.98q-.758-.8-1.639-1.612a13.122 13.122 0 0 0-.273-1.668c-.782-3.127-7.042-9.611-14.886-15.417C87.255 5.051 78.155.914 71.643.626a.242.242 0 0 0-.156.046c-.947.476-29.3 11.377-44.225 17.1a.257.257 0 0 0 .077.5c.139.007 10.073.571 25.394 4.851-2.074 1.207-.726.456-7.027 4.088-5.168 3.004-10.206 5.934-14.216 8.263a.258.258 0 0 0-.121.278.254.254 0 0 0 .227.2c.208.016 19.67 1.642 35.394 6.837-12.12-2.106-35.831-4.458-36.09-4.484a.245.245 0 0 0-.188.059l-7.884 6.782a.259.259 0 0 0-.069.3.256.256 0 0 0 .257.156c.141-.014 14.419-1.315 40.854 1.958 20.07 2.486 29.811 6.4 33.358 8.148a270.538 270.538 0 0 0-39.706-5.644c-24.862-1.788-37.087-1.808-37.208-1.808a.252.252 0 0 0-.223.135l-6.319 12.031q-.45.282-.931.575c-2.125 1.3-4.453 2.571-6.508 3.693C1.66 67.242.49 67.954.637 68.545c.09.363.591.363.805.363h92.6c.978 0 2.7-2.238 2.7-3.243a.674.674 0 0 0-.184-.5.728.728 0 0 0-.534-.189h-84.07l2.2-4.194c1.3-.814 2.42-1.546 3.432-2.208 3.187-2.085 4.943-3.234 6.79-3.234.226 0 23.918.1 44.857 1.707 18.33 1.407 32.412 3.843 34.058 4.6-.835 1.271-5.106 8.137-5.189 8.728a14.482 14.482 0 0 0 .031 2.015.255.255 0 0 0 .252.237h24.272a.253.253 0 0 0 .2-.1.259.259 0 0 0 .044-.222 25.6 25.6 0 0 0-1.224-3.4h94.277c.417 0 .458-.265.461-.347.007-.218.017-.547-3.178-2.492-1.749-1.065-4.2-2.45-6.9-3.9a217.701 217.701 0 0 0-6.085-3.147 96.184 96.184 0 0 0-6.4-9.133.242.242 0 0 0-.178-.081c-30.807-.789-61.189 4.293-70.532 6.024 5.224-1.87 17.713-5.85 36.3-8.73 24.944-3.865 34.059-2.873 34.148-2.862a.253.253 0 0 0 .268-.173.256.256 0 0 0-.11-.3l-11.352-6.83m-33.517 2.492a94.42 94.42 0 0 1 25.642-6.633l6.08 3.658c-16.115.29-24.669 1.336-31.725 2.976zM103.351 68.4c.55-1.531 3.122-7.827 8.179-7.827h.019c4.656.014 7.665 4.393 9.31 7.827zm11.315-38.53c10.3-13.026 27.941-18.417 29.3-18.817l20.223 8.347a150.012 150.012 0 0 0-19.78 8.606 90.725 90.725 0 0 0-22.926 17.184 78.551 78.551 0 0 0-6.076 7.049zm64.834-4.145c-4.453.645-23.751 3.8-38.225 11.857-15.718 8.745-23.905 16.119-25.765 17.886l-.081-2.441a89.292 89.292 0 0 1 29.208-24.563 149.039 149.039 0 0 1 20.259-8.77zM124.153 15.59c5.647-5.515 14.79-12.364 26.3-13.694.233.1.705.248 1.654.545 1.087.341 2.639.818 4.5 1.386 3.294 1.008 7.888 2.4 13.654 4.138 7.768 2.344 15.537 4.676 18.551 5.581a108.493 108.493 0 0 0-23.9 5.6l-20.842-8.607a.253.253 0 0 0-.163-.009c-.191.052-18.45 5.278-29.272 18.554l-.058-1.761a65.829 65.829 0 0 1 9.576-11.733zm-12.311 14.234q.751.716 1.407 1.425a.257.257 0 0 0 .2.081.252.252 0 0 0 .189-.1q.267-.369.543-.733l.742 22.4c-.757 1.032-1.273 1.814-1.539 2.264a47.868 47.868 0 0 0-2.216-2.229c.389-5.302 1.149-17.132.674-23.108zm-1.151 22.652c-5.1-4.746-16.937-14.368-36.434-22.443a189.244 189.244 0 0 0-20.226-7.076c9.425-5.488 17.879-10.422 19-11.113 11.356.974 29.271 9.281 38.262 17.465.542 5.523-.193 17.523-.602 23.167zM28.5 17.845c3.024-1.16 12.052-4.625 21.08-8.1A5835.423 5835.423 0 0 0 64.8 3.861 856.74 856.74 0 0 0 69.822 1.9c1.09-.431 1.6-.634 1.846-.76 14.749.691 37.9 20.636 39.339 26.38a10.151 10.151 0 0 1 .191 1.026c-9.221-8.14-26.946-16.284-38.206-17.22h-.021a.25.25 0 0 0-.156.055c-.368.251-9.282 5.452-19.467 11.381A142.231 142.231 0 0 0 28.5 17.845zm24.916 5.468a188.953 188.953 0 0 1 20.648 7.194c19.828 8.212 31.7 18.019 36.578 22.621-.065.875-.117 1.549-.149 1.957A232.445 232.445 0 0 0 86.467 40.81C75.751 35.292 61.021 28.893 47.255 26.9zM11.31 65.115a.262.262 0 0 0 .006.253.253.253 0 0 0 .217.124h84.5a.278.278 0 0 1 .179.043.207.207 0 0 1 .033.13c0 .791-1.559 2.731-2.195 2.731H1.442a1.775 1.775 0 0 1-.257-.016 36.286 36.286 0 0 1 5.388-3.239c2.06-1.125 4.394-2.4 6.529-3.7l.2-.125zm191.916-.436-77.763.15-2.994-4.158c5.091-.47 52.273-4.738 72.469-3.418a26.22 26.22 0 0 1 4.938 2.124 409.858 409.858 0 0 1 3.35 5.302z" style="stroke-width:1.25px;stroke:#c9e1f3;stroke-linecap:round;stroke-linejoin:round;fill:none"/>
        </g>
        <path data-name="선 61" transform="translate(1186.52 763.987)" style="stroke-width:2px;stroke:#c9e1f3;stroke-linecap:round;stroke-linejoin:round;fill:none" d="M0 0h21.314"/>
        <path data-name="선 62" transform="translate(1197.177 760.098)" style="stroke-width:2px;stroke:#c9e1f3;stroke-linecap:round;stroke-linejoin:round;fill:none" d="M0 0v3.803"/>
        <g data-name="그룹 18046">
            <g data-name="그룹 18045" style="clip-path:url(#zwlaj6fkbc)" transform="translate(1146 749)">
                <path data-name="패스 64710" d="M56.692 15.3c-.131 5.867-2.463 11.434-9.222 16.046" style="stroke-width:2px;stroke:#c9e1f3;stroke-linecap:round;stroke-linejoin:round;fill:none"/>
                <path data-name="패스 64711" d="M60.526 34.5A27.464 27.464 0 0 1 47.32 20.855" style="stroke-width:2px;stroke:#c9e1f3;stroke-linecap:round;stroke-linejoin:round;fill:none"/>
                <path data-name="패스 64712" d="m13.564 61.88 8.752-21.367 8.753 21.367" style="stroke-width:2px;stroke:#c9e1f3;stroke-linecap:round;stroke-linejoin:round;fill:none"/>
                <path data-name="선 63" transform="translate(16.545 55.523)" style="stroke-width:2px;stroke:#c9e1f3;stroke-linecap:round;stroke-linejoin:round;fill:none" d="M0 0h7.65"/>
                <path data-name="패스 64713" d="M29.354 24.652V12.124A11.124 11.124 0 0 1 40.478 1h21.4A11.123 11.123 0 0 1 73 12.124v21.4a11.123 11.123 0 0 1-11.125 11.121H49.347" style="stroke-width:2px;stroke:#c9e1f3;stroke-linecap:round;stroke-linejoin:round;fill:none"/>
                <path data-name="패스 64714" d="M22.823 73h0a21.823 21.823 0 1 1 21.823-21.823A21.823 21.823 0 0 1 22.823 73z" style="stroke-width:2px;stroke:#c9e1f3;stroke-linecap:round;stroke-linejoin:round;fill:none"/>
            </g>
        </g>
    </g>
</svg>
